  0
SECTION
  2
HEADER
  9
$ACADVER
  1
AC1009
  9
$DWGCODEPAGE
  3
ANSI_1252
  9
$EXTMIN
 10
1e+20
 20
1e+20
 30
1e+20
  9
$EXTMAX
 10
-1e+20
 20
-1e+20
 30
-1e+20
  9
$LIMMIN
 10
0.0
 20
0.0
  9
$LIMMAX
 10
420.0
 20
297.0
  9
$TDCREATE
 40
2461320.5939699076
  9
$TDUPDATE
 40
2461320.5939699076
  9
$PEXTMIN
 10
1e+20
 20
1e+20
 30
1e+20
  9
$PEXTMAX
 10
-1e+20
 20
-1e+20
 30
-1e+20
  9
$PLIMMIN
 10
0.0
 20
0.0
  9
$PLIMMAX
 10
420.0
 20
297.0
  0
ENDSEC
  0
SECTION
  2
TABLES
  0
TABLE
  2
VPORT
 70
1
  0
VPORT
  2
*Active
 70
0
 10
0.0
 20
0.0
 11
1.0
 21
1.0
 12
0.0
 22
0.0
 13
0.0
 23
0.0
 14
0.5
 24
0.5
 15
0.5
 25
0.5
 16
0.0
 26
0.0
 36
1.0
 17
0.0
 27
0.0
 37
0.0
 40
1000.0
 41
1.34
 42
50.0
 43
0.0
 44
0.0
 50
0.0
 51
0.0
 71
0
 72
1000
 73
1
 74
3
 75
0
 76
0
 77
0
 78
0
  0
ENDTAB
  0
TABLE
  2
LTYPE
 70
3
  0
LTYPE
  2
ByBlock
 70
0
  3

 72
65
 73
0
 40
0.0
  0
LTYPE
  2
ByLayer
 70
0
  3

 72
65
 73
0
 40
0.0
  0
LTYPE
  2
Continuous
 70
0
  3

 72
65
 73
0
 40
0.0
  0
ENDTAB
  0
TABLE
  2
LAYER
 70
4
  0
LAYER
  2
CUT
 70
0
 62
7
  6
CONTINUOUS
  0
LAYER
  2
INFO_CSK
 70
0
 62
3
  6
CONTINUOUS
  0
LAYER
  2
0
 70
0
 62
7
  6
Continuous
  0
LAYER
  2
Defpoints
 70
0
 62
7
  6
Continuous
  0
ENDTAB
  0
TABLE
  2
STYLE
 70
1
  0
STYLE
  2
Standard
 70
0
 40
0.0
 41
1.0
 50
0.0
 71
0
 42
2.5
  3
txt
  4

  0
ENDTAB
  0
TABLE
  2
VIEW
 70
0
  0
ENDTAB
  0
TABLE
  2
UCS
 70
0
  0
ENDTAB
  0
TABLE
  2
APPID
 70
3
  0
APPID
  2
ACAD
 70
0
  0
APPID
  2
HATCHBACKGROUNDCOLOR
 70
0
  0
APPID
  2
EZDXF
 70
0
  0
ENDTAB
  0
TABLE
  2
DIMSTYLE
 70
1
  0
DIMSTYLE
  2
Standard
 70
0
  3

  4

  5

  6

  7

 40
1.0
 41
2.5
 42
0.625
 43
3.75
 44
1.25
 45
0.0
 46
0.0
 47
0.0
 48
0.0
140
2.5
141
2.5
142
0.0
143
0.03937007874
144
1.0
145
0.0
146
1.0
147
0.625
 71
0
 72
0
 73
0
 74
0
 75
0
 76
0
 77
1
 78
8
170
0
171
3
172
1
173
0
174
0
175
0
176
0
177
0
178
0
  0
ENDTAB
  0
ENDSEC
  0
SECTION
  2
BLOCKS
  0
BLOCK
  8
0
  2
$Model_Space
 70
0
 10
0.0
 20
0.0
 30
0.0
  3
$Model_Space
  1

1001
EZDXF
1000
WRITTEN_BY_EZDXF
1000
1.4.4 @ 2026-10-06T12:15:19.131366+00:00
  0
ENDBLK
  8
0
  0
BLOCK
  8
0
  2
$Paper_Space
 70
0
 10
0.0
 20
0.0
 30
0.0
  3
$Paper_Space
  1

  0
ENDBLK
  8
0
  0
ENDSEC
  0
SECTION
  2
ENTITIES
  0
POLYLINE
  8
CUT
 66
1
 10
0.0
 20
0.0
 30
0.0
 70
1
  0
VERTEX
  8
CUT
 10
3.0
 20
0.0
 30
0.0
 70
0
  0
VERTEX
  8
CUT
 10
177.0
 20
0.0
 30
0.0
 42
0.4142
 70
0
  0
VERTEX
  8
CUT
 10
180.0
 20
3.0
 30
0.0
 70
0
  0
VERTEX
  8
CUT
 10
180.0
 20
87.0
 30
0.0
 42
0.4142
 70
0
  0
VERTEX
  8
CUT
 10
177.0
 20
90.0
 30
0.0
 70
0
  0
VERTEX
  8
CUT
 10
3.0
 20
90.0
 30
0.0
 42
0.4142
 70
0
  0
VERTEX
  8
CUT
 10
0.0
 20
87.0
 30
0.0
 70
0
  0
VERTEX
  8
CUT
 10
0.0
 20
3.0
 30
0.0
 42
0.4142
 70
0
  0
SEQEND
  8
CUT
  0
POLYLINE
  8
CUT
 66
1
 10
0.0
 20
0.0
 30
0.0
 70
1
  0
VERTEX
  8
CUT
 10
150.2822
 20
82.0
 30
0.0
 70
0
  0
VERTEX
  8
CUT
 10
150.2822
 20
79.0236
 30
0.0
 70
0
  0
VERTEX
  8
CUT
 10
149.3911
 20
79.5039
 30
0.0
 70
0
  0
VERTEX
  8
CUT
 10
148.4695
 20
79.9286
 30
0.0
 70
0
  0
VERTEX
  8
CUT
 10
147.52
 20
80.2978
 30
0.0
 70
0
  0
VERTEX
  8
CUT
 10
146.5429
 20
80.6087
 30
0.0
 70
0
  0
VERTEX
  8
CUT
 10
145.5407
 20
80.8614
 30
0.0
 70
0
  0
VERTEX
  8
CUT
 10
144.5163
 20
81.0529
 30
0.0
 70
0
  0
VERTEX
  8
CUT
 10
143.4698
 20
81.1778
 30
0.0
 70
0
  0
VERTEX
  8
CUT
 10
142.4038
 20
81.2361
 30
0.0
 70
0
  0
VERTEX
  8
CUT
 10
142.6366
 20
82.0
 30
0.0
 70
0
  0
SEQEND
  8
CUT
  0
POLYLINE
  8
CUT
 66
1
 10
0.0
 20
0.0
 30
0.0
 70
1
  0
VERTEX
  8
CUT
 10
166.0
 20
82.0
 30
0.0
 70
0
  0
VERTEX
  8
CUT
 10
167.6485
 20
80.3515
 30
0.0
 70
0
  0
VERTEX
  8
CUT
 10
167.48
 20
80.2978
 30
0.0
 70
0
  0
VERTEX
  8
CUT
 10
166.5305
 20
79.9286
 30
0.0
 70
0
  0
VERTEX
  8
CUT
 10
165.6089
 20
79.5039
 30
0.0
 70
0
  0
VERTEX
  8
CUT
 10
164.7178
 20
79.0236
 30
0.0
 70
0
  0
VERTEX
  8
CUT
 10
164.7178
 20
82.0
 30
0.0
 70
0
  0
SEQEND
  8
CUT
  0
POLYLINE
  8
CUT
 66
1
 10
0.0
 20
0.0
 30
0.0
 70
1
  0
VERTEX
  8
CUT
 10
159.4849
 20
82.0
 30
0.0
 70
0
  0
VERTEX
  8
CUT
 10
159.4849
 20
74.2599
 30
0.0
 70
0
  0
VERTEX
  8
CUT
 10
159.3655
 20
74.0878
 30
0.0
 70
0
  0
VERTEX
  8
CUT
 10
159.2461
 20
73.9129
 30
0.0
 70
0
  0
VERTEX
  8
CUT
 10
159.1295
 20
73.7407
 30
0.0
 70
0
  0
VERTEX
  8
CUT
 10
159.0157
 20
73.5631
 30
0.0
 70
0
  0
VERTEX
  8
CUT
 10
158.9047
 20
73.3854
 30
0.0
 70
0
  0
VERTEX
  8
CUT
 10
158.7964
 20
73.2077
 30
0.0
 70
0
  0
VERTEX
  8
CUT
 10
158.6882
 20
73.0273
 30
0.0
 70
0
  0
VERTEX
  8
CUT
 10
158.5827
 20
72.8441
 30
0.0
 70
0
  0
VERTEX
  8
CUT
 10
158.5827
 20
82.0
 30
0.0
 70
0
  0
SEQEND
  8
CUT
  0
POLYLINE
  8
CUT
 66
1
 10
0.0
 20
0.0
 30
0.0
 70
1
  0
VERTEX
  8
CUT
 10
156.4173
 20
82.0
 30
0.0
 70
0
  0
VERTEX
  8
CUT
 10
156.4173
 20
72.8441
 30
0.0
 70
0
  0
VERTEX
  8
CUT
 10
156.3118
 20
73.0273
 30
0.0
 70
0
  0
VERTEX
  8
CUT
 10
156.2036
 20
73.2077
 30
0.0
 70
0
  0
VERTEX
  8
CUT
 10
156.0953
 20
73.3854
 30
0.0
 70
0
  0
VERTEX
  8
CUT
 10
155.9843
 20
73.5631
 30
0.0
 70
0
  0
VERTEX
  8
CUT
 10
155.8705
 20
73.7407
 30
0.0
 70
0
  0
VERTEX
  8
CUT
 10
155.7539
 20
73.9129
 30
0.0
 70
0
  0
VERTEX
  8
CUT
 10
155.6345
 20
74.0878
 30
0.0
 70
0
  0
VERTEX
  8
CUT
 10
155.5151
 20
74.2599
 30
0.0
 70
0
  0
VERTEX
  8
CUT
 10
155.5151
 20
82.0
 30
0.0
 70
0
  0
SEQEND
  8
CUT
  0
POLYLINE
  8
CUT
 66
1
 10
0.0
 20
0.0
 30
0.0
 70
1
  0
VERTEX
  8
CUT
 10
153.3498
 20
82.0
 30
0.0
 70
0
  0
VERTEX
  8
CUT
 10
153.3498
 20
76.7417
 30
0.0
 70
0
  0
VERTEX
  8
CUT
 10
153.2387
 20
76.8416
 30
0.0
 70
0
  0
VERTEX
  8
CUT
 10
153.1277
 20
76.9443
 30
0.0
 70
0
  0
VERTEX
  8
CUT
 10
153.0167
 20
77.0443
 30
0.0
 70
0
  0
VERTEX
  8
CUT
 10
152.9056
 20
77.1442
 30
0.0
 70
0
  0
VERTEX
  8
CUT
 10
152.7918
 20
77.2441
 30
0.0
 70
0
  0
VERTEX
  8
CUT
 10
152.678
 20
77.3413
 30
0.0
 70
0
  0
VERTEX
  8
CUT
 10
152.5614
 20
77.4385
 30
0.0
 70
0
  0
VERTEX
  8
CUT
 10
152.4448
 20
77.5329
 30
0.0
 70
0
  0
VERTEX
  8
CUT
 10
152.4448
 20
82.0
 30
0.0
 70
0
  0
SEQEND
  8
CUT
  0
POLYLINE
  8
CUT
 66
1
 10
0.0
 20
0.0
 30
0.0
 70
1
  0
VERTEX
  8
CUT
 10
162.5552
 20
82.0
 30
0.0
 70
0
  0
VERTEX
  8
CUT
 10
162.5552
 20
77.5329
 30
0.0
 70
0
  0
VERTEX
  8
CUT
 10
162.4386
 20
77.4385
 30
0.0
 70
0
  0
VERTEX
  8
CUT
 10
162.322
 20
77.3413
 30
0.0
 70
0
  0
VERTEX
  8
CUT
 10
162.2082
 20
77.2441
 30
0.0
 70
0
  0
VERTEX
  8
CUT
 10
162.0944
 20
77.1442
 30
0.0
 70
0
  0
VERTEX
  8
CUT
 10
161.9833
 20
77.0443
 30
0.0
 70
0
  0
VERTEX
  8
CUT
 10
161.8723
 20
76.9443
 30
0.0
 70
0
  0
VERTEX
  8
CUT
 10
161.7613
 20
76.8416
 30
0.0
 70
0
  0
VERTEX
  8
CUT
 10
161.6502
 20
76.7417
 30
0.0
 70
0
  0
VERTEX
  8
CUT
 10
161.6502
 20
82.0
 30
0.0
 70
0
  0
SEQEND
  8
CUT
  0
POLYLINE
  8
CUT
 66
1
 10
0.0
 20
0.0
 30
0.0
 70
1
  0
VERTEX
  8
CUT
 10
172.0
 20
64.6157
 30
0.0
 70
0
  0
VERTEX
  8
CUT
 10
171.8911
 20
64.6744
 30
0.0
 70
0
  0
VERTEX
  8
CUT
 10
170.9695
 20
65.0991
 30
0.0
 70
0
  0
VERTEX
  8
CUT
 10
170.02
 20
65.4684
 30
0.0
 70
0
  0
VERTEX
  8
CUT
 10
169.0429
 20
65.7793
 30
0.0
 70
0
  0
VERTEX
  8
CUT
 10
168.0407
 20
66.0319
 30
0.0
 70
0
  0
VERTEX
  8
CUT
 10
167.0163
 20
66.2234
 30
0.0
 70
0
  0
VERTEX
  8
CUT
 10
165.9698
 20
66.3484
 30
0.0
 70
0
  0
VERTEX
  8
CUT
 10
164.9038
 20
66.4067
 30
0.0
 70
0
  0
VERTEX
  8
CUT
 10
165.3091
 20
67.7364
 30
0.0
 70
0
  0
VERTEX
  8
CUT
 10
165.9226
 20
68.9606
 30
0.0
 70
0
  0
VERTEX
  8
CUT
 10
166.7221
 20
70.0572
 30
0.0
 70
0
  0
VERTEX
  8
CUT
 10
167.6854
 20
71.0094
 30
0.0
 70
0
  0
VERTEX
  8
CUT
 10
168.7958
 20
71.795
 30
0.0
 70
0
  0
VERTEX
  8
CUT
 10
170.0284
 20
72.3919
 30
0.0
 70
0
  0
VERTEX
  8
CUT
 10
171.3637
 20
72.7805
 30
0.0
 70
0
  0
VERTEX
  8
CUT
 10
172.0
 20
72.8515
 30
0.0
 70
0
  0
SEQEND
  8
CUT
  0
POLYLINE
  8
CUT
 66
1
 10
0.0
 20
0.0
 30
0.0
 70
1
  0
VERTEX
  8
CUT
 10
105.2822
 20
82.0
 30
0.0
 70
0
  0
VERTEX
  8
CUT
 10
105.2822
 20
79.0236
 30
0.0
 70
0
  0
VERTEX
  8
CUT
 10
104.3911
 20
79.5039
 30
0.0
 70
0
  0
VERTEX
  8
CUT
 10
103.4695
 20
79.9286
 30
0.0
 70
0
  0
VERTEX
  8
CUT
 10
102.52
 20
80.2978
 30
0.0
 70
0
  0
VERTEX
  8
CUT
 10
101.5429
 20
80.6087
 30
0.0
 70
0
  0
VERTEX
  8
CUT
 10
100.5407
 20
80.8614
 30
0.0
 70
0
  0
VERTEX
  8
CUT
 10
99.5163
 20
81.0529
 30
0.0
 70
0
  0
VERTEX
  8
CUT
 10
98.4698
 20
81.1778
 30
0.0
 70
0
  0
VERTEX
  8
CUT
 10
97.4038
 20
81.2361
 30
0.0
 70
0
  0
VERTEX
  8
CUT
 10
97.6366
 20
82.0
 30
0.0
 70
0
  0
SEQEND
  8
CUT
  0
POLYLINE
  8
CUT
 66
1
 10
0.0
 20
0.0
 30
0.0
 70
1
  0
VERTEX
  8
CUT
 10
127.3634
 20
82.0
 30
0.0
 70
0
  0
VERTEX
  8
CUT
 10
127.5962
 20
81.2361
 30
0.0
 70
0
  0
VERTEX
  8
CUT
 10
126.5302
 20
81.1778
 30
0.0
 70
0
  0
VERTEX
  8
CUT
 10
125.4837
 20
81.0529
 30
0.0
 70
0
  0
VERTEX
  8
CUT
 10
124.4593
 20
80.8614
 30
0.0
 70
0
  0
VERTEX
  8
CUT
 10
123.4571
 20
80.6087
 30
0.0
 70
0
  0
VERTEX
  8
CUT
 10
122.48
 20
80.2978
 30
0.0
 70
0
  0
VERTEX
  8
CUT
 10
121.5305
 20
79.9286
 30
0.0
 70
0
  0
VERTEX
  8
CUT
 10
120.6089
 20
79.5039
 30
0.0
 70
0
  0
VERTEX
  8
CUT
 10
119.7178
 20
79.0236
 30
0.0
 70
0
  0
VERTEX
  8
CUT
 10
119.7178
 20
82.0
 30
0.0
 70
0
  0
SEQEND
  8
CUT
  0
POLYLINE
  8
CUT
 66
1
 10
0.0
 20
0.0
 30
0.0
 70
1
  0
VERTEX
  8
CUT
 10
114.4849
 20
82.0
 30
0.0
 70
0
  0
VERTEX
  8
CUT
 10
114.4849
 20
74.2599
 30
0.0
 70
0
  0
VERTEX
  8
CUT
 10
114.3655
 20
74.0878
 30
0.0
 70
0
  0
VERTEX
  8
CUT
 10
114.2461
 20
73.9129
 30
0.0
 70
0
  0
VERTEX
  8
CUT
 10
114.1295
 20
73.7407
 30
0.0
 70
0
  0
VERTEX
  8
CUT
 10
114.0157
 20
73.5631
 30
0.0
 70
0
  0
VERTEX
  8
CUT
 10
113.9047
 20
73.3854
 30
0.0
 70
0
  0
VERTEX
  8
CUT
 10
113.7964
 20
73.2077
 30
0.0
 70
0
  0
VERTEX
  8
CUT
 10
113.6882
 20
73.0273
 30
0.0
 70
0
  0
VERTEX
  8
CUT
 10
113.5827
 20
72.8441
 30
0.0
 70
0
  0
VERTEX
  8
CUT
 10
113.5827
 20
82.0
 30
0.0
 70
0
  0
SEQEND
  8
CUT
  0
POLYLINE
  8
CUT
 66
1
 10
0.0
 20
0.0
 30
0.0
 70
1
  0
VERTEX
  8
CUT
 10
111.4173
 20
82.0
 30
0.0
 70
0
  0
VERTEX
  8
CUT
 10
111.4173
 20
72.8441
 30
0.0
 70
0
  0
VERTEX
  8
CUT
 10
111.3118
 20
73.0273
 30
0.0
 70
0
  0
VERTEX
  8
CUT
 10
111.2036
 20
73.2077
 30
0.0
 70
0
  0
VERTEX
  8
CUT
 10
111.0953
 20
73.3854
 30
0.0
 70
0
  0
VERTEX
  8
CUT
 10
110.9843
 20
73.5631
 30
0.0
 70
0
  0
VERTEX
  8
CUT
 10
110.8705
 20
73.7407
 30
0.0
 70
0
  0
VERTEX
  8
CUT
 10
110.7539
 20
73.9129
 30
0.0
 70
0
  0
VERTEX
  8
CUT
 10
110.6345
 20
74.0878
 30
0.0
 70
0
  0
VERTEX
  8
CUT
 10
110.5151
 20
74.2599
 30
0.0
 70
0
  0
VERTEX
  8
CUT
 10
110.5151
 20
82.0
 30
0.0
 70
0
  0
SEQEND
  8
CUT
  0
POLYLINE
  8
CUT
 66
1
 10
0.0
 20
0.0
 30
0.0
 70
1
  0
VERTEX
  8
CUT
 10
108.3498
 20
82.0
 30
0.0
 70
0
  0
VERTEX
  8
CUT
 10
108.3498
 20
76.7417
 30
0.0
 70
0
  0
VERTEX
  8
CUT
 10
108.2387
 20
76.8416
 30
0.0
 70
0
  0
VERTEX
  8
CUT
 10
108.1277
 20
76.9443
 30
0.0
 70
0
  0
VERTEX
  8
CUT
 10
108.0167
 20
77.0443
 30
0.0
 70
0
  0
VERTEX
  8
CUT
 10
107.9056
 20
77.1442
 30
0.0
 70
0
  0
VERTEX
  8
CUT
 10
107.7918
 20
77.2441
 30
0.0
 70
0
  0
VERTEX
  8
CUT
 10
107.678
 20
77.3413
 30
0.0
 70
0
  0
VERTEX
  8
CUT
 10
107.5614
 20
77.4385
 30
0.0
 70
0
  0
VERTEX
  8
CUT
 10
107.4448
 20
77.5329
 30
0.0
 70
0
  0
VERTEX
  8
CUT
 10
107.4448
 20
82.0
 30
0.0
 70
0
  0
SEQEND
  8
CUT
  0
POLYLINE
  8
CUT
 66
1
 10
0.0
 20
0.0
 30
0.0
 70
1
  0
VERTEX
  8
CUT
 10
117.5552
 20
82.0
 30
0.0
 70
0
  0
VERTEX
  8
CUT
 10
117.5552
 20
77.5329
 30
0.0
 70
0
  0
VERTEX
  8
CUT
 10
117.4386
 20
77.4385
 30
0.0
 70
0
  0
VERTEX
  8
CUT
 10
117.322
 20
77.3413
 30
0.0
 70
0
  0
VERTEX
  8
CUT
 10
117.2082
 20
77.2441
 30
0.0
 70
0
  0
VERTEX
  8
CUT
 10
117.0944
 20
77.1442
 30
0.0
 70
0
  0
VERTEX
  8
CUT
 10
116.9833
 20
77.0443
 30
0.0
 70
0
  0
VERTEX
  8
CUT
 10
116.8723
 20
76.9443
 30
0.0
 70
0
  0
VERTEX
  8
CUT
 10
116.7613
 20
76.8416
 30
0.0
 70
0
  0
VERTEX
  8
CUT
 10
116.6502
 20
76.7417
 30
0.0
 70
0
  0
VERTEX
  8
CUT
 10
116.6502
 20
82.0
 30
0.0
 70
0
  0
SEQEND
  8
CUT
  0
POLYLINE
  8
CUT
 66
1
 10
0.0
 20
0.0
 30
0.0
 70
1
  0
VERTEX
  8
CUT
 10
127.7822
 20
64.1941
 30
0.0
 70
0
  0
VERTEX
  8
CUT
 10
126.8911
 20
64.6744
 30
0.0
 70
0
  0
VERTEX
  8
CUT
 10
125.9695
 20
65.0991
 30
0.0
 70
0
  0
VERTEX
  8
CUT
 10
125.02
 20
65.4684
 30
0.0
 70
0
  0
VERTEX
  8
CUT
 10
124.0429
 20
65.7793
 30
0.0
 70
0
  0
VERTEX
  8
CUT
 10
123.0407
 20
66.0319
 30
0.0
 70
0
  0
VERTEX
  8
CUT
 10
122.0163
 20
66.2234
 30
0.0
 70
0
  0
VERTEX
  8
CUT
 10
120.9698
 20
66.3484
 30
0.0
 70
0
  0
VERTEX
  8
CUT
 10
119.9038
 20
66.4067
 30
0.0
 70
0
  0
VERTEX
  8
CUT
 10
120.3091
 20
67.7364
 30
0.0
 70
0
  0
VERTEX
  8
CUT
 10
120.9226
 20
68.9606
 30
0.0
 70
0
  0
VERTEX
  8
CUT
 10
121.7221
 20
70.0572
 30
0.0
 70
0
  0
VERTEX
  8
CUT
 10
122.6854
 20
71.0094
 30
0.0
 70
0
  0
VERTEX
  8
CUT
 10
123.7958
 20
71.795
 30
0.0
 70
0
  0
VERTEX
  8
CUT
 10
125.0284
 20
72.3919
 30
0.0
 70
0
  0
VERTEX
  8
CUT
 10
126.3637
 20
72.7805
 30
0.0
 70
0
  0
VERTEX
  8
CUT
 10
127.7822
 20
72.9387
 30
0.0
 70
0
  0
SEQEND
  8
CUT
  0
POLYLINE
  8
CUT
 66
1
 10
0.0
 20
0.0
 30
0.0
 70
1
  0
VERTEX
  8
CUT
 10
150.0962
 20
66.4067
 30
0.0
 70
0
  0
VERTEX
  8
CUT
 10
149.0302
 20
66.3484
 30
0.0
 70
0
  0
VERTEX
  8
CUT
 10
147.9837
 20
66.2234
 30
0.0
 70
0
  0
VERTEX
  8
CUT
 10
146.9593
 20
66.0319
 30
0.0
 70
0
  0
VERTEX
  8
CUT
 10
145.9571
 20
65.7793
 30
0.0
 70
0
  0
VERTEX
  8
CUT
 10
144.98
 20
65.4684
 30
0.0
 70
0
  0
VERTEX
  8
CUT
 10
144.0305
 20
65.0991
 30
0.0
 70
0
  0
VERTEX
  8
CUT
 10
143.1089
 20
64.6744
 30
0.0
 70
0
  0
VERTEX
  8
CUT
 10
142.2178
 20
64.1941
 30
0.0
 70
0
  0
VERTEX
  8
CUT
 10
142.2178
 20
72.9387
 30
0.0
 70
0
  0
VERTEX
  8
CUT
 10
143.6363
 20
72.7805
 30
0.0
 70
0
  0
VERTEX
  8
CUT
 10
144.9716
 20
72.3919
 30
0.0
 70
0
  0
VERTEX
  8
CUT
 10
146.2042
 20
71.795
 30
0.0
 70
0
  0
VERTEX
  8
CUT
 10
147.3146
 20
71.0094
 30
0.0
 70
0
  0
VERTEX
  8
CUT
 10
148.2779
 20
70.0572
 30
0.0
 70
0
  0
VERTEX
  8
CUT
 10
149.0774
 20
68.9606
 30
0.0
 70
0
  0
VERTEX
  8
CUT
 10
149.6909
 20
67.7364
 30
0.0
 70
0
  0
SEQEND
  8
CUT
  0
POLYLINE
  8
CUT
 66
1
 10
0.0
 20
0.0
 30
0.0
 70
1
  0
VERTEX
  8
CUT
 10
136.9849
 20
59.4304
 30
0.0
 70
0
  0
VERTEX
  8
CUT
 10
136.8655
 20
59.2583
 30
0.0
 70
0
  0
VERTEX
  8
CUT
 10
136.7461
 20
59.0834
 30
0.0
 70
0
  0
VERTEX
  8
CUT
 10
136.6295
 20
58.9113
 30
0.0
 70
0
  0
VERTEX
  8
CUT
 10
136.5157
 20
58.7336
 30
0.0
 70
0
  0
VERTEX
  8
CUT
 10
136.4047
 20
58.556
 30
0.0
 70
0
  0
VERTEX
  8
CUT
 10
136.2964
 20
58.3783
 30
0.0
 70
0
  0
VERTEX
  8
CUT
 10
136.1882
 20
58.1978
 30
0.0
 70
0
  0
VERTEX
  8
CUT
 10
136.0827
 20
58.0146
 30
0.0
 70
0
  0
VERTEX
  8
CUT
 10
136.0827
 20
79.4986
 30
0.0
 70
0
  0
VERTEX
  8
CUT
 10
136.3338
 20
82.0
 30
0.0
 70
0
  0
VERTEX
  8
CUT
 10
137.2376
 20
82.0
 30
0.0
 70
0
  0
VERTEX
  8
CUT
 10
136.9849
 20
79.4986
 30
0.0
 70
0
  0
SEQEND
  8
CUT
  0
POLYLINE
  8
CUT
 66
1
 10
0.0
 20
0.0
 30
0.0
 70
1
  0
VERTEX
  8
CUT
 10
133.9173
 20
58.0146
 30
0.0
 70
0
  0
VERTEX
  8
CUT
 10
133.8118
 20
58.1978
 30
0.0
 70
0
  0
VERTEX
  8
CUT
 10
133.7036
 20
58.3783
 30
0.0
 70
0
  0
VERTEX
  8
CUT
 10
133.5953
 20
58.556
 30
0.0
 70
0
  0
VERTEX
  8
CUT
 10
133.4843
 20
58.7336
 30
0.0
 70
0
  0
VERTEX
  8
CUT
 10
133.3705
 20
58.9113
 30
0.0
 70
0
  0
VERTEX
  8
CUT
 10
133.2539
 20
59.0834
 30
0.0
 70
0
  0
VERTEX
  8
CUT
 10
133.1345
 20
59.2583
 30
0.0
 70
0
  0
VERTEX
  8
CUT
 10
133.0151
 20
59.4304
 30
0.0
 70
0
  0
VERTEX
  8
CUT
 10
133.0151
 20
79.4986
 30
0.0
 70
0
  0
VERTEX
  8
CUT
 10
132.7624
 20
82.0
 30
0.0
 70
0
  0
VERTEX
  8
CUT
 10
133.6662
 20
82.0
 30
0.0
 70
0
  0
VERTEX
  8
CUT
 10
133.9173
 20
79.4986
 30
0.0
 70
0
  0
SEQEND
  8
CUT
  0
POLYLINE
  8
CUT
 66
1
 10
0.0
 20
0.0
 30
0.0
 70
1
  0
VERTEX
  8
CUT
 10
130.8498
 20
61.9122
 30
0.0
 70
0
  0
VERTEX
  8
CUT
 10
130.7387
 20
62.0122
 30
0.0
 70
0
  0
VERTEX
  8
CUT
 10
130.6277
 20
62.1149
 30
0.0
 70
0
  0
VERTEX
  8
CUT
 10
130.5167
 20
62.2148
 30
0.0
 70
0
  0
VERTEX
  8
CUT
 10
130.4056
 20
62.3147
 30
0.0
 70
0
  0
VERTEX
  8
CUT
 10
130.2918
 20
62.4147
 30
0.0
 70
0
  0
VERTEX
  8
CUT
 10
130.178
 20
62.5118
 30
0.0
 70
0
  0
VERTEX
  8
CUT
 10
130.0614
 20
62.609
 30
0.0
 70
0
  0
VERTEX
  8
CUT
 10
129.9448
 20
62.7034
 30
0.0
 70
0
  0
VERTEX
  8
CUT
 10
129.9448
 20
79.4986
 30
0.0
 70
0
  0
VERTEX
  8
CUT
 10
129.7394
 20
81.5751
 30
0.0
 70
0
  0
VERTEX
  8
CUT
 10
129.6085
 20
82.0
 30
0.0
 70
0
  0
VERTEX
  8
CUT
 10
130.5496
 20
82.0
 30
0.0
 70
0
  0
VERTEX
  8
CUT
 10
130.6249
 20
81.7555
 30
0.0
 70
0
  0
VERTEX
  8
CUT
 10
130.8498
 20
79.4986
 30
0.0
 70
0
  0
SEQEND
  8
CUT
  0
POLYLINE
  8
CUT
 66
1
 10
0.0
 20
0.0
 30
0.0
 70
1
  0
VERTEX
  8
CUT
 10
140.0552
 20
62.7034
 30
0.0
 70
0
  0
VERTEX
  8
CUT
 10
139.9386
 20
62.609
 30
0.0
 70
0
  0
VERTEX
  8
CUT
 10
139.822
 20
62.5118
 30
0.0
 70
0
  0
VERTEX
  8
CUT
 10
139.7082
 20
62.4147
 30
0.0
 70
0
  0
VERTEX
  8
CUT
 10
139.5944
 20
62.3147
 30
0.0
 70
0
  0
VERTEX
  8
CUT
 10
139.4833
 20
62.2148
 30
0.0
 70
0
  0
VERTEX
  8
CUT
 10
139.3723
 20
62.1149
 30
0.0
 70
0
  0
VERTEX
  8
CUT
 10
139.2613
 20
62.0122
 30
0.0
 70
0
  0
VERTEX
  8
CUT
 10
139.1502
 20
61.9122
 30
0.0
 70
0
  0
VERTEX
  8
CUT
 10
139.1502
 20
79.4986
 30
0.0
 70
0
  0
VERTEX
  8
CUT
 10
139.3751
 20
81.7555
 30
0.0
 70
0
  0
VERTEX
  8
CUT
 10
139.4504
 20
82.0
 30
0.0
 70
0
  0
VERTEX
  8
CUT
 10
140.3915
 20
82.0
 30
0.0
 70
0
  0
VERTEX
  8
CUT
 10
140.2606
 20
81.5751
 30
0.0
 70
0
  0
VERTEX
  8
CUT
 10
140.0552
 20
79.4986
 30
0.0
 70
0
  0
SEQEND
  8
CUT
  0
POLYLINE
  8
CUT
 66
1
 10
0.0
 20
0.0
 30
0.0
 70
1
  0
VERTEX
  8
CUT
 10
150.2822
 20
49.3647
 30
0.0
 70
0
  0
VERTEX
  8
CUT
 10
149.3911
 20
49.8449
 30
0.0
 70
0
  0
VERTEX
  8
CUT
 10
148.4695
 20
50.2697
 30
0.0
 70
0
  0
VERTEX
  8
CUT
 10
147.52
 20
50.6389
 30
0.0
 70
0
  0
VERTEX
  8
CUT
 10
146.5429
 20
50.9498
 30
0.0
 70
0
  0
VERTEX
  8
CUT
 10
145.5407
 20
51.2024
 30
0.0
 70
0
  0
VERTEX
  8
CUT
 10
144.5163
 20
51.394
 30
0.0
 70
0
  0
VERTEX
  8
CUT
 10
143.4698
 20
51.5189
 30
0.0
 70
0
  0
VERTEX
  8
CUT
 10
142.4038
 20
51.5772
 30
0.0
 70
0
  0
VERTEX
  8
CUT
 10
142.8091
 20
52.9069
 30
0.0
 70
0
  0
VERTEX
  8
CUT
 10
143.4226
 20
54.1312
 30
0.0
 70
0
  0
VERTEX
  8
CUT
 10
144.2221
 20
55.2277
 30
0.0
 70
0
  0
VERTEX
  8
CUT
 10
145.1854
 20
56.1799
 30
0.0
 70
0
  0
VERTEX
  8
CUT
 10
146.2958
 20
56.9655
 30
0.0
 70
0
  0
VERTEX
  8
CUT
 10
147.5284
 20
57.5624
 30
0.0
 70
0
  0
VERTEX
  8
CUT
 10
148.8637
 20
57.951
 30
0.0
 70
0
  0
VERTEX
  8
CUT
 10
150.2822
 20
58.1093
 30
0.0
 70
0
  0
SEQEND
  8
CUT
  0
POLYLINE
  8
CUT
 66
1
 10
0.0
 20
0.0
 30
0.0
 70
1
  0
VERTEX
  8
CUT
 10
172.0
 20
51.5446
 30
0.0
 70
0
  0
VERTEX
  8
CUT
 10
171.5302
 20
51.5189
 30
0.0
 70
0
  0
VERTEX
  8
CUT
 10
170.4837
 20
51.394
 30
0.0
 70
0
  0
VERTEX
  8
CUT
 10
169.4593
 20
51.2024
 30
0.0
 70
0
  0
VERTEX
  8
CUT
 10
168.4571
 20
50.9498
 30
0.0
 70
0
  0
VERTEX
  8
CUT
 10
167.48
 20
50.6389
 30
0.0
 70
0
  0
VERTEX
  8
CUT
 10
166.5305
 20
50.2697
 30
0.0
 70
0
  0
VERTEX
  8
CUT
 10
165.6089
 20
49.8449
 30
0.0
 70
0
  0
VERTEX
  8
CUT
 10
164.7178
 20
49.3647
 30
0.0
 70
0
  0
VERTEX
  8
CUT
 10
164.7178
 20
58.1093
 30
0.0
 70
0
  0
VERTEX
  8
CUT
 10
166.1363
 20
57.951
 30
0.0
 70
0
  0
VERTEX
  8
CUT
 10
167.4716
 20
57.5624
 30
0.0
 70
0
  0
VERTEX
  8
CUT
 10
168.7042
 20
56.9655
 30
0.0
 70
0
  0
VERTEX
  8
CUT
 10
169.8146
 20
56.1799
 30
0.0
 70
0
  0
VERTEX
  8
CUT
 10
170.7779
 20
55.2277
 30
0.0
 70
0
  0
VERTEX
  8
CUT
 10
171.5774
 20
54.1312
 30
0.0
 70
0
  0
VERTEX
  8
CUT
 10
172.0
 20
53.2879
 30
0.0
 70
0
  0
SEQEND
  8
CUT
  0
POLYLINE
  8
CUT
 66
1
 10
0.0
 20
0.0
 30
0.0
 70
1
  0
VERTEX
  8
CUT
 10
159.4849
 20
44.601
 30
0.0
 70
0
  0
VERTEX
  8
CUT
 10
159.3655
 20
44.4288
 30
0.0
 70
0
  0
VERTEX
  8
CUT
 10
159.2461
 20
44.2539
 30
0.0
 70
0
  0
VERTEX
  8
CUT
 10
159.1295
 20
44.0818
 30
0.0
 70
0
  0
VERTEX
  8
CUT
 10
159.0157
 20
43.9042
 30
0.0
 70
0
  0
VERTEX
  8
CUT
 10
158.9047
 20
43.7265
 30
0.0
 70
0
  0
VERTEX
  8
CUT
 10
158.7964
 20
43.5488
 30
0.0
 70
0
  0
VERTEX
  8
CUT
 10
158.6882
 20
43.3684
 30
0.0
 70
0
  0
VERTEX
  8
CUT
 10
158.5827
 20
43.1852
 30
0.0
 70
0
  0
VERTEX
  8
CUT
 10
158.5827
 20
64.6691
 30
0.0
 70
0
  0
VERTEX
  8
CUT
 10
158.8714
 20
67.5451
 30
0.0
 70
0
  0
VERTEX
  8
CUT
 10
159.6959
 20
70.2268
 30
0.0
 70
0
  0
VERTEX
  8
CUT
 10
161.0062
 20
72.6586
 30
0.0
 70
0
  0
VERTEX
  8
CUT
 10
162.7384
 20
74.7823
 30
0.0
 70
0
  0
VERTEX
  8
CUT
 10
164.8399
 20
76.5451
 30
0.0
 70
0
  0
VERTEX
  8
CUT
 10
167.2523
 20
77.8832
 30
0.0
 70
0
  0
VERTEX
  8
CUT
 10
169.4159
 20
78.5841
 30
0.0
 70
0
  0
VERTEX
  8
CUT
 10
170.135
 20
77.865
 30
0.0
 70
0
  0
VERTEX
  8
CUT
 10
170.1006
 20
77.861
 30
0.0
 70
0
  0
VERTEX
  8
CUT
 10
167.6021
 20
77.0531
 30
0.0
 70
0
  0
VERTEX
  8
CUT
 10
165.3452
 20
75.7956
 30
0.0
 70
0
  0
VERTEX
  8
CUT
 10
163.3769
 20
74.1438
 30
0.0
 70
0
  0
VERTEX
  8
CUT
 10
161.7557
 20
72.1534
 30
0.0
 70
0
  0
VERTEX
  8
CUT
 10
160.5287
 20
69.8742
 30
0.0
 70
0
  0
VERTEX
  8
CUT
 10
159.7569
 20
67.3619
 30
0.0
 70
0
  0
VERTEX
  8
CUT
 10
159.4849
 20
64.6691
 30
0.0
 70
0
  0
SEQEND
  8
CUT
  0
POLYLINE
  8
CUT
 66
1
 10
0.0
 20
0.0
 30
0.0
 70
1
  0
VERTEX
  8
CUT
 10
156.4173
 20
43.1852
 30
0.0
 70
0
  0
VERTEX
  8
CUT
 10
156.3118
 20
43.3684
 30
0.0
 70
0
  0
VERTEX
  8
CUT
 10
156.2036
 20
43.5488
 30
0.0
 70
0
  0
VERTEX
  8
CUT
 10
156.0953
 20
43.7265
 30
0.0
 70
0
  0
VERTEX
  8
CUT
 10
155.9843
 20
43.9042
 30
0.0
 70
0
  0
VERTEX
  8
CUT
 10
155.8705
 20
44.0818
 30
0.0
 70
0
  0
VERTEX
  8
CUT
 10
155.7539
 20
44.2539
 30
0.0
 70
0
  0
VERTEX
  8
CUT
 10
155.6345
 20
44.4288
 30
0.0
 70
0
  0
VERTEX
  8
CUT
 10
155.5151
 20
44.601
 30
0.0
 70
0
  0
VERTEX
  8
CUT
 10
155.5151
 20
64.6691
 30
0.0
 70
0
  0
VERTEX
  8
CUT
 10
155.2431
 20
67.3619
 30
0.0
 70
0
  0
VERTEX
  8
CUT
 10
154.4713
 20
69.8742
 30
0.0
 70
0
  0
VERTEX
  8
CUT
 10
153.2443
 20
72.1534
 30
0.0
 70
0
  0
VERTEX
  8
CUT
 10
151.6231
 20
74.1438
 30
0.0
 70
0
  0
VERTEX
  8
CUT
 10
149.6548
 20
75.7956
 30
0.0
 70
0
  0
VERTEX
  8
CUT
 10
147.3979
 20
77.0531
 30
0.0
 70
0
  0
VERTEX
  8
CUT
 10
144.8994
 20
77.861
 30
0.0
 70
0
  0
VERTEX
  8
CUT
 10
142.2178
 20
78.1719
 30
0.0
 70
0
  0
VERTEX
  8
CUT
 10
142.2178
 20
79.0769
 30
0.0
 70
0
  0
VERTEX
  8
CUT
 10
145.0827
 20
78.7465
 30
0.0
 70
0
  0
VERTEX
  8
CUT
 10
147.7477
 20
77.8832
 30
0.0
 70
0
  0
VERTEX
  8
CUT
 10
150.1601
 20
76.5451
 30
0.0
 70
0
  0
VERTEX
  8
CUT
 10
152.2616
 20
74.7823
 30
0.0
 70
0
  0
VERTEX
  8
CUT
 10
153.9938
 20
72.6586
 30
0.0
 70
0
  0
VERTEX
  8
CUT
 10
155.3041
 20
70.2268
 30
0.0
 70
0
  0
VERTEX
  8
CUT
 10
156.1286
 20
67.5451
 30
0.0
 70
0
  0
VERTEX
  8
CUT
 10
156.4173
 20
64.6691
 30
0.0
 70
0
  0
SEQEND
  8
CUT
  0
POLYLINE
  8
CUT
 66
1
 10
0.0
 20
0.0
 30
0.0
 70
1
  0
VERTEX
  8
CUT
 10
153.3498
 20
47.0828
 30
0.0
 70
0
  0
VERTEX
  8
CUT
 10
153.2387
 20
47.1827
 30
0.0
 70
0
  0
VERTEX
  8
CUT
 10
153.1277
 20
47.2854
 30
0.0
 70
0
  0
VERTEX
  8
CUT
 10
153.0167
 20
47.3853
 30
0.0
 70
0
  0
VERTEX
  8
CUT
 10
152.9056
 20
47.4853
 30
0.0
 70
0
  0
VERTEX
  8
CUT
 10
152.7918
 20
47.5852
 30
0.0
 70
0
  0
VERTEX
  8
CUT
 10
152.678
 20
47.6824
 30
0.0
 70
0
  0
VERTEX
  8
CUT
 10
152.5614
 20
47.7795
 30
0.0
 70
0
  0
VERTEX
  8
CUT
 10
152.4448
 20
47.8739
 30
0.0
 70
0
  0
VERTEX
  8
CUT
 10
152.4448
 20
64.6691
 30
0.0
 70
0
  0
VERTEX
  8
CUT
 10
152.2394
 20
66.7456
 30
0.0
 70
0
  0
VERTEX
  8
CUT
 10
151.6425
 20
68.6833
 30
0.0
 70
0
  0
VERTEX
  8
CUT
 10
150.7014
 20
70.4406
 30
0.0
 70
0
  0
VERTEX
  8
CUT
 10
149.455
 20
71.9757
 30
0.0
 70
0
  0
VERTEX
  8
CUT
 10
147.942
 20
73.2527
 30
0.0
 70
0
  0
VERTEX
  8
CUT
 10
146.2042
 20
74.2243
 30
0.0
 70
0
  0
VERTEX
  8
CUT
 10
144.2832
 20
74.8573
 30
0.0
 70
0
  0
VERTEX
  8
CUT
 10
142.2178
 20
75.1043
 30
0.0
 70
0
  0
VERTEX
  8
CUT
 10
142.2178
 20
76.0093
 30
0.0
 70
0
  0
VERTEX
  8
CUT
 10
144.4636
 20
75.7428
 30
0.0
 70
0
  0
VERTEX
  8
CUT
 10
146.554
 20
75.0572
 30
0.0
 70
0
  0
VERTEX
  8
CUT
 10
148.4473
 20
73.9995
 30
0.0
 70
0
  0
VERTEX
  8
CUT
 10
150.0935
 20
72.6142
 30
0.0
 70
0
  0
VERTEX
  8
CUT
 10
151.451
 20
70.943
 30
0.0
 70
0
  0
VERTEX
  8
CUT
 10
152.4753
 20
69.0331
 30
0.0
 70
0
  0
VERTEX
  8
CUT
 10
153.1249
 20
66.9261
 30
0.0
 70
0
  0
VERTEX
  8
CUT
 10
153.3498
 20
64.6691
 30
0.0
 70
0
  0
SEQEND
  8
CUT
  0
POLYLINE
  8
CUT
 66
1
 10
0.0
 20
0.0
 30
0.0
 70
1
  0
VERTEX
  8
CUT
 10
162.5552
 20
47.8739
 30
0.0
 70
0
  0
VERTEX
  8
CUT
 10
162.4386
 20
47.7795
 30
0.0
 70
0
  0
VERTEX
  8
CUT
 10
162.322
 20
47.6824
 30
0.0
 70
0
  0
VERTEX
  8
CUT
 10
162.2082
 20
47.5852
 30
0.0
 70
0
  0
VERTEX
  8
CUT
 10
162.0944
 20
47.4853
 30
0.0
 70
0
  0
VERTEX
  8
CUT
 10
161.9833
 20
47.3853
 30
0.0
 70
0
  0
VERTEX
  8
CUT
 10
161.8723
 20
47.2854
 30
0.0
 70
0
  0
VERTEX
  8
CUT
 10
161.7613
 20
47.1827
 30
0.0
 70
0
  0
VERTEX
  8
CUT
 10
161.6502
 20
47.0828
 30
0.0
 70
0
  0
VERTEX
  8
CUT
 10
161.6502
 20
64.6691
 30
0.0
 70
0
  0
VERTEX
  8
CUT
 10
161.8751
 20
66.9261
 30
0.0
 70
0
  0
VERTEX
  8
CUT
 10
162.5247
 20
69.0331
 30
0.0
 70
0
  0
VERTEX
  8
CUT
 10
163.549
 20
70.943
 30
0.0
 70
0
  0
VERTEX
  8
CUT
 10
164.9065
 20
72.6142
 30
0.0
 70
0
  0
VERTEX
  8
CUT
 10
166.5527
 20
73.9995
 30
0.0
 70
0
  0
VERTEX
  8
CUT
 10
168.446
 20
75.0572
 30
0.0
 70
0
  0
VERTEX
  8
CUT
 10
170.5364
 20
75.7428
 30
0.0
 70
0
  0
VERTEX
  8
CUT
 10
172.0
 20
75.9165
 30
0.0
 70
0
  0
VERTEX
  8
CUT
 10
172.0
 20
75.0108
 30
0.0
 70
0
  0
VERTEX
  8
CUT
 10
170.7168
 20
74.8573
 30
0.0
 70
0
  0
VERTEX
  8
CUT
 10
168.7958
 20
74.2243
 30
0.0
 70
0
  0
VERTEX
  8
CUT
 10
167.058
 20
73.2527
 30
0.0
 70
0
  0
VERTEX
  8
CUT
 10
165.545
 20
71.9757
 30
0.0
 70
0
  0
VERTEX
  8
CUT
 10
164.2986
 20
70.4406
 30
0.0
 70
0
  0
VERTEX
  8
CUT
 10
163.3575
 20
68.6833
 30
0.0
 70
0
  0
VERTEX
  8
CUT
 10
162.7606
 20
66.7456
 30
0.0
 70
0
  0
VERTEX
  8
CUT
 10
162.5552
 20
64.6691
 30
0.0
 70
0
  0
SEQEND
  8
CUT
  0
POLYLINE
  8
CUT
 66
1
 10
0.0
 20
0.0
 30
0.0
 70
1
  0
VERTEX
  8
CUT
 10
172.0
 20
34.9568
 30
0.0
 70
0
  0
VERTEX
  8
CUT
 10
171.8911
 20
35.0155
 30
0.0
 70
0
  0
VERTEX
  8
CUT
 10
170.9695
 20
35.4402
 30
0.0
 70
0
  0
VERTEX
  8
CUT
 10
170.02
 20
35.8094
 30
0.0
 70
0
  0
VERTEX
  8
CUT
 10
169.0429
 20
36.1204
 30
0.0
 70
0
  0
VERTEX
  8
CUT
 10
168.0407
 20
36.373
 30
0.0
 70
0
  0
VERTEX
  8
CUT
 10
167.0163
 20
36.5645
 30
0.0
 70
0
  0
VERTEX
  8
CUT
 10
165.9698
 20
36.6895
 30
0.0
 70
0
  0
VERTEX
  8
CUT
 10
164.9038
 20
36.7477
 30
0.0
 70
0
  0
VERTEX
  8
CUT
 10
165.3091
 20
38.0775
 30
0.0
 70
0
  0
VERTEX
  8
CUT
 10
165.9226
 20
39.3017
 30
0.0
 70
0
  0
VERTEX
  8
CUT
 10
166.7221
 20
40.3983
 30
0.0
 70
0
  0
VERTEX
  8
CUT
 10
167.6854
 20
41.3505
 30
0.0
 70
0
  0
VERTEX
  8
CUT
 10
168.7958
 20
42.1361
 30
0.0
 70
0
  0
VERTEX
  8
CUT
 10
170.0284
 20
42.7329
 30
0.0
 70
0
  0
VERTEX
  8
CUT
 10
171.3637
 20
43.1216
 30
0.0
 70
0
  0
VERTEX
  8
CUT
 10
172.0
 20
43.1926
 30
0.0
 70
0
  0
SEQEND
  8
CUT
  0
POLYLINE
  8
CUT
 66
1
 10
0.0
 20
0.0
 30
0.0
 70
1
  0
VERTEX
  8
CUT
 10
172.0
 20
61.0524
 30
0.0
 70
0
  0
VERTEX
  8
CUT
 10
169.8979
 20
62.2237
 30
0.0
 70
0
  0
VERTEX
  8
CUT
 10
167.3994
 20
63.0315
 30
0.0
 70
0
  0
VERTEX
  8
CUT
 10
164.7178
 20
63.3424
 30
0.0
 70
0
  0
VERTEX
  8
CUT
 10
164.7178
 20
64.2474
 30
0.0
 70
0
  0
VERTEX
  8
CUT
 10
167.5827
 20
63.9171
 30
0.0
 70
0
  0
VERTEX
  8
CUT
 10
170.2477
 20
63.0537
 30
0.0
 70
0
  0
VERTEX
  8
CUT
 10
172.0
 20
62.0818
 30
0.0
 70
0
  0
SEQEND
  8
CUT
  0
POLYLINE
  8
CUT
 66
1
 10
0.0
 20
0.0
 30
0.0
 70
1
  0
VERTEX
  8
CUT
 10
172.0
 20
57.0908
 30
0.0
 70
0
  0
VERTEX
  8
CUT
 10
171.955
 20
57.1463
 30
0.0
 70
0
  0
VERTEX
  8
CUT
 10
170.442
 20
58.4233
 30
0.0
 70
0
  0
VERTEX
  8
CUT
 10
168.7042
 20
59.3949
 30
0.0
 70
0
  0
VERTEX
  8
CUT
 10
166.7832
 20
60.0278
 30
0.0
 70
0
  0
VERTEX
  8
CUT
 10
164.7178
 20
60.2749
 30
0.0
 70
0
  0
VERTEX
  8
CUT
 10
164.7178
 20
61.1799
 30
0.0
 70
0
  0
VERTEX
  8
CUT
 10
166.9636
 20
60.9134
 30
0.0
 70
0
  0
VERTEX
  8
CUT
 10
169.054
 20
60.2277
 30
0.0
 70
0
  0
VERTEX
  8
CUT
 10
170.9473
 20
59.17
 30
0.0
 70
0
  0
VERTEX
  8
CUT
 10
172.0
 20
58.2842
 30
0.0
 70
0
  0
SEQEND
  8
CUT
  0
POLYLINE
  8
CUT
 66
1
 10
0.0
 20
0.0
 30
0.0
 70
1
  0
VERTEX
  8
CUT
 10
60.2822
 20
82.0
 30
0.0
 70
0
  0
VERTEX
  8
CUT
 10
60.2822
 20
79.0236
 30
0.0
 70
0
  0
VERTEX
  8
CUT
 10
59.3911
 20
79.5039
 30
0.0
 70
0
  0
VERTEX
  8
CUT
 10
58.4695
 20
79.9286
 30
0.0
 70
0
  0
VERTEX
  8
CUT
 10
57.52
 20
80.2978
 30
0.0
 70
0
  0
VERTEX
  8
CUT
 10
56.5429
 20
80.6087
 30
0.0
 70
0
  0
VERTEX
  8
CUT
 10
55.5407
 20
80.8614
 30
0.0
 70
0
  0
VERTEX
  8
CUT
 10
54.5163
 20
81.0529
 30
0.0
 70
0
  0
VERTEX
  8
CUT
 10
53.4698
 20
81.1778
 30
0.0
 70
0
  0
VERTEX
  8
CUT
 10
52.4038
 20
81.2361
 30
0.0
 70
0
  0
VERTEX
  8
CUT
 10
52.6366
 20
82.0
 30
0.0
 70
0
  0
SEQEND
  8
CUT
  0
POLYLINE
  8
CUT
 66
1
 10
0.0
 20
0.0
 30
0.0
 70
1
  0
VERTEX
  8
CUT
 10
82.3634
 20
82.0
 30
0.0
 70
0
  0
VERTEX
  8
CUT
 10
82.5962
 20
81.2361
 30
0.0
 70
0
  0
VERTEX
  8
CUT
 10
81.5302
 20
81.1778
 30
0.0
 70
0
  0
VERTEX
  8
CUT
 10
80.4837
 20
81.0529
 30
0.0
 70
0
  0
VERTEX
  8
CUT
 10
79.4593
 20
80.8614
 30
0.0
 70
0
  0
VERTEX
  8
CUT
 10
78.4571
 20
80.6087
 30
0.0
 70
0
  0
VERTEX
  8
CUT
 10
77.48
 20
80.2978
 30
0.0
 70
0
  0
VERTEX
  8
CUT
 10
76.5305
 20
79.9286
 30
0.0
 70
0
  0
VERTEX
  8
CUT
 10
75.6089
 20
79.5039
 30
0.0
 70
0
  0
VERTEX
  8
CUT
 10
74.7178
 20
79.0236
 30
0.0
 70
0
  0
VERTEX
  8
CUT
 10
74.7178
 20
82.0
 30
0.0
 70
0
  0
SEQEND
  8
CUT
  0
POLYLINE
  8
CUT
 66
1
 10
0.0
 20
0.0
 30
0.0
 70
1
  0
VERTEX
  8
CUT
 10
69.4849
 20
82.0
 30
0.0
 70
0
  0
VERTEX
  8
CUT
 10
69.4849
 20
74.2599
 30
0.0
 70
0
  0
VERTEX
  8
CUT
 10
69.3655
 20
74.0878
 30
0.0
 70
0
  0
VERTEX
  8
CUT
 10
69.2461
 20
73.9129
 30
0.0
 70
0
  0
VERTEX
  8
CUT
 10
69.1295
 20
73.7407
 30
0.0
 70
0
  0
VERTEX
  8
CUT
 10
69.0157
 20
73.5631
 30
0.0
 70
0
  0
VERTEX
  8
CUT
 10
68.9047
 20
73.3854
 30
0.0
 70
0
  0
VERTEX
  8
CUT
 10
68.7964
 20
73.2077
 30
0.0
 70
0
  0
VERTEX
  8
CUT
 10
68.6882
 20
73.0273
 30
0.0
 70
0
  0
VERTEX
  8
CUT
 10
68.5827
 20
72.8441
 30
0.0
 70
0
  0
VERTEX
  8
CUT
 10
68.5827
 20
82.0
 30
0.0
 70
0
  0
SEQEND
  8
CUT
  0
POLYLINE
  8
CUT
 66
1
 10
0.0
 20
0.0
 30
0.0
 70
1
  0
VERTEX
  8
CUT
 10
66.4173
 20
82.0
 30
0.0
 70
0
  0
VERTEX
  8
CUT
 10
66.4173
 20
72.8441
 30
0.0
 70
0
  0
VERTEX
  8
CUT
 10
66.3118
 20
73.0273
 30
0.0
 70
0
  0
VERTEX
  8
CUT
 10
66.2036
 20
73.2077
 30
0.0
 70
0
  0
VERTEX
  8
CUT
 10
66.0953
 20
73.3854
 30
0.0
 70
0
  0
VERTEX
  8
CUT
 10
65.9843
 20
73.5631
 30
0.0
 70
0
  0
VERTEX
  8
CUT
 10
65.8705
 20
73.7407
 30
0.0
 70
0
  0
VERTEX
  8
CUT
 10
65.7539
 20
73.9129
 30
0.0
 70
0
  0
VERTEX
  8
CUT
 10
65.6345
 20
74.0878
 30
0.0
 70
0
  0
VERTEX
  8
CUT
 10
65.5151
 20
74.2599
 30
0.0
 70
0
  0
VERTEX
  8
CUT
 10
65.5151
 20
82.0
 30
0.0
 70
0
  0
SEQEND
  8
CUT
  0
POLYLINE
  8
CUT
 66
1
 10
0.0
 20
0.0
 30
0.0
 70
1
  0
VERTEX
  8
CUT
 10
63.3498
 20
82.0
 30
0.0
 70
0
  0
VERTEX
  8
CUT
 10
63.3498
 20
76.7417
 30
0.0
 70
0
  0
VERTEX
  8
CUT
 10
63.2387
 20
76.8416
 30
0.0
 70
0
  0
VERTEX
  8
CUT
 10
63.1277
 20
76.9443
 30
0.0
 70
0
  0
VERTEX
  8
CUT
 10
63.0167
 20
77.0443
 30
0.0
 70
0
  0
VERTEX
  8
CUT
 10
62.9056
 20
77.1442
 30
0.0
 70
0
  0
VERTEX
  8
CUT
 10
62.7918
 20
77.2441
 30
0.0
 70
0
  0
VERTEX
  8
CUT
 10
62.678
 20
77.3413
 30
0.0
 70
0
  0
VERTEX
  8
CUT
 10
62.5614
 20
77.4385
 30
0.0
 70
0
  0
VERTEX
  8
CUT
 10
62.4448
 20
77.5329
 30
0.0
 70
0
  0
VERTEX
  8
CUT
 10
62.4448
 20
82.0
 30
0.0
 70
0
  0
SEQEND
  8
CUT
  0
POLYLINE
  8
CUT
 66
1
 10
0.0
 20
0.0
 30
0.0
 70
1
  0
VERTEX
  8
CUT
 10
72.5552
 20
82.0
 30
0.0
 70
0
  0
VERTEX
  8
CUT
 10
72.5552
 20
77.5329
 30
0.0
 70
0
  0
VERTEX
  8
CUT
 10
72.4386
 20
77.4385
 30
0.0
 70
0
  0
VERTEX
  8
CUT
 10
72.322
 20
77.3413
 30
0.0
 70
0
  0
VERTEX
  8
CUT
 10
72.2082
 20
77.2441
 30
0.0
 70
0
  0
VERTEX
  8
CUT
 10
72.0944
 20
77.1442
 30
0.0
 70
0
  0
VERTEX
  8
CUT
 10
71.9833
 20
77.0443
 30
0.0
 70
0
  0
VERTEX
  8
CUT
 10
71.8723
 20
76.9443
 30
0.0
 70
0
  0
VERTEX
  8
CUT
 10
71.7613
 20
76.8416
 30
0.0
 70
0
  0
VERTEX
  8
CUT
 10
71.6502
 20
76.7417
 30
0.0
 70
0
  0
VERTEX
  8
CUT
 10
71.6502
 20
82.0
 30
0.0
 70
0
  0
SEQEND
  8
CUT
  0
POLYLINE
  8
CUT
 66
1
 10
0.0
 20
0.0
 30
0.0
 70
1
  0
VERTEX
  8
CUT
 10
82.7822
 20
64.1941
 30
0.0
 70
0
  0
VERTEX
  8
CUT
 10
81.8911
 20
64.6744
 30
0.0
 70
0
  0
VERTEX
  8
CUT
 10
80.9695
 20
65.0991
 30
0.0
 70
0
  0
VERTEX
  8
CUT
 10
80.02
 20
65.4684
 30
0.0
 70
0
  0
VERTEX
  8
CUT
 10
79.0429
 20
65.7793
 30
0.0
 70
0
  0
VERTEX
  8
CUT
 10
78.0407
 20
66.0319
 30
0.0
 70
0
  0
VERTEX
  8
CUT
 10
77.0163
 20
66.2234
 30
0.0
 70
0
  0
VERTEX
  8
CUT
 10
75.9698
 20
66.3484
 30
0.0
 70
0
  0
VERTEX
  8
CUT
 10
74.9038
 20
66.4067
 30
0.0
 70
0
  0
VERTEX
  8
CUT
 10
75.3091
 20
67.7364
 30
0.0
 70
0
  0
VERTEX
  8
CUT
 10
75.9226
 20
68.9606
 30
0.0
 70
0
  0
VERTEX
  8
CUT
 10
76.7221
 20
70.0572
 30
0.0
 70
0
  0
VERTEX
  8
CUT
 10
77.6854
 20
71.0094
 30
0.0
 70
0
  0
VERTEX
  8
CUT
 10
78.7958
 20
71.795
 30
0.0
 70
0
  0
VERTEX
  8
CUT
 10
80.0284
 20
72.3919
 30
0.0
 70
0
  0
VERTEX
  8
CUT
 10
81.3637
 20
72.7805
 30
0.0
 70
0
  0
VERTEX
  8
CUT
 10
82.7822
 20
72.9387
 30
0.0
 70
0
  0
SEQEND
  8
CUT
  0
POLYLINE
  8
CUT
 66
1
 10
0.0
 20
0.0
 30
0.0
 70
1
  0
VERTEX
  8
CUT
 10
105.0962
 20
66.4067
 30
0.0
 70
0
  0
VERTEX
  8
CUT
 10
104.0302
 20
66.3484
 30
0.0
 70
0
  0
VERTEX
  8
CUT
 10
102.9837
 20
66.2234
 30
0.0
 70
0
  0
VERTEX
  8
CUT
 10
101.9593
 20
66.0319
 30
0.0
 70
0
  0
VERTEX
  8
CUT
 10
100.9571
 20
65.7793
 30
0.0
 70
0
  0
VERTEX
  8
CUT
 10
99.98
 20
65.4684
 30
0.0
 70
0
  0
VERTEX
  8
CUT
 10
99.0305
 20
65.0991
 30
0.0
 70
0
  0
VERTEX
  8
CUT
 10
98.1089
 20
64.6744
 30
0.0
 70
0
  0
VERTEX
  8
CUT
 10
97.2178
 20
64.1941
 30
0.0
 70
0
  0
VERTEX
  8
CUT
 10
97.2178
 20
72.9387
 30
0.0
 70
0
  0
VERTEX
  8
CUT
 10
98.6363
 20
72.7805
 30
0.0
 70
0
  0
VERTEX
  8
CUT
 10
99.9716
 20
72.3919
 30
0.0
 70
0
  0
VERTEX
  8
CUT
 10
101.2042
 20
71.795
 30
0.0
 70
0
  0
VERTEX
  8
CUT
 10
102.3146
 20
71.0094
 30
0.0
 70
0
  0
VERTEX
  8
CUT
 10
103.2779
 20
70.0572
 30
0.0
 70
0
  0
VERTEX
  8
CUT
 10
104.0774
 20
68.9606
 30
0.0
 70
0
  0
VERTEX
  8
CUT
 10
104.6909
 20
67.7364
 30
0.0
 70
0
  0
SEQEND
  8
CUT
  0
POLYLINE
  8
CUT
 66
1
 10
0.0
 20
0.0
 30
0.0
 70
1
  0
VERTEX
  8
CUT
 10
91.9849
 20
59.4304
 30
0.0
 70
0
  0
VERTEX
  8
CUT
 10
91.8655
 20
59.2583
 30
0.0
 70
0
  0
VERTEX
  8
CUT
 10
91.7461
 20
59.0834
 30
0.0
 70
0
  0
VERTEX
  8
CUT
 10
91.6295
 20
58.9113
 30
0.0
 70
0
  0
VERTEX
  8
CUT
 10
91.5157
 20
58.7336
 30
0.0
 70
0
  0
VERTEX
  8
CUT
 10
91.4047
 20
58.556
 30
0.0
 70
0
  0
VERTEX
  8
CUT
 10
91.2964
 20
58.3783
 30
0.0
 70
0
  0
VERTEX
  8
CUT
 10
91.1882
 20
58.1978
 30
0.0
 70
0
  0
VERTEX
  8
CUT
 10
91.0827
 20
58.0146
 30
0.0
 70
0
  0
VERTEX
  8
CUT
 10
91.0827
 20
79.4986
 30
0.0
 70
0
  0
VERTEX
  8
CUT
 10
91.3338
 20
82.0
 30
0.0
 70
0
  0
VERTEX
  8
CUT
 10
92.2376
 20
82.0
 30
0.0
 70
0
  0
VERTEX
  8
CUT
 10
91.9849
 20
79.4986
 30
0.0
 70
0
  0
SEQEND
  8
CUT
  0
POLYLINE
  8
CUT
 66
1
 10
0.0
 20
0.0
 30
0.0
 70
1
  0
VERTEX
  8
CUT
 10
88.9173
 20
58.0146
 30
0.0
 70
0
  0
VERTEX
  8
CUT
 10
88.8118
 20
58.1978
 30
0.0
 70
0
  0
VERTEX
  8
CUT
 10
88.7036
 20
58.3783
 30
0.0
 70
0
  0
VERTEX
  8
CUT
 10
88.5953
 20
58.556
 30
0.0
 70
0
  0
VERTEX
  8
CUT
 10
88.4843
 20
58.7336
 30
0.0
 70
0
  0
VERTEX
  8
CUT
 10
88.3705
 20
58.9113
 30
0.0
 70
0
  0
VERTEX
  8
CUT
 10
88.2539
 20
59.0834
 30
0.0
 70
0
  0
VERTEX
  8
CUT
 10
88.1345
 20
59.2583
 30
0.0
 70
0
  0
VERTEX
  8
CUT
 10
88.0151
 20
59.4304
 30
0.0
 70
0
  0
VERTEX
  8
CUT
 10
88.0151
 20
79.4986
 30
0.0
 70
0
  0
VERTEX
  8
CUT
 10
87.7624
 20
82.0
 30
0.0
 70
0
  0
VERTEX
  8
CUT
 10
88.6662
 20
82.0
 30
0.0
 70
0
  0
VERTEX
  8
CUT
 10
88.9173
 20
79.4986
 30
0.0
 70
0
  0
SEQEND
  8
CUT
  0
POLYLINE
  8
CUT
 66
1
 10
0.0
 20
0.0
 30
0.0
 70
1
  0
VERTEX
  8
CUT
 10
85.8498
 20
61.9122
 30
0.0
 70
0
  0
VERTEX
  8
CUT
 10
85.7387
 20
62.0122
 30
0.0
 70
0
  0
VERTEX
  8
CUT
 10
85.6277
 20
62.1149
 30
0.0
 70
0
  0
VERTEX
  8
CUT
 10
85.5167
 20
62.2148
 30
0.0
 70
0
  0
VERTEX
  8
CUT
 10
85.4056
 20
62.3147
 30
0.0
 70
0
  0
VERTEX
  8
CUT
 10
85.2918
 20
62.4147
 30
0.0
 70
0
  0
VERTEX
  8
CUT
 10
85.178
 20
62.5118
 30
0.0
 70
0
  0
VERTEX
  8
CUT
 10
85.0614
 20
62.609
 30
0.0
 70
0
  0
VERTEX
  8
CUT
 10
84.9448
 20
62.7034
 30
0.0
 70
0
  0
VERTEX
  8
CUT
 10
84.9448
 20
79.4986
 30
0.0
 70
0
  0
VERTEX
  8
CUT
 10
84.7394
 20
81.5751
 30
0.0
 70
0
  0
VERTEX
  8
CUT
 10
84.6085
 20
82.0
 30
0.0
 70
0
  0
VERTEX
  8
CUT
 10
85.5496
 20
82.0
 30
0.0
 70
0
  0
VERTEX
  8
CUT
 10
85.6249
 20
81.7555
 30
0.0
 70
0
  0
VERTEX
  8
CUT
 10
85.8498
 20
79.4986
 30
0.0
 70
0
  0
SEQEND
  8
CUT
  0
POLYLINE
  8
CUT
 66
1
 10
0.0
 20
0.0
 30
0.0
 70
1
  0
VERTEX
  8
CUT
 10
95.0552
 20
62.7034
 30
0.0
 70
0
  0
VERTEX
  8
CUT
 10
94.9386
 20
62.609
 30
0.0
 70
0
  0
VERTEX
  8
CUT
 10
94.822
 20
62.5118
 30
0.0
 70
0
  0
VERTEX
  8
CUT
 10
94.7082
 20
62.4147
 30
0.0
 70
0
  0
VERTEX
  8
CUT
 10
94.5944
 20
62.3147
 30
0.0
 70
0
  0
VERTEX
  8
CUT
 10
94.4833
 20
62.2148
 30
0.0
 70
0
  0
VERTEX
  8
CUT
 10
94.3723
 20
62.1149
 30
0.0
 70
0
  0
VERTEX
  8
CUT
 10
94.2613
 20
62.0122
 30
0.0
 70
0
  0
VERTEX
  8
CUT
 10
94.1502
 20
61.9122
 30
0.0
 70
0
  0
VERTEX
  8
CUT
 10
94.1502
 20
79.4986
 30
0.0
 70
0
  0
VERTEX
  8
CUT
 10
94.3751
 20
81.7555
 30
0.0
 70
0
  0
VERTEX
  8
CUT
 10
94.4504
 20
82.0
 30
0.0
 70
0
  0
VERTEX
  8
CUT
 10
95.3915
 20
82.0
 30
0.0
 70
0
  0
VERTEX
  8
CUT
 10
95.2606
 20
81.5751
 30
0.0
 70
0
  0
VERTEX
  8
CUT
 10
95.0552
 20
79.4986
 30
0.0
 70
0
  0
SEQEND
  8
CUT
  0
POLYLINE
  8
CUT
 66
1
 10
0.0
 20
0.0
 30
0.0
 70
1
  0
VERTEX
  8
CUT
 10
105.2822
 20
49.3647
 30
0.0
 70
0
  0
VERTEX
  8
CUT
 10
104.3911
 20
49.8449
 30
0.0
 70
0
  0
VERTEX
  8
CUT
 10
103.4695
 20
50.2697
 30
0.0
 70
0
  0
VERTEX
  8
CUT
 10
102.52
 20
50.6389
 30
0.0
 70
0
  0
VERTEX
  8
CUT
 10
101.5429
 20
50.9498
 30
0.0
 70
0
  0
VERTEX
  8
CUT
 10
100.5407
 20
51.2024
 30
0.0
 70
0
  0
VERTEX
  8
CUT
 10
99.5163
 20
51.394
 30
0.0
 70
0
  0
VERTEX
  8
CUT
 10
98.4698
 20
51.5189
 30
0.0
 70
0
  0
VERTEX
  8
CUT
 10
97.4038
 20
51.5772
 30
0.0
 70
0
  0
VERTEX
  8
CUT
 10
97.8091
 20
52.9069
 30
0.0
 70
0
  0
VERTEX
  8
CUT
 10
98.4226
 20
54.1312
 30
0.0
 70
0
  0
VERTEX
  8
CUT
 10
99.2221
 20
55.2277
 30
0.0
 70
0
  0
VERTEX
  8
CUT
 10
100.1854
 20
56.1799
 30
0.0
 70
0
  0
VERTEX
  8
CUT
 10
101.2958
 20
56.9655
 30
0.0
 70
0
  0
VERTEX
  8
CUT
 10
102.5284
 20
57.5624
 30
0.0
 70
0
  0
VERTEX
  8
CUT
 10
103.8637
 20
57.951
 30
0.0
 70
0
  0
VERTEX
  8
CUT
 10
105.2822
 20
58.1093
 30
0.0
 70
0
  0
SEQEND
  8
CUT
  0
POLYLINE
  8
CUT
 66
1
 10
0.0
 20
0.0
 30
0.0
 70
1
  0
VERTEX
  8
CUT
 10
127.5962
 20
51.5772
 30
0.0
 70
0
  0
VERTEX
  8
CUT
 10
126.5302
 20
51.5189
 30
0.0
 70
0
  0
VERTEX
  8
CUT
 10
125.4837
 20
51.394
 30
0.0
 70
0
  0
VERTEX
  8
CUT
 10
124.4593
 20
51.2024
 30
0.0
 70
0
  0
VERTEX
  8
CUT
 10
123.4571
 20
50.9498
 30
0.0
 70
0
  0
VERTEX
  8
CUT
 10
122.48
 20
50.6389
 30
0.0
 70
0
  0
VERTEX
  8
CUT
 10
121.5305
 20
50.2697
 30
0.0
 70
0
  0
VERTEX
  8
CUT
 10
120.6089
 20
49.8449
 30
0.0
 70
0
  0
VERTEX
  8
CUT
 10
119.7178
 20
49.3647
 30
0.0
 70
0
  0
VERTEX
  8
CUT
 10
119.7178
 20
58.1093
 30
0.0
 70
0
  0
VERTEX
  8
CUT
 10
121.1363
 20
57.951
 30
0.0
 70
0
  0
VERTEX
  8
CUT
 10
122.4716
 20
57.5624
 30
0.0
 70
0
  0
VERTEX
  8
CUT
 10
123.7042
 20
56.9655
 30
0.0
 70
0
  0
VERTEX
  8
CUT
 10
124.8146
 20
56.1799
 30
0.0
 70
0
  0
VERTEX
  8
CUT
 10
125.7779
 20
55.2277
 30
0.0
 70
0
  0
VERTEX
  8
CUT
 10
126.5774
 20
54.1312
 30
0.0
 70
0
  0
VERTEX
  8
CUT
 10
127.1909
 20
52.9069
 30
0.0
 70
0
  0
SEQEND
  8
CUT
  0
POLYLINE
  8
CUT
 66
1
 10
0.0
 20
0.0
 30
0.0
 70
1
  0
VERTEX
  8
CUT
 10
114.4849
 20
44.601
 30
0.0
 70
0
  0
VERTEX
  8
CUT
 10
114.3655
 20
44.4288
 30
0.0
 70
0
  0
VERTEX
  8
CUT
 10
114.2461
 20
44.2539
 30
0.0
 70
0
  0
VERTEX
  8
CUT
 10
114.1295
 20
44.0818
 30
0.0
 70
0
  0
VERTEX
  8
CUT
 10
114.0157
 20
43.9042
 30
0.0
 70
0
  0
VERTEX
  8
CUT
 10
113.9047
 20
43.7265
 30
0.0
 70
0
  0
VERTEX
  8
CUT
 10
113.7964
 20
43.5488
 30
0.0
 70
0
  0
VERTEX
  8
CUT
 10
113.6882
 20
43.3684
 30
0.0
 70
0
  0
VERTEX
  8
CUT
 10
113.5827
 20
43.1852
 30
0.0
 70
0
  0
VERTEX
  8
CUT
 10
113.5827
 20
64.6691
 30
0.0
 70
0
  0
VERTEX
  8
CUT
 10
113.8714
 20
67.5451
 30
0.0
 70
0
  0
VERTEX
  8
CUT
 10
114.6959
 20
70.2268
 30
0.0
 70
0
  0
VERTEX
  8
CUT
 10
116.0062
 20
72.6586
 30
0.0
 70
0
  0
VERTEX
  8
CUT
 10
117.7384
 20
74.7823
 30
0.0
 70
0
  0
VERTEX
  8
CUT
 10
119.8399
 20
76.5451
 30
0.0
 70
0
  0
VERTEX
  8
CUT
 10
122.2523
 20
77.8832
 30
0.0
 70
0
  0
VERTEX
  8
CUT
 10
124.9173
 20
78.7465
 30
0.0
 70
0
  0
VERTEX
  8
CUT
 10
127.7822
 20
79.0769
 30
0.0
 70
0
  0
VERTEX
  8
CUT
 10
127.7822
 20
78.1719
 30
0.0
 70
0
  0
VERTEX
  8
CUT
 10
125.1006
 20
77.861
 30
0.0
 70
0
  0
VERTEX
  8
CUT
 10
122.6021
 20
77.0531
 30
0.0
 70
0
  0
VERTEX
  8
CUT
 10
120.3452
 20
75.7956
 30
0.0
 70
0
  0
VERTEX
  8
CUT
 10
118.3769
 20
74.1438
 30
0.0
 70
0
  0
VERTEX
  8
CUT
 10
116.7557
 20
72.1534
 30
0.0
 70
0
  0
VERTEX
  8
CUT
 10
115.5287
 20
69.8742
 30
0.0
 70
0
  0
VERTEX
  8
CUT
 10
114.7569
 20
67.3619
 30
0.0
 70
0
  0
VERTEX
  8
CUT
 10
114.4849
 20
64.6691
 30
0.0
 70
0
  0
SEQEND
  8
CUT
  0
POLYLINE
  8
CUT
 66
1
 10
0.0
 20
0.0
 30
0.0
 70
1
  0
VERTEX
  8
CUT
 10
111.4173
 20
43.1852
 30
0.0
 70
0
  0
VERTEX
  8
CUT
 10
111.3118
 20
43.3684
 30
0.0
 70
0
  0
VERTEX
  8
CUT
 10
111.2036
 20
43.5488
 30
0.0
 70
0
  0
VERTEX
  8
CUT
 10
111.0953
 20
43.7265
 30
0.0
 70
0
  0
VERTEX
  8
CUT
 10
110.9843
 20
43.9042
 30
0.0
 70
0
  0
VERTEX
  8
CUT
 10
110.8705
 20
44.0818
 30
0.0
 70
0
  0
VERTEX
  8
CUT
 10
110.7539
 20
44.2539
 30
0.0
 70
0
  0
VERTEX
  8
CUT
 10
110.6345
 20
44.4288
 30
0.0
 70
0
  0
VERTEX
  8
CUT
 10
110.5151
 20
44.601
 30
0.0
 70
0
  0
VERTEX
  8
CUT
 10
110.5151
 20
64.6691
 30
0.0
 70
0
  0
VERTEX
  8
CUT
 10
110.2431
 20
67.3619
 30
0.0
 70
0
  0
VERTEX
  8
CUT
 10
109.4713
 20
69.8742
 30
0.0
 70
0
  0
VERTEX
  8
CUT
 10
108.2443
 20
72.1534
 30
0.0
 70
0
  0
VERTEX
  8
CUT
 10
106.6231
 20
74.1438
 30
0.0
 70
0
  0
VERTEX
  8
CUT
 10
104.6548
 20
75.7956
 30
0.0
 70
0
  0
VERTEX
  8
CUT
 10
102.3979
 20
77.0531
 30
0.0
 70
0
  0
VERTEX
  8
CUT
 10
99.8994
 20
77.861
 30
0.0
 70
0
  0
VERTEX
  8
CUT
 10
97.2178
 20
78.1719
 30
0.0
 70
0
  0
VERTEX
  8
CUT
 10
97.2178
 20
79.0769
 30
0.0
 70
0
  0
VERTEX
  8
CUT
 10
100.0827
 20
78.7465
 30
0.0
 70
0
  0
VERTEX
  8
CUT
 10
102.7477
 20
77.8832
 30
0.0
 70
0
  0
VERTEX
  8
CUT
 10
105.1601
 20
76.5451
 30
0.0
 70
0
  0
VERTEX
  8
CUT
 10
107.2616
 20
74.7823
 30
0.0
 70
0
  0
VERTEX
  8
CUT
 10
108.9938
 20
72.6586
 30
0.0
 70
0
  0
VERTEX
  8
CUT
 10
110.3041
 20
70.2268
 30
0.0
 70
0
  0
VERTEX
  8
CUT
 10
111.1286
 20
67.5451
 30
0.0
 70
0
  0
VERTEX
  8
CUT
 10
111.4173
 20
64.6691
 30
0.0
 70
0
  0
SEQEND
  8
CUT
  0
POLYLINE
  8
CUT
 66
1
 10
0.0
 20
0.0
 30
0.0
 70
1
  0
VERTEX
  8
CUT
 10
108.3498
 20
47.0828
 30
0.0
 70
0
  0
VERTEX
  8
CUT
 10
108.2387
 20
47.1827
 30
0.0
 70
0
  0
VERTEX
  8
CUT
 10
108.1277
 20
47.2854
 30
0.0
 70
0
  0
VERTEX
  8
CUT
 10
108.0167
 20
47.3853
 30
0.0
 70
0
  0
VERTEX
  8
CUT
 10
107.9056
 20
47.4853
 30
0.0
 70
0
  0
VERTEX
  8
CUT
 10
107.7918
 20
47.5852
 30
0.0
 70
0
  0
VERTEX
  8
CUT
 10
107.678
 20
47.6824
 30
0.0
 70
0
  0
VERTEX
  8
CUT
 10
107.5614
 20
47.7795
 30
0.0
 70
0
  0
VERTEX
  8
CUT
 10
107.4448
 20
47.8739
 30
0.0
 70
0
  0
VERTEX
  8
CUT
 10
107.4448
 20
64.6691
 30
0.0
 70
0
  0
VERTEX
  8
CUT
 10
107.2394
 20
66.7456
 30
0.0
 70
0
  0
VERTEX
  8
CUT
 10
106.6425
 20
68.6833
 30
0.0
 70
0
  0
VERTEX
  8
CUT
 10
105.7014
 20
70.4406
 30
0.0
 70
0
  0
VERTEX
  8
CUT
 10
104.455
 20
71.9757
 30
0.0
 70
0
  0
VERTEX
  8
CUT
 10
102.942
 20
73.2527
 30
0.0
 70
0
  0
VERTEX
  8
CUT
 10
101.2042
 20
74.2243
 30
0.0
 70
0
  0
VERTEX
  8
CUT
 10
99.2832
 20
74.8573
 30
0.0
 70
0
  0
VERTEX
  8
CUT
 10
97.2178
 20
75.1043
 30
0.0
 70
0
  0
VERTEX
  8
CUT
 10
97.2178
 20
76.0093
 30
0.0
 70
0
  0
VERTEX
  8
CUT
 10
99.4636
 20
75.7428
 30
0.0
 70
0
  0
VERTEX
  8
CUT
 10
101.554
 20
75.0572
 30
0.0
 70
0
  0
VERTEX
  8
CUT
 10
103.4473
 20
73.9995
 30
0.0
 70
0
  0
VERTEX
  8
CUT
 10
105.0935
 20
72.6142
 30
0.0
 70
0
  0
VERTEX
  8
CUT
 10
106.451
 20
70.943
 30
0.0
 70
0
  0
VERTEX
  8
CUT
 10
107.4753
 20
69.0331
 30
0.0
 70
0
  0
VERTEX
  8
CUT
 10
108.1249
 20
66.9261
 30
0.0
 70
0
  0
VERTEX
  8
CUT
 10
108.3498
 20
64.6691
 30
0.0
 70
0
  0
SEQEND
  8
CUT
  0
POLYLINE
  8
CUT
 66
1
 10
0.0
 20
0.0
 30
0.0
 70
1
  0
VERTEX
  8
CUT
 10
117.5552
 20
47.8739
 30
0.0
 70
0
  0
VERTEX
  8
CUT
 10
117.4386
 20
47.7795
 30
0.0
 70
0
  0
VERTEX
  8
CUT
 10
117.322
 20
47.6824
 30
0.0
 70
0
  0
VERTEX
  8
CUT
 10
117.2082
 20
47.5852
 30
0.0
 70
0
  0
VERTEX
  8
CUT
 10
117.0944
 20
47.4853
 30
0.0
 70
0
  0
VERTEX
  8
CUT
 10
116.9833
 20
47.3853
 30
0.0
 70
0
  0
VERTEX
  8
CUT
 10
116.8723
 20
47.2854
 30
0.0
 70
0
  0
VERTEX
  8
CUT
 10
116.7613
 20
47.1827
 30
0.0
 70
0
  0
VERTEX
  8
CUT
 10
116.6502
 20
47.0828
 30
0.0
 70
0
  0
VERTEX
  8
CUT
 10
116.6502
 20
64.6691
 30
0.0
 70
0
  0
VERTEX
  8
CUT
 10
116.8751
 20
66.9261
 30
0.0
 70
0
  0
VERTEX
  8
CUT
 10
117.5247
 20
69.0331
 30
0.0
 70
0
  0
VERTEX
  8
CUT
 10
118.549
 20
70.943
 30
0.0
 70
0
  0
VERTEX
  8
CUT
 10
119.9065
 20
72.6142
 30
0.0
 70
0
  0
VERTEX
  8
CUT
 10
121.5527
 20
73.9995
 30
0.0
 70
0
  0
VERTEX
  8
CUT
 10
123.446
 20
75.0572
 30
0.0
 70
0
  0
VERTEX
  8
CUT
 10
125.5364
 20
75.7428
 30
0.0
 70
0
  0
VERTEX
  8
CUT
 10
127.7822
 20
76.0093
 30
0.0
 70
0
  0
VERTEX
  8
CUT
 10
127.7822
 20
75.1043
 30
0.0
 70
0
  0
VERTEX
  8
CUT
 10
125.7168
 20
74.8573
 30
0.0
 70
0
  0
VERTEX
  8
CUT
 10
123.7958
 20
74.2243
 30
0.0
 70
0
  0
VERTEX
  8
CUT
 10
122.058
 20
73.2527
 30
0.0
 70
0
  0
VERTEX
  8
CUT
 10
120.545
 20
71.9757
 30
0.0
 70
0
  0
VERTEX
  8
CUT
 10
119.2986
 20
70.4406
 30
0.0
 70
0
  0
VERTEX
  8
CUT
 10
118.3575
 20
68.6833
 30
0.0
 70
0
  0
VERTEX
  8
CUT
 10
117.7606
 20
66.7456
 30
0.0
 70
0
  0
VERTEX
  8
CUT
 10
117.5552
 20
64.6691
 30
0.0
 70
0
  0
SEQEND
  8
CUT
  0
POLYLINE
  8
CUT
 66
1
 10
0.0
 20
0.0
 30
0.0
 70
1
  0
VERTEX
  8
CUT
 10
127.7822
 20
34.5352
 30
0.0
 70
0
  0
VERTEX
  8
CUT
 10
126.8911
 20
35.0155
 30
0.0
 70
0
  0
VERTEX
  8
CUT
 10
125.9695
 20
35.4402
 30
0.0
 70
0
  0
VERTEX
  8
CUT
 10
125.02
 20
35.8094
 30
0.0
 70
0
  0
VERTEX
  8
CUT
 10
124.0429
 20
36.1204
 30
0.0
 70
0
  0
VERTEX
  8
CUT
 10
123.0407
 20
36.373
 30
0.0
 70
0
  0
VERTEX
  8
CUT
 10
122.0163
 20
36.5645
 30
0.0
 70
0
  0
VERTEX
  8
CUT
 10
120.9698
 20
36.6895
 30
0.0
 70
0
  0
VERTEX
  8
CUT
 10
119.9038
 20
36.7477
 30
0.0
 70
0
  0
VERTEX
  8
CUT
 10
120.3091
 20
38.0775
 30
0.0
 70
0
  0
VERTEX
  8
CUT
 10
120.9226
 20
39.3017
 30
0.0
 70
0
  0
VERTEX
  8
CUT
 10
121.7221
 20
40.3983
 30
0.0
 70
0
  0
VERTEX
  8
CUT
 10
122.6854
 20
41.3505
 30
0.0
 70
0
  0
VERTEX
  8
CUT
 10
123.7958
 20
42.1361
 30
0.0
 70
0
  0
VERTEX
  8
CUT
 10
125.0284
 20
42.7329
 30
0.0
 70
0
  0
VERTEX
  8
CUT
 10
126.3637
 20
43.1216
 30
0.0
 70
0
  0
VERTEX
  8
CUT
 10
127.7822
 20
43.2798
 30
0.0
 70
0
  0
SEQEND
  8
CUT
  0
POLYLINE
  8
CUT
 66
1
 10
0.0
 20
0.0
 30
0.0
 70
1
  0
VERTEX
  8
CUT
 10
150.0962
 20
36.7477
 30
0.0
 70
0
  0
VERTEX
  8
CUT
 10
149.0302
 20
36.6895
 30
0.0
 70
0
  0
VERTEX
  8
CUT
 10
147.9837
 20
36.5645
 30
0.0
 70
0
  0
VERTEX
  8
CUT
 10
146.9593
 20
36.373
 30
0.0
 70
0
  0
VERTEX
  8
CUT
 10
145.9571
 20
36.1204
 30
0.0
 70
0
  0
VERTEX
  8
CUT
 10
144.98
 20
35.8094
 30
0.0
 70
0
  0
VERTEX
  8
CUT
 10
144.0305
 20
35.4402
 30
0.0
 70
0
  0
VERTEX
  8
CUT
 10
143.1089
 20
35.0155
 30
0.0
 70
0
  0
VERTEX
  8
CUT
 10
142.2178
 20
34.5352
 30
0.0
 70
0
  0
VERTEX
  8
CUT
 10
142.2178
 20
43.2798
 30
0.0
 70
0
  0
VERTEX
  8
CUT
 10
143.6363
 20
43.1216
 30
0.0
 70
0
  0
VERTEX
  8
CUT
 10
144.9716
 20
42.7329
 30
0.0
 70
0
  0
VERTEX
  8
CUT
 10
146.2042
 20
42.1361
 30
0.0
 70
0
  0
VERTEX
  8
CUT
 10
147.3146
 20
41.3505
 30
0.0
 70
0
  0
VERTEX
  8
CUT
 10
148.2779
 20
40.3983
 30
0.0
 70
0
  0
VERTEX
  8
CUT
 10
149.0774
 20
39.3017
 30
0.0
 70
0
  0
VERTEX
  8
CUT
 10
149.6909
 20
38.0775
 30
0.0
 70
0
  0
SEQEND
  8
CUT
  0
POLYLINE
  8
CUT
 66
1
 10
0.0
 20
0.0
 30
0.0
 70
1
  0
VERTEX
  8
CUT
 10
136.9849
 20
29.7715
 30
0.0
 70
0
  0
VERTEX
  8
CUT
 10
136.8655
 20
29.5994
 30
0.0
 70
0
  0
VERTEX
  8
CUT
 10
136.7461
 20
29.4245
 30
0.0
 70
0
  0
VERTEX
  8
CUT
 10
136.6295
 20
29.2524
 30
0.0
 70
0
  0
VERTEX
  8
CUT
 10
136.5157
 20
29.0747
 30
0.0
 70
0
  0
VERTEX
  8
CUT
 10
136.4047
 20
28.897
 30
0.0
 70
0
  0
VERTEX
  8
CUT
 10
136.2964
 20
28.7194
 30
0.0
 70
0
  0
VERTEX
  8
CUT
 10
136.1882
 20
28.5389
 30
0.0
 70
0
  0
VERTEX
  8
CUT
 10
136.0827
 20
28.3557
 30
0.0
 70
0
  0
VERTEX
  8
CUT
 10
136.0827
 20
49.8397
 30
0.0
 70
0
  0
VERTEX
  8
CUT
 10
136.3714
 20
52.7157
 30
0.0
 70
0
  0
VERTEX
  8
CUT
 10
137.1959
 20
55.3973
 30
0.0
 70
0
  0
VERTEX
  8
CUT
 10
138.5062
 20
57.8292
 30
0.0
 70
0
  0
VERTEX
  8
CUT
 10
140.2384
 20
59.9529
 30
0.0
 70
0
  0
VERTEX
  8
CUT
 10
142.3399
 20
61.7157
 30
0.0
 70
0
  0
VERTEX
  8
CUT
 10
144.7523
 20
63.0537
 30
0.0
 70
0
  0
VERTEX
  8
CUT
 10
147.4173
 20
63.9171
 30
0.0
 70
0
  0
VERTEX
  8
CUT
 10
150.2822
 20
64.2474
 30
0.0
 70
0
  0
VERTEX
  8
CUT
 10
150.2822
 20
63.3424
 30
0.0
 70
0
  0
VERTEX
  8
CUT
 10
147.6006
 20
63.0315
 30
0.0
 70
0
  0
VERTEX
  8
CUT
 10
145.1021
 20
62.2237
 30
0.0
 70
0
  0
VERTEX
  8
CUT
 10
142.8452
 20
60.9661
 30
0.0
 70
0
  0
VERTEX
  8
CUT
 10
140.8769
 20
59.3144
 30
0.0
 70
0
  0
VERTEX
  8
CUT
 10
139.2557
 20
57.3239
 30
0.0
 70
0
  0
VERTEX
  8
CUT
 10
138.0287
 20
55.0448
 30
0.0
 70
0
  0
VERTEX
  8
CUT
 10
137.2569
 20
52.5324
 30
0.0
 70
0
  0
VERTEX
  8
CUT
 10
136.9849
 20
49.8397
 30
0.0
 70
0
  0
SEQEND
  8
CUT
  0
POLYLINE
  8
CUT
 66
1
 10
0.0
 20
0.0
 30
0.0
 70
1
  0
VERTEX
  8
CUT
 10
133.9173
 20
28.3557
 30
0.0
 70
0
  0
VERTEX
  8
CUT
 10
133.8118
 20
28.5389
 30
0.0
 70
0
  0
VERTEX
  8
CUT
 10
133.7036
 20
28.7194
 30
0.0
 70
0
  0
VERTEX
  8
CUT
 10
133.5953
 20
28.897
 30
0.0
 70
0
  0
VERTEX
  8
CUT
 10
133.4843
 20
29.0747
 30
0.0
 70
0
  0
VERTEX
  8
CUT
 10
133.3705
 20
29.2524
 30
0.0
 70
0
  0
VERTEX
  8
CUT
 10
133.2539
 20
29.4245
 30
0.0
 70
0
  0
VERTEX
  8
CUT
 10
133.1345
 20
29.5994
 30
0.0
 70
0
  0
VERTEX
  8
CUT
 10
133.0151
 20
29.7715
 30
0.0
 70
0
  0
VERTEX
  8
CUT
 10
133.0151
 20
49.8397
 30
0.0
 70
0
  0
VERTEX
  8
CUT
 10
132.7431
 20
52.5324
 30
0.0
 70
0
  0
VERTEX
  8
CUT
 10
131.9713
 20
55.0448
 30
0.0
 70
0
  0
VERTEX
  8
CUT
 10
130.7443
 20
57.3239
 30
0.0
 70
0
  0
VERTEX
  8
CUT
 10
129.1231
 20
59.3144
 30
0.0
 70
0
  0
VERTEX
  8
CUT
 10
127.1548
 20
60.9661
 30
0.0
 70
0
  0
VERTEX
  8
CUT
 10
124.8979
 20
62.2237
 30
0.0
 70
0
  0
VERTEX
  8
CUT
 10
122.3994
 20
63.0315
 30
0.0
 70
0
  0
VERTEX
  8
CUT
 10
119.7178
 20
63.3424
 30
0.0
 70
0
  0
VERTEX
  8
CUT
 10
119.7178
 20
64.2474
 30
0.0
 70
0
  0
VERTEX
  8
CUT
 10
122.5827
 20
63.9171
 30
0.0
 70
0
  0
VERTEX
  8
CUT
 10
125.2477
 20
63.0537
 30
0.0
 70
0
  0
VERTEX
  8
CUT
 10
127.6601
 20
61.7157
 30
0.0
 70
0
  0
VERTEX
  8
CUT
 10
129.7616
 20
59.9529
 30
0.0
 70
0
  0
VERTEX
  8
CUT
 10
131.4938
 20
57.8292
 30
0.0
 70
0
  0
VERTEX
  8
CUT
 10
132.8041
 20
55.3973
 30
0.0
 70
0
  0
VERTEX
  8
CUT
 10
133.6286
 20
52.7157
 30
0.0
 70
0
  0
VERTEX
  8
CUT
 10
133.9173
 20
49.8397
 30
0.0
 70
0
  0
SEQEND
  8
CUT
  0
POLYLINE
  8
CUT
 66
1
 10
0.0
 20
0.0
 30
0.0
 70
1
  0
VERTEX
  8
CUT
 10
130.8498
 20
32.2533
 30
0.0
 70
0
  0
VERTEX
  8
CUT
 10
130.7387
 20
32.3532
 30
0.0
 70
0
  0
VERTEX
  8
CUT
 10
130.6277
 20
32.456
 30
0.0
 70
0
  0
VERTEX
  8
CUT
 10
130.5167
 20
32.5559
 30
0.0
 70
0
  0
VERTEX
  8
CUT
 10
130.4056
 20
32.6558
 30
0.0
 70
0
  0
VERTEX
  8
CUT
 10
130.2918
 20
32.7558
 30
0.0
 70
0
  0
VERTEX
  8
CUT
 10
130.178
 20
32.8529
 30
0.0
 70
0
  0
VERTEX
  8
CUT
 10
130.0614
 20
32.9501
 30
0.0
 70
0
  0
VERTEX
  8
CUT
 10
129.9448
 20
33.0445
 30
0.0
 70
0
  0
VERTEX
  8
CUT
 10
129.9448
 20
49.8397
 30
0.0
 70
0
  0
VERTEX
  8
CUT
 10
129.7394
 20
51.9162
 30
0.0
 70
0
  0
VERTEX
  8
CUT
 10
129.1425
 20
53.8539
 30
0.0
 70
0
  0
VERTEX
  8
CUT
 10
128.2014
 20
55.6111
 30
0.0
 70
0
  0
VERTEX
  8
CUT
 10
126.955
 20
57.1463
 30
0.0
 70
0
  0
VERTEX
  8
CUT
 10
125.442
 20
58.4233
 30
0.0
 70
0
  0
VERTEX
  8
CUT
 10
123.7042
 20
59.3949
 30
0.0
 70
0
  0
VERTEX
  8
CUT
 10
121.7832
 20
60.0278
 30
0.0
 70
0
  0
VERTEX
  8
CUT
 10
119.7178
 20
60.2749
 30
0.0
 70
0
  0
VERTEX
  8
CUT
 10
119.7178
 20
61.1799
 30
0.0
 70
0
  0
VERTEX
  8
CUT
 10
121.9636
 20
60.9134
 30
0.0
 70
0
  0
VERTEX
  8
CUT
 10
124.054
 20
60.2277
 30
0.0
 70
0
  0
VERTEX
  8
CUT
 10
125.9473
 20
59.17
 30
0.0
 70
0
  0
VERTEX
  8
CUT
 10
127.5935
 20
57.7848
 30
0.0
 70
0
  0
VERTEX
  8
CUT
 10
128.951
 20
56.1136
 30
0.0
 70
0
  0
VERTEX
  8
CUT
 10
129.9753
 20
54.2036
 30
0.0
 70
0
  0
VERTEX
  8
CUT
 10
130.6249
 20
52.0966
 30
0.0
 70
0
  0
VERTEX
  8
CUT
 10
130.8498
 20
49.8397
 30
0.0
 70
0
  0
SEQEND
  8
CUT
  0
POLYLINE
  8
CUT
 66
1
 10
0.0
 20
0.0
 30
0.0
 70
1
  0
VERTEX
  8
CUT
 10
140.0552
 20
33.0445
 30
0.0
 70
0
  0
VERTEX
  8
CUT
 10
139.9386
 20
32.9501
 30
0.0
 70
0
  0
VERTEX
  8
CUT
 10
139.822
 20
32.8529
 30
0.0
 70
0
  0
VERTEX
  8
CUT
 10
139.7082
 20
32.7558
 30
0.0
 70
0
  0
VERTEX
  8
CUT
 10
139.5944
 20
32.6558
 30
0.0
 70
0
  0
VERTEX
  8
CUT
 10
139.4833
 20
32.5559
 30
0.0
 70
0
  0
VERTEX
  8
CUT
 10
139.3723
 20
32.456
 30
0.0
 70
0
  0
VERTEX
  8
CUT
 10
139.2613
 20
32.3532
 30
0.0
 70
0
  0
VERTEX
  8
CUT
 10
139.1502
 20
32.2533
 30
0.0
 70
0
  0
VERTEX
  8
CUT
 10
139.1502
 20
49.8397
 30
0.0
 70
0
  0
VERTEX
  8
CUT
 10
139.3751
 20
52.0966
 30
0.0
 70
0
  0
VERTEX
  8
CUT
 10
140.0247
 20
54.2036
 30
0.0
 70
0
  0
VERTEX
  8
CUT
 10
141.049
 20
56.1136
 30
0.0
 70
0
  0
VERTEX
  8
CUT
 10
142.4065
 20
57.7848
 30
0.0
 70
0
  0
VERTEX
  8
CUT
 10
144.0527
 20
59.17
 30
0.0
 70
0
  0
VERTEX
  8
CUT
 10
145.946
 20
60.2277
 30
0.0
 70
0
  0
VERTEX
  8
CUT
 10
148.0364
 20
60.9134
 30
0.0
 70
0
  0
VERTEX
  8
CUT
 10
150.2822
 20
61.1799
 30
0.0
 70
0
  0
VERTEX
  8
CUT
 10
150.2822
 20
60.2749
 30
0.0
 70
0
  0
VERTEX
  8
CUT
 10
148.2168
 20
60.0278
 30
0.0
 70
0
  0
VERTEX
  8
CUT
 10
146.2958
 20
59.3949
 30
0.0
 70
0
  0
VERTEX
  8
CUT
 10
144.558
 20
58.4233
 30
0.0
 70
0
  0
VERTEX
  8
CUT
 10
143.045
 20
57.1463
 30
0.0
 70
0
  0
VERTEX
  8
CUT
 10
141.7986
 20
55.6111
 30
0.0
 70
0
  0
VERTEX
  8
CUT
 10
140.8575
 20
53.8539
 30
0.0
 70
0
  0
VERTEX
  8
CUT
 10
140.2606
 20
51.9162
 30
0.0
 70
0
  0
VERTEX
  8
CUT
 10
140.0552
 20
49.8397
 30
0.0
 70
0
  0
SEQEND
  8
CUT
  0
POLYLINE
  8
CUT
 66
1
 10
0.0
 20
0.0
 30
0.0
 70
1
  0
VERTEX
  8
CUT
 10
150.2822
 20
25.0
 30
0.0
 70
0
  0
VERTEX
  8
CUT
 10
143.8074
 20
25.0
 30
0.0
 70
0
  0
VERTEX
  8
CUT
 10
144.2221
 20
25.5688
 30
0.0
 70
0
  0
VERTEX
  8
CUT
 10
145.1854
 20
26.521
 30
0.0
 70
0
  0
VERTEX
  8
CUT
 10
146.2958
 20
27.3066
 30
0.0
 70
0
  0
VERTEX
  8
CUT
 10
147.5284
 20
27.9035
 30
0.0
 70
0
  0
VERTEX
  8
CUT
 10
148.8637
 20
28.2921
 30
0.0
 70
0
  0
VERTEX
  8
CUT
 10
150.2822
 20
28.4504
 30
0.0
 70
0
  0
SEQEND
  8
CUT
  0
POLYLINE
  8
CUT
 66
1
 10
0.0
 20
0.0
 30
0.0
 70
1
  0
VERTEX
  8
CUT
 10
166.0
 20
25.0
 30
0.0
 70
0
  0
VERTEX
  8
CUT
 10
164.7178
 20
25.0
 30
0.0
 70
0
  0
VERTEX
  8
CUT
 10
164.7178
 20
28.4504
 30
0.0
 70
0
  0
VERTEX
  8
CUT
 10
166.1363
 20
28.2921
 30
0.0
 70
0
  0
VERTEX
  8
CUT
 10
167.4716
 20
27.9035
 30
0.0
 70
0
  0
VERTEX
  8
CUT
 10
168.4363
 20
27.4363
 30
0.0
 70
0
  0
SEQEND
  8
CUT
  0
POLYLINE
  8
CUT
 66
1
 10
0.0
 20
0.0
 30
0.0
 70
1
  0
VERTEX
  8
CUT
 10
159.4849
 20
25.0
 30
0.0
 70
0
  0
VERTEX
  8
CUT
 10
158.5827
 20
25.0
 30
0.0
 70
0
  0
VERTEX
  8
CUT
 10
158.5827
 20
35.0102
 30
0.0
 70
0
  0
VERTEX
  8
CUT
 10
158.8714
 20
37.8862
 30
0.0
 70
0
  0
VERTEX
  8
CUT
 10
159.6959
 20
40.5679
 30
0.0
 70
0
  0
VERTEX
  8
CUT
 10
161.0062
 20
42.9997
 30
0.0
 70
0
  0
VERTEX
  8
CUT
 10
162.7384
 20
45.1234
 30
0.0
 70
0
  0
VERTEX
  8
CUT
 10
164.8399
 20
46.8862
 30
0.0
 70
0
  0
VERTEX
  8
CUT
 10
167.2523
 20
48.2243
 30
0.0
 70
0
  0
VERTEX
  8
CUT
 10
169.9173
 20
49.0876
 30
0.0
 70
0
  0
VERTEX
  8
CUT
 10
172.0
 20
49.3278
 30
0.0
 70
0
  0
VERTEX
  8
CUT
 10
172.0
 20
48.4223
 30
0.0
 70
0
  0
VERTEX
  8
CUT
 10
170.1006
 20
48.2021
 30
0.0
 70
0
  0
VERTEX
  8
CUT
 10
167.6021
 20
47.3942
 30
0.0
 70
0
  0
VERTEX
  8
CUT
 10
165.3452
 20
46.1367
 30
0.0
 70
0
  0
VERTEX
  8
CUT
 10
163.3769
 20
44.4849
 30
0.0
 70
0
  0
VERTEX
  8
CUT
 10
161.7557
 20
42.4945
 30
0.0
 70
0
  0
VERTEX
  8
CUT
 10
160.5287
 20
40.2153
 30
0.0
 70
0
  0
VERTEX
  8
CUT
 10
159.7569
 20
37.703
 30
0.0
 70
0
  0
VERTEX
  8
CUT
 10
159.4849
 20
35.0102
 30
0.0
 70
0
  0
SEQEND
  8
CUT
  0
POLYLINE
  8
CUT
 66
1
 10
0.0
 20
0.0
 30
0.0
 70
1
  0
VERTEX
  8
CUT
 10
156.4173
 20
25.0
 30
0.0
 70
0
  0
VERTEX
  8
CUT
 10
155.5151
 20
25.0
 30
0.0
 70
0
  0
VERTEX
  8
CUT
 10
155.5151
 20
35.0102
 30
0.0
 70
0
  0
VERTEX
  8
CUT
 10
155.2431
 20
37.703
 30
0.0
 70
0
  0
VERTEX
  8
CUT
 10
154.4713
 20
40.2153
 30
0.0
 70
0
  0
VERTEX
  8
CUT
 10
153.2443
 20
42.4945
 30
0.0
 70
0
  0
VERTEX
  8
CUT
 10
151.6231
 20
44.4849
 30
0.0
 70
0
  0
VERTEX
  8
CUT
 10
149.6548
 20
46.1367
 30
0.0
 70
0
  0
VERTEX
  8
CUT
 10
147.3979
 20
47.3942
 30
0.0
 70
0
  0
VERTEX
  8
CUT
 10
144.8994
 20
48.2021
 30
0.0
 70
0
  0
VERTEX
  8
CUT
 10
142.2178
 20
48.513
 30
0.0
 70
0
  0
VERTEX
  8
CUT
 10
142.2178
 20
49.418
 30
0.0
 70
0
  0
VERTEX
  8
CUT
 10
145.0827
 20
49.0876
 30
0.0
 70
0
  0
VERTEX
  8
CUT
 10
147.7477
 20
48.2243
 30
0.0
 70
0
  0
VERTEX
  8
CUT
 10
150.1601
 20
46.8862
 30
0.0
 70
0
  0
VERTEX
  8
CUT
 10
152.2616
 20
45.1234
 30
0.0
 70
0
  0
VERTEX
  8
CUT
 10
153.9938
 20
42.9997
 30
0.0
 70
0
  0
VERTEX
  8
CUT
 10
155.3041
 20
40.5679
 30
0.0
 70
0
  0
VERTEX
  8
CUT
 10
156.1286
 20
37.8862
 30
0.0
 70
0
  0
VERTEX
  8
CUT
 10
156.4173
 20
35.0102
 30
0.0
 70
0
  0
SEQEND
  8
CUT
  0
POLYLINE
  8
CUT
 66
1
 10
0.0
 20
0.0
 30
0.0
 70
1
  0
VERTEX
  8
CUT
 10
153.3498
 20
25.0
 30
0.0
 70
0
  0
VERTEX
  8
CUT
 10
152.4448
 20
25.0
 30
0.0
 70
0
  0
VERTEX
  8
CUT
 10
152.4448
 20
35.0102
 30
0.0
 70
0
  0
VERTEX
  8
CUT
 10
152.2394
 20
37.0867
 30
0.0
 70
0
  0
VERTEX
  8
CUT
 10
151.6425
 20
39.0244
 30
0.0
 70
0
  0
VERTEX
  8
CUT
 10
150.7014
 20
40.7816
 30
0.0
 70
0
  0
VERTEX
  8
CUT
 10
149.455
 20
42.3168
 30
0.0
 70
0
  0
VERTEX
  8
CUT
 10
147.942
 20
43.5938
 30
0.0
 70
0
  0
VERTEX
  8
CUT
 10
146.2042
 20
44.5654
 30
0.0
 70
0
  0
VERTEX
  8
CUT
 10
144.2832
 20
45.1984
 30
0.0
 70
0
  0
VERTEX
  8
CUT
 10
142.2178
 20
45.4454
 30
0.0
 70
0
  0
VERTEX
  8
CUT
 10
142.2178
 20
46.3504
 30
0.0
 70
0
  0
VERTEX
  8
CUT
 10
144.4636
 20
46.0839
 30
0.0
 70
0
  0
VERTEX
  8
CUT
 10
146.554
 20
45.3982
 30
0.0
 70
0
  0
VERTEX
  8
CUT
 10
148.4473
 20
44.3406
 30
0.0
 70
0
  0
VERTEX
  8
CUT
 10
150.0935
 20
42.9553
 30
0.0
 70
0
  0
VERTEX
  8
CUT
 10
151.451
 20
41.2841
 30
0.0
 70
0
  0
VERTEX
  8
CUT
 10
152.4753
 20
39.3742
 30
0.0
 70
0
  0
VERTEX
  8
CUT
 10
153.1249
 20
37.2671
 30
0.0
 70
0
  0
VERTEX
  8
CUT
 10
153.3498
 20
35.0102
 30
0.0
 70
0
  0
SEQEND
  8
CUT
  0
POLYLINE
  8
CUT
 66
1
 10
0.0
 20
0.0
 30
0.0
 70
1
  0
VERTEX
  8
CUT
 10
162.5552
 20
25.0
 30
0.0
 70
0
  0
VERTEX
  8
CUT
 10
161.6502
 20
25.0
 30
0.0
 70
0
  0
VERTEX
  8
CUT
 10
161.6502
 20
35.0102
 30
0.0
 70
0
  0
VERTEX
  8
CUT
 10
161.8751
 20
37.2671
 30
0.0
 70
0
  0
VERTEX
  8
CUT
 10
162.5247
 20
39.3742
 30
0.0
 70
0
  0
VERTEX
  8
CUT
 10
163.549
 20
41.2841
 30
0.0
 70
0
  0
VERTEX
  8
CUT
 10
164.9065
 20
42.9553
 30
0.0
 70
0
  0
VERTEX
  8
CUT
 10
166.5527
 20
44.3406
 30
0.0
 70
0
  0
VERTEX
  8
CUT
 10
168.446
 20
45.3982
 30
0.0
 70
0
  0
VERTEX
  8
CUT
 10
170.5364
 20
46.0839
 30
0.0
 70
0
  0
VERTEX
  8
CUT
 10
172.0
 20
46.2576
 30
0.0
 70
0
  0
VERTEX
  8
CUT
 10
172.0
 20
45.3519
 30
0.0
 70
0
  0
VERTEX
  8
CUT
 10
170.7168
 20
45.1984
 30
0.0
 70
0
  0
VERTEX
  8
CUT
 10
168.7958
 20
44.5654
 30
0.0
 70
0
  0
VERTEX
  8
CUT
 10
167.058
 20
43.5938
 30
0.0
 70
0
  0
VERTEX
  8
CUT
 10
165.545
 20
42.3168
 30
0.0
 70
0
  0
VERTEX
  8
CUT
 10
164.2986
 20
40.7816
 30
0.0
 70
0
  0
VERTEX
  8
CUT
 10
163.3575
 20
39.0244
 30
0.0
 70
0
  0
VERTEX
  8
CUT
 10
162.7606
 20
37.0867
 30
0.0
 70
0
  0
VERTEX
  8
CUT
 10
162.5552
 20
35.0102
 30
0.0
 70
0
  0
SEQEND
  8
CUT
  0
POLYLINE
  8
CUT
 66
1
 10
0.0
 20
0.0
 30
0.0
 70
1
  0
VERTEX
  8
CUT
 10
172.0
 20
31.3935
 30
0.0
 70
0
  0
VERTEX
  8
CUT
 10
169.8979
 20
32.5648
 30
0.0
 70
0
  0
VERTEX
  8
CUT
 10
167.3994
 20
33.3726
 30
0.0
 70
0
  0
VERTEX
  8
CUT
 10
164.7178
 20
33.6835
 30
0.0
 70
0
  0
VERTEX
  8
CUT
 10
164.7178
 20
34.5885
 30
0.0
 70
0
  0
VERTEX
  8
CUT
 10
167.5827
 20
34.2582
 30
0.0
 70
0
  0
VERTEX
  8
CUT
 10
170.2477
 20
33.3948
 30
0.0
 70
0
  0
VERTEX
  8
CUT
 10
172.0
 20
32.4229
 30
0.0
 70
0
  0
SEQEND
  8
CUT
  0
POLYLINE
  8
CUT
 66
1
 10
0.0
 20
0.0
 30
0.0
 70
1
  0
VERTEX
  8
CUT
 10
170.0074
 20
29.0074
 30
0.0
 70
0
  0
VERTEX
  8
CUT
 10
168.7042
 20
29.736
 30
0.0
 70
0
  0
VERTEX
  8
CUT
 10
166.7832
 20
30.3689
 30
0.0
 70
0
  0
VERTEX
  8
CUT
 10
164.7178
 20
30.616
 30
0.0
 70
0
  0
VERTEX
  8
CUT
 10
164.7178
 20
31.521
 30
0.0
 70
0
  0
VERTEX
  8
CUT
 10
166.9636
 20
31.2545
 30
0.0
 70
0
  0
VERTEX
  8
CUT
 10
169.054
 20
30.5688
 30
0.0
 70
0
  0
VERTEX
  8
CUT
 10
170.6674
 20
29.6674
 30
0.0
 70
0
  0
SEQEND
  8
CUT
  0
POLYLINE
  8
CUT
 66
1
 10
0.0
 20
0.0
 30
0.0
 70
1
  0
VERTEX
  8
CUT
 10
14.0
 20
82.0
 30
0.0
 70
0
  0
VERTEX
  8
CUT
 10
15.2822
 20
82.0
 30
0.0
 70
0
  0
VERTEX
  8
CUT
 10
15.2822
 20
79.0236
 30
0.0
 70
0
  0
VERTEX
  8
CUT
 10
14.3911
 20
79.5039
 30
0.0
 70
0
  0
VERTEX
  8
CUT
 10
13.4695
 20
79.9286
 30
0.0
 70
0
  0
VERTEX
  8
CUT
 10
12.52
 20
80.2978
 30
0.0
 70
0
  0
VERTEX
  8
CUT
 10
12.3515
 20
80.3515
 30
0.0
 70
0
  0
SEQEND
  8
CUT
  0
POLYLINE
  8
CUT
 66
1
 10
0.0
 20
0.0
 30
0.0
 70
1
  0
VERTEX
  8
CUT
 10
37.3634
 20
82.0
 30
0.0
 70
0
  0
VERTEX
  8
CUT
 10
37.5962
 20
81.2361
 30
0.0
 70
0
  0
VERTEX
  8
CUT
 10
36.5302
 20
81.1778
 30
0.0
 70
0
  0
VERTEX
  8
CUT
 10
35.4837
 20
81.0529
 30
0.0
 70
0
  0
VERTEX
  8
CUT
 10
34.4593
 20
80.8614
 30
0.0
 70
0
  0
VERTEX
  8
CUT
 10
33.4571
 20
80.6087
 30
0.0
 70
0
  0
VERTEX
  8
CUT
 10
32.48
 20
80.2978
 30
0.0
 70
0
  0
VERTEX
  8
CUT
 10
31.5305
 20
79.9286
 30
0.0
 70
0
  0
VERTEX
  8
CUT
 10
30.6089
 20
79.5039
 30
0.0
 70
0
  0
VERTEX
  8
CUT
 10
29.7178
 20
79.0236
 30
0.0
 70
0
  0
VERTEX
  8
CUT
 10
29.7178
 20
82.0
 30
0.0
 70
0
  0
SEQEND
  8
CUT
  0
POLYLINE
  8
CUT
 66
1
 10
0.0
 20
0.0
 30
0.0
 70
1
  0
VERTEX
  8
CUT
 10
24.4849
 20
82.0
 30
0.0
 70
0
  0
VERTEX
  8
CUT
 10
24.4849
 20
74.2599
 30
0.0
 70
0
  0
VERTEX
  8
CUT
 10
24.3655
 20
74.0878
 30
0.0
 70
0
  0
VERTEX
  8
CUT
 10
24.2461
 20
73.9129
 30
0.0
 70
0
  0
VERTEX
  8
CUT
 10
24.1295
 20
73.7407
 30
0.0
 70
0
  0
VERTEX
  8
CUT
 10
24.0157
 20
73.5631
 30
0.0
 70
0
  0
VERTEX
  8
CUT
 10
23.9047
 20
73.3854
 30
0.0
 70
0
  0
VERTEX
  8
CUT
 10
23.7964
 20
73.2077
 30
0.0
 70
0
  0
VERTEX
  8
CUT
 10
23.6882
 20
73.0273
 30
0.0
 70
0
  0
VERTEX
  8
CUT
 10
23.5827
 20
72.8441
 30
0.0
 70
0
  0
VERTEX
  8
CUT
 10
23.5827
 20
82.0
 30
0.0
 70
0
  0
SEQEND
  8
CUT
  0
POLYLINE
  8
CUT
 66
1
 10
0.0
 20
0.0
 30
0.0
 70
1
  0
VERTEX
  8
CUT
 10
21.4173
 20
82.0
 30
0.0
 70
0
  0
VERTEX
  8
CUT
 10
21.4173
 20
72.8441
 30
0.0
 70
0
  0
VERTEX
  8
CUT
 10
21.3118
 20
73.0273
 30
0.0
 70
0
  0
VERTEX
  8
CUT
 10
21.2036
 20
73.2077
 30
0.0
 70
0
  0
VERTEX
  8
CUT
 10
21.0953
 20
73.3854
 30
0.0
 70
0
  0
VERTEX
  8
CUT
 10
20.9843
 20
73.5631
 30
0.0
 70
0
  0
VERTEX
  8
CUT
 10
20.8705
 20
73.7407
 30
0.0
 70
0
  0
VERTEX
  8
CUT
 10
20.7539
 20
73.9129
 30
0.0
 70
0
  0
VERTEX
  8
CUT
 10
20.6345
 20
74.0878
 30
0.0
 70
0
  0
VERTEX
  8
CUT
 10
20.5151
 20
74.2599
 30
0.0
 70
0
  0
VERTEX
  8
CUT
 10
20.5151
 20
82.0
 30
0.0
 70
0
  0
SEQEND
  8
CUT
  0
POLYLINE
  8
CUT
 66
1
 10
0.0
 20
0.0
 30
0.0
 70
1
  0
VERTEX
  8
CUT
 10
18.3498
 20
82.0
 30
0.0
 70
0
  0
VERTEX
  8
CUT
 10
18.3498
 20
76.7417
 30
0.0
 70
0
  0
VERTEX
  8
CUT
 10
18.2387
 20
76.8416
 30
0.0
 70
0
  0
VERTEX
  8
CUT
 10
18.1277
 20
76.9443
 30
0.0
 70
0
  0
VERTEX
  8
CUT
 10
18.0167
 20
77.0443
 30
0.0
 70
0
  0
VERTEX
  8
CUT
 10
17.9056
 20
77.1442
 30
0.0
 70
0
  0
VERTEX
  8
CUT
 10
17.7918
 20
77.2441
 30
0.0
 70
0
  0
VERTEX
  8
CUT
 10
17.678
 20
77.3413
 30
0.0
 70
0
  0
VERTEX
  8
CUT
 10
17.5614
 20
77.4385
 30
0.0
 70
0
  0
VERTEX
  8
CUT
 10
17.4448
 20
77.5329
 30
0.0
 70
0
  0
VERTEX
  8
CUT
 10
17.4448
 20
82.0
 30
0.0
 70
0
  0
SEQEND
  8
CUT
  0
POLYLINE
  8
CUT
 66
1
 10
0.0
 20
0.0
 30
0.0
 70
1
  0
VERTEX
  8
CUT
 10
27.5552
 20
82.0
 30
0.0
 70
0
  0
VERTEX
  8
CUT
 10
27.5552
 20
77.5329
 30
0.0
 70
0
  0
VERTEX
  8
CUT
 10
27.4386
 20
77.4385
 30
0.0
 70
0
  0
VERTEX
  8
CUT
 10
27.322
 20
77.3413
 30
0.0
 70
0
  0
VERTEX
  8
CUT
 10
27.2082
 20
77.2441
 30
0.0
 70
0
  0
VERTEX
  8
CUT
 10
27.0944
 20
77.1442
 30
0.0
 70
0
  0
VERTEX
  8
CUT
 10
26.9833
 20
77.0443
 30
0.0
 70
0
  0
VERTEX
  8
CUT
 10
26.8723
 20
76.9443
 30
0.0
 70
0
  0
VERTEX
  8
CUT
 10
26.7613
 20
76.8416
 30
0.0
 70
0
  0
VERTEX
  8
CUT
 10
26.6502
 20
76.7417
 30
0.0
 70
0
  0
VERTEX
  8
CUT
 10
26.6502
 20
82.0
 30
0.0
 70
0
  0
SEQEND
  8
CUT
  0
POLYLINE
  8
CUT
 66
1
 10
0.0
 20
0.0
 30
0.0
 70
1
  0
VERTEX
  8
CUT
 10
37.7822
 20
64.1941
 30
0.0
 70
0
  0
VERTEX
  8
CUT
 10
36.8911
 20
64.6744
 30
0.0
 70
0
  0
VERTEX
  8
CUT
 10
35.9695
 20
65.0991
 30
0.0
 70
0
  0
VERTEX
  8
CUT
 10
35.02
 20
65.4684
 30
0.0
 70
0
  0
VERTEX
  8
CUT
 10
34.0429
 20
65.7793
 30
0.0
 70
0
  0
VERTEX
  8
CUT
 10
33.0407
 20
66.0319
 30
0.0
 70
0
  0
VERTEX
  8
CUT
 10
32.0163
 20
66.2234
 30
0.0
 70
0
  0
VERTEX
  8
CUT
 10
30.9698
 20
66.3484
 30
0.0
 70
0
  0
VERTEX
  8
CUT
 10
29.9038
 20
66.4067
 30
0.0
 70
0
  0
VERTEX
  8
CUT
 10
30.3091
 20
67.7364
 30
0.0
 70
0
  0
VERTEX
  8
CUT
 10
30.9226
 20
68.9606
 30
0.0
 70
0
  0
VERTEX
  8
CUT
 10
31.7221
 20
70.0572
 30
0.0
 70
0
  0
VERTEX
  8
CUT
 10
32.6854
 20
71.0094
 30
0.0
 70
0
  0
VERTEX
  8
CUT
 10
33.7958
 20
71.795
 30
0.0
 70
0
  0
VERTEX
  8
CUT
 10
35.0284
 20
72.3919
 30
0.0
 70
0
  0
VERTEX
  8
CUT
 10
36.3637
 20
72.7805
 30
0.0
 70
0
  0
VERTEX
  8
CUT
 10
37.7822
 20
72.9387
 30
0.0
 70
0
  0
SEQEND
  8
CUT
  0
POLYLINE
  8
CUT
 66
1
 10
0.0
 20
0.0
 30
0.0
 70
1
  0
VERTEX
  8
CUT
 10
60.0962
 20
66.4067
 30
0.0
 70
0
  0
VERTEX
  8
CUT
 10
59.0302
 20
66.3484
 30
0.0
 70
0
  0
VERTEX
  8
CUT
 10
57.9837
 20
66.2234
 30
0.0
 70
0
  0
VERTEX
  8
CUT
 10
56.9593
 20
66.0319
 30
0.0
 70
0
  0
VERTEX
  8
CUT
 10
55.9571
 20
65.7793
 30
0.0
 70
0
  0
VERTEX
  8
CUT
 10
54.98
 20
65.4684
 30
0.0
 70
0
  0
VERTEX
  8
CUT
 10
54.0305
 20
65.0991
 30
0.0
 70
0
  0
VERTEX
  8
CUT
 10
53.1089
 20
64.6744
 30
0.0
 70
0
  0
VERTEX
  8
CUT
 10
52.2178
 20
64.1941
 30
0.0
 70
0
  0
VERTEX
  8
CUT
 10
52.2178
 20
72.9387
 30
0.0
 70
0
  0
VERTEX
  8
CUT
 10
53.6363
 20
72.7805
 30
0.0
 70
0
  0
VERTEX
  8
CUT
 10
54.9716
 20
72.3919
 30
0.0
 70
0
  0
VERTEX
  8
CUT
 10
56.2042
 20
71.795
 30
0.0
 70
0
  0
VERTEX
  8
CUT
 10
57.3146
 20
71.0094
 30
0.0
 70
0
  0
VERTEX
  8
CUT
 10
58.2779
 20
70.0572
 30
0.0
 70
0
  0
VERTEX
  8
CUT
 10
59.0774
 20
68.9606
 30
0.0
 70
0
  0
VERTEX
  8
CUT
 10
59.6909
 20
67.7364
 30
0.0
 70
0
  0
SEQEND
  8
CUT
  0
POLYLINE
  8
CUT
 66
1
 10
0.0
 20
0.0
 30
0.0
 70
1
  0
VERTEX
  8
CUT
 10
46.9849
 20
59.4304
 30
0.0
 70
0
  0
VERTEX
  8
CUT
 10
46.8655
 20
59.2583
 30
0.0
 70
0
  0
VERTEX
  8
CUT
 10
46.7461
 20
59.0834
 30
0.0
 70
0
  0
VERTEX
  8
CUT
 10
46.6295
 20
58.9113
 30
0.0
 70
0
  0
VERTEX
  8
CUT
 10
46.5157
 20
58.7336
 30
0.0
 70
0
  0
VERTEX
  8
CUT
 10
46.4047
 20
58.556
 30
0.0
 70
0
  0
VERTEX
  8
CUT
 10
46.2964
 20
58.3783
 30
0.0
 70
0
  0
VERTEX
  8
CUT
 10
46.1882
 20
58.1978
 30
0.0
 70
0
  0
VERTEX
  8
CUT
 10
46.0827
 20
58.0146
 30
0.0
 70
0
  0
VERTEX
  8
CUT
 10
46.0827
 20
79.4986
 30
0.0
 70
0
  0
VERTEX
  8
CUT
 10
46.3338
 20
82.0
 30
0.0
 70
0
  0
VERTEX
  8
CUT
 10
47.2376
 20
82.0
 30
0.0
 70
0
  0
VERTEX
  8
CUT
 10
46.9849
 20
79.4986
 30
0.0
 70
0
  0
SEQEND
  8
CUT
  0
POLYLINE
  8
CUT
 66
1
 10
0.0
 20
0.0
 30
0.0
 70
1
  0
VERTEX
  8
CUT
 10
43.9173
 20
58.0146
 30
0.0
 70
0
  0
VERTEX
  8
CUT
 10
43.8118
 20
58.1978
 30
0.0
 70
0
  0
VERTEX
  8
CUT
 10
43.7036
 20
58.3783
 30
0.0
 70
0
  0
VERTEX
  8
CUT
 10
43.5953
 20
58.556
 30
0.0
 70
0
  0
VERTEX
  8
CUT
 10
43.4843
 20
58.7336
 30
0.0
 70
0
  0
VERTEX
  8
CUT
 10
43.3705
 20
58.9113
 30
0.0
 70
0
  0
VERTEX
  8
CUT
 10
43.2539
 20
59.0834
 30
0.0
 70
0
  0
VERTEX
  8
CUT
 10
43.1345
 20
59.2583
 30
0.0
 70
0
  0
VERTEX
  8
CUT
 10
43.0151
 20
59.4304
 30
0.0
 70
0
  0
VERTEX
  8
CUT
 10
43.0151
 20
79.4986
 30
0.0
 70
0
  0
VERTEX
  8
CUT
 10
42.7624
 20
82.0
 30
0.0
 70
0
  0
VERTEX
  8
CUT
 10
43.6662
 20
82.0
 30
0.0
 70
0
  0
VERTEX
  8
CUT
 10
43.9173
 20
79.4986
 30
0.0
 70
0
  0
SEQEND
  8
CUT
  0
POLYLINE
  8
CUT
 66
1
 10
0.0
 20
0.0
 30
0.0
 70
1
  0
VERTEX
  8
CUT
 10
40.8498
 20
61.9122
 30
0.0
 70
0
  0
VERTEX
  8
CUT
 10
40.7387
 20
62.0122
 30
0.0
 70
0
  0
VERTEX
  8
CUT
 10
40.6277
 20
62.1149
 30
0.0
 70
0
  0
VERTEX
  8
CUT
 10
40.5167
 20
62.2148
 30
0.0
 70
0
  0
VERTEX
  8
CUT
 10
40.4056
 20
62.3147
 30
0.0
 70
0
  0
VERTEX
  8
CUT
 10
40.2918
 20
62.4147
 30
0.0
 70
0
  0
VERTEX
  8
CUT
 10
40.178
 20
62.5118
 30
0.0
 70
0
  0
VERTEX
  8
CUT
 10
40.0614
 20
62.609
 30
0.0
 70
0
  0
VERTEX
  8
CUT
 10
39.9448
 20
62.7034
 30
0.0
 70
0
  0
VERTEX
  8
CUT
 10
39.9448
 20
79.4986
 30
0.0
 70
0
  0
VERTEX
  8
CUT
 10
39.7394
 20
81.5751
 30
0.0
 70
0
  0
VERTEX
  8
CUT
 10
39.6085
 20
82.0
 30
0.0
 70
0
  0
VERTEX
  8
CUT
 10
40.5496
 20
82.0
 30
0.0
 70
0
  0
VERTEX
  8
CUT
 10
40.6249
 20
81.7555
 30
0.0
 70
0
  0
VERTEX
  8
CUT
 10
40.8498
 20
79.4986
 30
0.0
 70
0
  0
SEQEND
  8
CUT
  0
POLYLINE
  8
CUT
 66
1
 10
0.0
 20
0.0
 30
0.0
 70
1
  0
VERTEX
  8
CUT
 10
50.0552
 20
62.7034
 30
0.0
 70
0
  0
VERTEX
  8
CUT
 10
49.9386
 20
62.609
 30
0.0
 70
0
  0
VERTEX
  8
CUT
 10
49.822
 20
62.5118
 30
0.0
 70
0
  0
VERTEX
  8
CUT
 10
49.7082
 20
62.4147
 30
0.0
 70
0
  0
VERTEX
  8
CUT
 10
49.5944
 20
62.3147
 30
0.0
 70
0
  0
VERTEX
  8
CUT
 10
49.4833
 20
62.2148
 30
0.0
 70
0
  0
VERTEX
  8
CUT
 10
49.3723
 20
62.1149
 30
0.0
 70
0
  0
VERTEX
  8
CUT
 10
49.2613
 20
62.0122
 30
0.0
 70
0
  0
VERTEX
  8
CUT
 10
49.1502
 20
61.9122
 30
0.0
 70
0
  0
VERTEX
  8
CUT
 10
49.1502
 20
79.4986
 30
0.0
 70
0
  0
VERTEX
  8
CUT
 10
49.3751
 20
81.7555
 30
0.0
 70
0
  0
VERTEX
  8
CUT
 10
49.4504
 20
82.0
 30
0.0
 70
0
  0
VERTEX
  8
CUT
 10
50.3915
 20
82.0
 30
0.0
 70
0
  0
VERTEX
  8
CUT
 10
50.2606
 20
81.5751
 30
0.0
 70
0
  0
VERTEX
  8
CUT
 10
50.0552
 20
79.4986
 30
0.0
 70
0
  0
SEQEND
  8
CUT
  0
POLYLINE
  8
CUT
 66
1
 10
0.0
 20
0.0
 30
0.0
 70
1
  0
VERTEX
  8
CUT
 10
60.2822
 20
49.3647
 30
0.0
 70
0
  0
VERTEX
  8
CUT
 10
59.3911
 20
49.8449
 30
0.0
 70
0
  0
VERTEX
  8
CUT
 10
58.4695
 20
50.2697
 30
0.0
 70
0
  0
VERTEX
  8
CUT
 10
57.52
 20
50.6389
 30
0.0
 70
0
  0
VERTEX
  8
CUT
 10
56.5429
 20
50.9498
 30
0.0
 70
0
  0
VERTEX
  8
CUT
 10
55.5407
 20
51.2024
 30
0.0
 70
0
  0
VERTEX
  8
CUT
 10
54.5163
 20
51.394
 30
0.0
 70
0
  0
VERTEX
  8
CUT
 10
53.4698
 20
51.5189
 30
0.0
 70
0
  0
VERTEX
  8
CUT
 10
52.4038
 20
51.5772
 30
0.0
 70
0
  0
VERTEX
  8
CUT
 10
52.8091
 20
52.9069
 30
0.0
 70
0
  0
VERTEX
  8
CUT
 10
53.4226
 20
54.1312
 30
0.0
 70
0
  0
VERTEX
  8
CUT
 10
54.2221
 20
55.2277
 30
0.0
 70
0
  0
VERTEX
  8
CUT
 10
55.1854
 20
56.1799
 30
0.0
 70
0
  0
VERTEX
  8
CUT
 10
56.2958
 20
56.9655
 30
0.0
 70
0
  0
VERTEX
  8
CUT
 10
57.5284
 20
57.5624
 30
0.0
 70
0
  0
VERTEX
  8
CUT
 10
58.8637
 20
57.951
 30
0.0
 70
0
  0
VERTEX
  8
CUT
 10
60.2822
 20
58.1093
 30
0.0
 70
0
  0
SEQEND
  8
CUT
  0
POLYLINE
  8
CUT
 66
1
 10
0.0
 20
0.0
 30
0.0
 70
1
  0
VERTEX
  8
CUT
 10
82.5962
 20
51.5772
 30
0.0
 70
0
  0
VERTEX
  8
CUT
 10
81.5302
 20
51.5189
 30
0.0
 70
0
  0
VERTEX
  8
CUT
 10
80.4837
 20
51.394
 30
0.0
 70
0
  0
VERTEX
  8
CUT
 10
79.4593
 20
51.2024
 30
0.0
 70
0
  0
VERTEX
  8
CUT
 10
78.4571
 20
50.9498
 30
0.0
 70
0
  0
VERTEX
  8
CUT
 10
77.48
 20
50.6389
 30
0.0
 70
0
  0
VERTEX
  8
CUT
 10
76.5305
 20
50.2697
 30
0.0
 70
0
  0
VERTEX
  8
CUT
 10
75.6089
 20
49.8449
 30
0.0
 70
0
  0
VERTEX
  8
CUT
 10
74.7178
 20
49.3647
 30
0.0
 70
0
  0
VERTEX
  8
CUT
 10
74.7178
 20
58.1093
 30
0.0
 70
0
  0
VERTEX
  8
CUT
 10
76.1363
 20
57.951
 30
0.0
 70
0
  0
VERTEX
  8
CUT
 10
77.4716
 20
57.5624
 30
0.0
 70
0
  0
VERTEX
  8
CUT
 10
78.7042
 20
56.9655
 30
0.0
 70
0
  0
VERTEX
  8
CUT
 10
79.8146
 20
56.1799
 30
0.0
 70
0
  0
VERTEX
  8
CUT
 10
80.7779
 20
55.2277
 30
0.0
 70
0
  0
VERTEX
  8
CUT
 10
81.5774
 20
54.1312
 30
0.0
 70
0
  0
VERTEX
  8
CUT
 10
82.1909
 20
52.9069
 30
0.0
 70
0
  0
SEQEND
  8
CUT
  0
POLYLINE
  8
CUT
 66
1
 10
0.0
 20
0.0
 30
0.0
 70
1
  0
VERTEX
  8
CUT
 10
69.4849
 20
44.601
 30
0.0
 70
0
  0
VERTEX
  8
CUT
 10
69.3655
 20
44.4288
 30
0.0
 70
0
  0
VERTEX
  8
CUT
 10
69.2461
 20
44.2539
 30
0.0
 70
0
  0
VERTEX
  8
CUT
 10
69.1295
 20
44.0818
 30
0.0
 70
0
  0
VERTEX
  8
CUT
 10
69.0157
 20
43.9042
 30
0.0
 70
0
  0
VERTEX
  8
CUT
 10
68.9047
 20
43.7265
 30
0.0
 70
0
  0
VERTEX
  8
CUT
 10
68.7964
 20
43.5488
 30
0.0
 70
0
  0
VERTEX
  8
CUT
 10
68.6882
 20
43.3684
 30
0.0
 70
0
  0
VERTEX
  8
CUT
 10
68.5827
 20
43.1852
 30
0.0
 70
0
  0
VERTEX
  8
CUT
 10
68.5827
 20
64.6691
 30
0.0
 70
0
  0
VERTEX
  8
CUT
 10
68.8714
 20
67.5451
 30
0.0
 70
0
  0
VERTEX
  8
CUT
 10
69.6959
 20
70.2268
 30
0.0
 70
0
  0
VERTEX
  8
CUT
 10
71.0062
 20
72.6586
 30
0.0
 70
0
  0
VERTEX
  8
CUT
 10
72.7384
 20
74.7823
 30
0.0
 70
0
  0
VERTEX
  8
CUT
 10
74.8399
 20
76.5451
 30
0.0
 70
0
  0
VERTEX
  8
CUT
 10
77.2523
 20
77.8832
 30
0.0
 70
0
  0
VERTEX
  8
CUT
 10
79.9173
 20
78.7465
 30
0.0
 70
0
  0
VERTEX
  8
CUT
 10
82.7822
 20
79.0769
 30
0.0
 70
0
  0
VERTEX
  8
CUT
 10
82.7822
 20
78.1719
 30
0.0
 70
0
  0
VERTEX
  8
CUT
 10
80.1006
 20
77.861
 30
0.0
 70
0
  0
VERTEX
  8
CUT
 10
77.6021
 20
77.0531
 30
0.0
 70
0
  0
VERTEX
  8
CUT
 10
75.3452
 20
75.7956
 30
0.0
 70
0
  0
VERTEX
  8
CUT
 10
73.3769
 20
74.1438
 30
0.0
 70
0
  0
VERTEX
  8
CUT
 10
71.7557
 20
72.1534
 30
0.0
 70
0
  0
VERTEX
  8
CUT
 10
70.5287
 20
69.8742
 30
0.0
 70
0
  0
VERTEX
  8
CUT
 10
69.7569
 20
67.3619
 30
0.0
 70
0
  0
VERTEX
  8
CUT
 10
69.4849
 20
64.6691
 30
0.0
 70
0
  0
SEQEND
  8
CUT
  0
POLYLINE
  8
CUT
 66
1
 10
0.0
 20
0.0
 30
0.0
 70
1
  0
VERTEX
  8
CUT
 10
66.4173
 20
43.1852
 30
0.0
 70
0
  0
VERTEX
  8
CUT
 10
66.3118
 20
43.3684
 30
0.0
 70
0
  0
VERTEX
  8
CUT
 10
66.2036
 20
43.5488
 30
0.0
 70
0
  0
VERTEX
  8
CUT
 10
66.0953
 20
43.7265
 30
0.0
 70
0
  0
VERTEX
  8
CUT
 10
65.9843
 20
43.9042
 30
0.0
 70
0
  0
VERTEX
  8
CUT
 10
65.8705
 20
44.0818
 30
0.0
 70
0
  0
VERTEX
  8
CUT
 10
65.7539
 20
44.2539
 30
0.0
 70
0
  0
VERTEX
  8
CUT
 10
65.6345
 20
44.4288
 30
0.0
 70
0
  0
VERTEX
  8
CUT
 10
65.5151
 20
44.601
 30
0.0
 70
0
  0
VERTEX
  8
CUT
 10
65.5151
 20
64.6691
 30
0.0
 70
0
  0
VERTEX
  8
CUT
 10
65.2431
 20
67.3619
 30
0.0
 70
0
  0
VERTEX
  8
CUT
 10
64.4713
 20
69.8742
 30
0.0
 70
0
  0
VERTEX
  8
CUT
 10
63.2443
 20
72.1534
 30
0.0
 70
0
  0
VERTEX
  8
CUT
 10
61.6231
 20
74.1438
 30
0.0
 70
0
  0
VERTEX
  8
CUT
 10
59.6548
 20
75.7956
 30
0.0
 70
0
  0
VERTEX
  8
CUT
 10
57.3979
 20
77.0531
 30
0.0
 70
0
  0
VERTEX
  8
CUT
 10
54.8994
 20
77.861
 30
0.0
 70
0
  0
VERTEX
  8
CUT
 10
52.2178
 20
78.1719
 30
0.0
 70
0
  0
VERTEX
  8
CUT
 10
52.2178
 20
79.0769
 30
0.0
 70
0
  0
VERTEX
  8
CUT
 10
55.0827
 20
78.7465
 30
0.0
 70
0
  0
VERTEX
  8
CUT
 10
57.7477
 20
77.8832
 30
0.0
 70
0
  0
VERTEX
  8
CUT
 10
60.1601
 20
76.5451
 30
0.0
 70
0
  0
VERTEX
  8
CUT
 10
62.2616
 20
74.7823
 30
0.0
 70
0
  0
VERTEX
  8
CUT
 10
63.9938
 20
72.6586
 30
0.0
 70
0
  0
VERTEX
  8
CUT
 10
65.3041
 20
70.2268
 30
0.0
 70
0
  0
VERTEX
  8
CUT
 10
66.1286
 20
67.5451
 30
0.0
 70
0
  0
VERTEX
  8
CUT
 10
66.4173
 20
64.6691
 30
0.0
 70
0
  0
SEQEND
  8
CUT
  0
POLYLINE
  8
CUT
 66
1
 10
0.0
 20
0.0
 30
0.0
 70
1
  0
VERTEX
  8
CUT
 10
63.3498
 20
47.0828
 30
0.0
 70
0
  0
VERTEX
  8
CUT
 10
63.2387
 20
47.1827
 30
0.0
 70
0
  0
VERTEX
  8
CUT
 10
63.1277
 20
47.2854
 30
0.0
 70
0
  0
VERTEX
  8
CUT
 10
63.0167
 20
47.3853
 30
0.0
 70
0
  0
VERTEX
  8
CUT
 10
62.9056
 20
47.4853
 30
0.0
 70
0
  0
VERTEX
  8
CUT
 10
62.7918
 20
47.5852
 30
0.0
 70
0
  0
VERTEX
  8
CUT
 10
62.678
 20
47.6824
 30
0.0
 70
0
  0
VERTEX
  8
CUT
 10
62.5614
 20
47.7795
 30
0.0
 70
0
  0
VERTEX
  8
CUT
 10
62.4448
 20
47.8739
 30
0.0
 70
0
  0
VERTEX
  8
CUT
 10
62.4448
 20
64.6691
 30
0.0
 70
0
  0
VERTEX
  8
CUT
 10
62.2394
 20
66.7456
 30
0.0
 70
0
  0
VERTEX
  8
CUT
 10
61.6425
 20
68.6833
 30
0.0
 70
0
  0
VERTEX
  8
CUT
 10
60.7014
 20
70.4406
 30
0.0
 70
0
  0
VERTEX
  8
CUT
 10
59.455
 20
71.9757
 30
0.0
 70
0
  0
VERTEX
  8
CUT
 10
57.942
 20
73.2527
 30
0.0
 70
0
  0
VERTEX
  8
CUT
 10
56.2042
 20
74.2243
 30
0.0
 70
0
  0
VERTEX
  8
CUT
 10
54.2832
 20
74.8573
 30
0.0
 70
0
  0
VERTEX
  8
CUT
 10
52.2178
 20
75.1043
 30
0.0
 70
0
  0
VERTEX
  8
CUT
 10
52.2178
 20
76.0093
 30
0.0
 70
0
  0
VERTEX
  8
CUT
 10
54.4636
 20
75.7428
 30
0.0
 70
0
  0
VERTEX
  8
CUT
 10
56.554
 20
75.0572
 30
0.0
 70
0
  0
VERTEX
  8
CUT
 10
58.4473
 20
73.9995
 30
0.0
 70
0
  0
VERTEX
  8
CUT
 10
60.0935
 20
72.6142
 30
0.0
 70
0
  0
VERTEX
  8
CUT
 10
61.451
 20
70.943
 30
0.0
 70
0
  0
VERTEX
  8
CUT
 10
62.4753
 20
69.0331
 30
0.0
 70
0
  0
VERTEX
  8
CUT
 10
63.1249
 20
66.9261
 30
0.0
 70
0
  0
VERTEX
  8
CUT
 10
63.3498
 20
64.6691
 30
0.0
 70
0
  0
SEQEND
  8
CUT
  0
POLYLINE
  8
CUT
 66
1
 10
0.0
 20
0.0
 30
0.0
 70
1
  0
VERTEX
  8
CUT
 10
72.5552
 20
47.8739
 30
0.0
 70
0
  0
VERTEX
  8
CUT
 10
72.4386
 20
47.7795
 30
0.0
 70
0
  0
VERTEX
  8
CUT
 10
72.322
 20
47.6824
 30
0.0
 70
0
  0
VERTEX
  8
CUT
 10
72.2082
 20
47.5852
 30
0.0
 70
0
  0
VERTEX
  8
CUT
 10
72.0944
 20
47.4853
 30
0.0
 70
0
  0
VERTEX
  8
CUT
 10
71.9833
 20
47.3853
 30
0.0
 70
0
  0
VERTEX
  8
CUT
 10
71.8723
 20
47.2854
 30
0.0
 70
0
  0
VERTEX
  8
CUT
 10
71.7613
 20
47.1827
 30
0.0
 70
0
  0
VERTEX
  8
CUT
 10
71.6502
 20
47.0828
 30
0.0
 70
0
  0
VERTEX
  8
CUT
 10
71.6502
 20
64.6691
 30
0.0
 70
0
  0
VERTEX
  8
CUT
 10
71.8751
 20
66.9261
 30
0.0
 70
0
  0
VERTEX
  8
CUT
 10
72.5247
 20
69.0331
 30
0.0
 70
0
  0
VERTEX
  8
CUT
 10
73.549
 20
70.943
 30
0.0
 70
0
  0
VERTEX
  8
CUT
 10
74.9065
 20
72.6142
 30
0.0
 70
0
  0
VERTEX
  8
CUT
 10
76.5527
 20
73.9995
 30
0.0
 70
0
  0
VERTEX
  8
CUT
 10
78.446
 20
75.0572
 30
0.0
 70
0
  0
VERTEX
  8
CUT
 10
80.5364
 20
75.7428
 30
0.0
 70
0
  0
VERTEX
  8
CUT
 10
82.7822
 20
76.0093
 30
0.0
 70
0
  0
VERTEX
  8
CUT
 10
82.7822
 20
75.1043
 30
0.0
 70
0
  0
VERTEX
  8
CUT
 10
80.7168
 20
74.8573
 30
0.0
 70
0
  0
VERTEX
  8
CUT
 10
78.7958
 20
74.2243
 30
0.0
 70
0
  0
VERTEX
  8
CUT
 10
77.058
 20
73.2527
 30
0.0
 70
0
  0
VERTEX
  8
CUT
 10
75.545
 20
71.9757
 30
0.0
 70
0
  0
VERTEX
  8
CUT
 10
74.2986
 20
70.4406
 30
0.0
 70
0
  0
VERTEX
  8
CUT
 10
73.3575
 20
68.6833
 30
0.0
 70
0
  0
VERTEX
  8
CUT
 10
72.7606
 20
66.7456
 30
0.0
 70
0
  0
VERTEX
  8
CUT
 10
72.5552
 20
64.6691
 30
0.0
 70
0
  0
SEQEND
  8
CUT
  0
POLYLINE
  8
CUT
 66
1
 10
0.0
 20
0.0
 30
0.0
 70
1
  0
VERTEX
  8
CUT
 10
82.7822
 20
34.5352
 30
0.0
 70
0
  0
VERTEX
  8
CUT
 10
81.8911
 20
35.0155
 30
0.0
 70
0
  0
VERTEX
  8
CUT
 10
80.9695
 20
35.4402
 30
0.0
 70
0
  0
VERTEX
  8
CUT
 10
80.02
 20
35.8094
 30
0.0
 70
0
  0
VERTEX
  8
CUT
 10
79.0429
 20
36.1204
 30
0.0
 70
0
  0
VERTEX
  8
CUT
 10
78.0407
 20
36.373
 30
0.0
 70
0
  0
VERTEX
  8
CUT
 10
77.0163
 20
36.5645
 30
0.0
 70
0
  0
VERTEX
  8
CUT
 10
75.9698
 20
36.6895
 30
0.0
 70
0
  0
VERTEX
  8
CUT
 10
74.9038
 20
36.7477
 30
0.0
 70
0
  0
VERTEX
  8
CUT
 10
75.3091
 20
38.0775
 30
0.0
 70
0
  0
VERTEX
  8
CUT
 10
75.9226
 20
39.3017
 30
0.0
 70
0
  0
VERTEX
  8
CUT
 10
76.7221
 20
40.3983
 30
0.0
 70
0
  0
VERTEX
  8
CUT
 10
77.6854
 20
41.3505
 30
0.0
 70
0
  0
VERTEX
  8
CUT
 10
78.7958
 20
42.1361
 30
0.0
 70
0
  0
VERTEX
  8
CUT
 10
80.0284
 20
42.7329
 30
0.0
 70
0
  0
VERTEX
  8
CUT
 10
81.3637
 20
43.1216
 30
0.0
 70
0
  0
VERTEX
  8
CUT
 10
82.7822
 20
43.2798
 30
0.0
 70
0
  0
SEQEND
  8
CUT
  0
POLYLINE
  8
CUT
 66
1
 10
0.0
 20
0.0
 30
0.0
 70
1
  0
VERTEX
  8
CUT
 10
105.0962
 20
36.7477
 30
0.0
 70
0
  0
VERTEX
  8
CUT
 10
104.0302
 20
36.6895
 30
0.0
 70
0
  0
VERTEX
  8
CUT
 10
102.9837
 20
36.5645
 30
0.0
 70
0
  0
VERTEX
  8
CUT
 10
101.9593
 20
36.373
 30
0.0
 70
0
  0
VERTEX
  8
CUT
 10
100.9571
 20
36.1204
 30
0.0
 70
0
  0
VERTEX
  8
CUT
 10
99.98
 20
35.8094
 30
0.0
 70
0
  0
VERTEX
  8
CUT
 10
99.0305
 20
35.4402
 30
0.0
 70
0
  0
VERTEX
  8
CUT
 10
98.1089
 20
35.0155
 30
0.0
 70
0
  0
VERTEX
  8
CUT
 10
97.2178
 20
34.5352
 30
0.0
 70
0
  0
VERTEX
  8
CUT
 10
97.2178
 20
43.2798
 30
0.0
 70
0
  0
VERTEX
  8
CUT
 10
98.6363
 20
43.1216
 30
0.0
 70
0
  0
VERTEX
  8
CUT
 10
99.9716
 20
42.7329
 30
0.0
 70
0
  0
VERTEX
  8
CUT
 10
101.2042
 20
42.1361
 30
0.0
 70
0
  0
VERTEX
  8
CUT
 10
102.3146
 20
41.3505
 30
0.0
 70
0
  0
VERTEX
  8
CUT
 10
103.2779
 20
40.3983
 30
0.0
 70
0
  0
VERTEX
  8
CUT
 10
104.0774
 20
39.3017
 30
0.0
 70
0
  0
VERTEX
  8
CUT
 10
104.6909
 20
38.0775
 30
0.0
 70
0
  0
SEQEND
  8
CUT
  0
POLYLINE
  8
CUT
 66
1
 10
0.0
 20
0.0
 30
0.0
 70
1
  0
VERTEX
  8
CUT
 10
91.9849
 20
29.7715
 30
0.0
 70
0
  0
VERTEX
  8
CUT
 10
91.8655
 20
29.5994
 30
0.0
 70
0
  0
VERTEX
  8
CUT
 10
91.7461
 20
29.4245
 30
0.0
 70
0
  0
VERTEX
  8
CUT
 10
91.6295
 20
29.2524
 30
0.0
 70
0
  0
VERTEX
  8
CUT
 10
91.5157
 20
29.0747
 30
0.0
 70
0
  0
VERTEX
  8
CUT
 10
91.4047
 20
28.897
 30
0.0
 70
0
  0
VERTEX
  8
CUT
 10
91.2964
 20
28.7194
 30
0.0
 70
0
  0
VERTEX
  8
CUT
 10
91.1882
 20
28.5389
 30
0.0
 70
0
  0
VERTEX
  8
CUT
 10
91.0827
 20
28.3557
 30
0.0
 70
0
  0
VERTEX
  8
CUT
 10
91.0827
 20
49.8397
 30
0.0
 70
0
  0
VERTEX
  8
CUT
 10
91.3714
 20
52.7157
 30
0.0
 70
0
  0
VERTEX
  8
CUT
 10
92.1959
 20
55.3973
 30
0.0
 70
0
  0
VERTEX
  8
CUT
 10
93.5062
 20
57.8292
 30
0.0
 70
0
  0
VERTEX
  8
CUT
 10
95.2384
 20
59.9529
 30
0.0
 70
0
  0
VERTEX
  8
CUT
 10
97.3399
 20
61.7157
 30
0.0
 70
0
  0
VERTEX
  8
CUT
 10
99.7523
 20
63.0537
 30
0.0
 70
0
  0
VERTEX
  8
CUT
 10
102.4173
 20
63.9171
 30
0.0
 70
0
  0
VERTEX
  8
CUT
 10
105.2822
 20
64.2474
 30
0.0
 70
0
  0
VERTEX
  8
CUT
 10
105.2822
 20
63.3424
 30
0.0
 70
0
  0
VERTEX
  8
CUT
 10
102.6006
 20
63.0315
 30
0.0
 70
0
  0
VERTEX
  8
CUT
 10
100.1021
 20
62.2237
 30
0.0
 70
0
  0
VERTEX
  8
CUT
 10
97.8452
 20
60.9661
 30
0.0
 70
0
  0
VERTEX
  8
CUT
 10
95.8769
 20
59.3144
 30
0.0
 70
0
  0
VERTEX
  8
CUT
 10
94.2557
 20
57.3239
 30
0.0
 70
0
  0
VERTEX
  8
CUT
 10
93.0287
 20
55.0448
 30
0.0
 70
0
  0
VERTEX
  8
CUT
 10
92.2569
 20
52.5324
 30
0.0
 70
0
  0
VERTEX
  8
CUT
 10
91.9849
 20
49.8397
 30
0.0
 70
0
  0
SEQEND
  8
CUT
  0
POLYLINE
  8
CUT
 66
1
 10
0.0
 20
0.0
 30
0.0
 70
1
  0
VERTEX
  8
CUT
 10
88.9173
 20
28.3557
 30
0.0
 70
0
  0
VERTEX
  8
CUT
 10
88.8118
 20
28.5389
 30
0.0
 70
0
  0
VERTEX
  8
CUT
 10
88.7036
 20
28.7194
 30
0.0
 70
0
  0
VERTEX
  8
CUT
 10
88.5953
 20
28.897
 30
0.0
 70
0
  0
VERTEX
  8
CUT
 10
88.4843
 20
29.0747
 30
0.0
 70
0
  0
VERTEX
  8
CUT
 10
88.3705
 20
29.2524
 30
0.0
 70
0
  0
VERTEX
  8
CUT
 10
88.2539
 20
29.4245
 30
0.0
 70
0
  0
VERTEX
  8
CUT
 10
88.1345
 20
29.5994
 30
0.0
 70
0
  0
VERTEX
  8
CUT
 10
88.0151
 20
29.7715
 30
0.0
 70
0
  0
VERTEX
  8
CUT
 10
88.0151
 20
49.8397
 30
0.0
 70
0
  0
VERTEX
  8
CUT
 10
87.7431
 20
52.5324
 30
0.0
 70
0
  0
VERTEX
  8
CUT
 10
86.9713
 20
55.0448
 30
0.0
 70
0
  0
VERTEX
  8
CUT
 10
85.7443
 20
57.3239
 30
0.0
 70
0
  0
VERTEX
  8
CUT
 10
84.1231
 20
59.3144
 30
0.0
 70
0
  0
VERTEX
  8
CUT
 10
82.1548
 20
60.9661
 30
0.0
 70
0
  0
VERTEX
  8
CUT
 10
79.8979
 20
62.2237
 30
0.0
 70
0
  0
VERTEX
  8
CUT
 10
77.3994
 20
63.0315
 30
0.0
 70
0
  0
VERTEX
  8
CUT
 10
74.7178
 20
63.3424
 30
0.0
 70
0
  0
VERTEX
  8
CUT
 10
74.7178
 20
64.2474
 30
0.0
 70
0
  0
VERTEX
  8
CUT
 10
77.5827
 20
63.9171
 30
0.0
 70
0
  0
VERTEX
  8
CUT
 10
80.2477
 20
63.0537
 30
0.0
 70
0
  0
VERTEX
  8
CUT
 10
82.6601
 20
61.7157
 30
0.0
 70
0
  0
VERTEX
  8
CUT
 10
84.7616
 20
59.9529
 30
0.0
 70
0
  0
VERTEX
  8
CUT
 10
86.4938
 20
57.8292
 30
0.0
 70
0
  0
VERTEX
  8
CUT
 10
87.8041
 20
55.3973
 30
0.0
 70
0
  0
VERTEX
  8
CUT
 10
88.6286
 20
52.7157
 30
0.0
 70
0
  0
VERTEX
  8
CUT
 10
88.9173
 20
49.8397
 30
0.0
 70
0
  0
SEQEND
  8
CUT
  0
POLYLINE
  8
CUT
 66
1
 10
0.0
 20
0.0
 30
0.0
 70
1
  0
VERTEX
  8
CUT
 10
85.8498
 20
32.2533
 30
0.0
 70
0
  0
VERTEX
  8
CUT
 10
85.7387
 20
32.3532
 30
0.0
 70
0
  0
VERTEX
  8
CUT
 10
85.6277
 20
32.456
 30
0.0
 70
0
  0
VERTEX
  8
CUT
 10
85.5167
 20
32.5559
 30
0.0
 70
0
  0
VERTEX
  8
CUT
 10
85.4056
 20
32.6558
 30
0.0
 70
0
  0
VERTEX
  8
CUT
 10
85.2918
 20
32.7558
 30
0.0
 70
0
  0
VERTEX
  8
CUT
 10
85.178
 20
32.8529
 30
0.0
 70
0
  0
VERTEX
  8
CUT
 10
85.0614
 20
32.9501
 30
0.0
 70
0
  0
VERTEX
  8
CUT
 10
84.9448
 20
33.0445
 30
0.0
 70
0
  0
VERTEX
  8
CUT
 10
84.9448
 20
49.8397
 30
0.0
 70
0
  0
VERTEX
  8
CUT
 10
84.7394
 20
51.9162
 30
0.0
 70
0
  0
VERTEX
  8
CUT
 10
84.1425
 20
53.8539
 30
0.0
 70
0
  0
VERTEX
  8
CUT
 10
83.2014
 20
55.6111
 30
0.0
 70
0
  0
VERTEX
  8
CUT
 10
81.955
 20
57.1463
 30
0.0
 70
0
  0
VERTEX
  8
CUT
 10
80.442
 20
58.4233
 30
0.0
 70
0
  0
VERTEX
  8
CUT
 10
78.7042
 20
59.3949
 30
0.0
 70
0
  0
VERTEX
  8
CUT
 10
76.7832
 20
60.0278
 30
0.0
 70
0
  0
VERTEX
  8
CUT
 10
74.7178
 20
60.2749
 30
0.0
 70
0
  0
VERTEX
  8
CUT
 10
74.7178
 20
61.1799
 30
0.0
 70
0
  0
VERTEX
  8
CUT
 10
76.9636
 20
60.9134
 30
0.0
 70
0
  0
VERTEX
  8
CUT
 10
79.054
 20
60.2277
 30
0.0
 70
0
  0
VERTEX
  8
CUT
 10
80.9473
 20
59.17
 30
0.0
 70
0
  0
VERTEX
  8
CUT
 10
82.5935
 20
57.7848
 30
0.0
 70
0
  0
VERTEX
  8
CUT
 10
83.951
 20
56.1136
 30
0.0
 70
0
  0
VERTEX
  8
CUT
 10
84.9753
 20
54.2036
 30
0.0
 70
0
  0
VERTEX
  8
CUT
 10
85.6249
 20
52.0966
 30
0.0
 70
0
  0
VERTEX
  8
CUT
 10
85.8498
 20
49.8397
 30
0.0
 70
0
  0
SEQEND
  8
CUT
  0
POLYLINE
  8
CUT
 66
1
 10
0.0
 20
0.0
 30
0.0
 70
1
  0
VERTEX
  8
CUT
 10
95.0552
 20
33.0445
 30
0.0
 70
0
  0
VERTEX
  8
CUT
 10
94.9386
 20
32.9501
 30
0.0
 70
0
  0
VERTEX
  8
CUT
 10
94.822
 20
32.8529
 30
0.0
 70
0
  0
VERTEX
  8
CUT
 10
94.7082
 20
32.7558
 30
0.0
 70
0
  0
VERTEX
  8
CUT
 10
94.5944
 20
32.6558
 30
0.0
 70
0
  0
VERTEX
  8
CUT
 10
94.4833
 20
32.5559
 30
0.0
 70
0
  0
VERTEX
  8
CUT
 10
94.3723
 20
32.456
 30
0.0
 70
0
  0
VERTEX
  8
CUT
 10
94.2613
 20
32.3532
 30
0.0
 70
0
  0
VERTEX
  8
CUT
 10
94.1502
 20
32.2533
 30
0.0
 70
0
  0
VERTEX
  8
CUT
 10
94.1502
 20
49.8397
 30
0.0
 70
0
  0
VERTEX
  8
CUT
 10
94.3751
 20
52.0966
 30
0.0
 70
0
  0
VERTEX
  8
CUT
 10
95.0247
 20
54.2036
 30
0.0
 70
0
  0
VERTEX
  8
CUT
 10
96.049
 20
56.1136
 30
0.0
 70
0
  0
VERTEX
  8
CUT
 10
97.4065
 20
57.7848
 30
0.0
 70
0
  0
VERTEX
  8
CUT
 10
99.0527
 20
59.17
 30
0.0
 70
0
  0
VERTEX
  8
CUT
 10
100.946
 20
60.2277
 30
0.0
 70
0
  0
VERTEX
  8
CUT
 10
103.0364
 20
60.9134
 30
0.0
 70
0
  0
VERTEX
  8
CUT
 10
105.2822
 20
61.1799
 30
0.0
 70
0
  0
VERTEX
  8
CUT
 10
105.2822
 20
60.2749
 30
0.0
 70
0
  0
VERTEX
  8
CUT
 10
103.2168
 20
60.0278
 30
0.0
 70
0
  0
VERTEX
  8
CUT
 10
101.2958
 20
59.3949
 30
0.0
 70
0
  0
VERTEX
  8
CUT
 10
99.558
 20
58.4233
 30
0.0
 70
0
  0
VERTEX
  8
CUT
 10
98.045
 20
57.1463
 30
0.0
 70
0
  0
VERTEX
  8
CUT
 10
96.7986
 20
55.6111
 30
0.0
 70
0
  0
VERTEX
  8
CUT
 10
95.8575
 20
53.8539
 30
0.0
 70
0
  0
VERTEX
  8
CUT
 10
95.2606
 20
51.9162
 30
0.0
 70
0
  0
VERTEX
  8
CUT
 10
95.0552
 20
49.8397
 30
0.0
 70
0
  0
SEQEND
  8
CUT
  0
POLYLINE
  8
CUT
 66
1
 10
0.0
 20
0.0
 30
0.0
 70
1
  0
VERTEX
  8
CUT
 10
105.2822
 20
25.0
 30
0.0
 70
0
  0
VERTEX
  8
CUT
 10
98.8074
 20
25.0
 30
0.0
 70
0
  0
VERTEX
  8
CUT
 10
99.2221
 20
25.5688
 30
0.0
 70
0
  0
VERTEX
  8
CUT
 10
100.1854
 20
26.521
 30
0.0
 70
0
  0
VERTEX
  8
CUT
 10
101.2958
 20
27.3066
 30
0.0
 70
0
  0
VERTEX
  8
CUT
 10
102.5284
 20
27.9035
 30
0.0
 70
0
  0
VERTEX
  8
CUT
 10
103.8637
 20
28.2921
 30
0.0
 70
0
  0
VERTEX
  8
CUT
 10
105.2822
 20
28.4504
 30
0.0
 70
0
  0
SEQEND
  8
CUT
  0
POLYLINE
  8
CUT
 66
1
 10
0.0
 20
0.0
 30
0.0
 70
1
  0
VERTEX
  8
CUT
 10
119.7178
 20
25.0
 30
0.0
 70
0
  0
VERTEX
  8
CUT
 10
119.7178
 20
28.4504
 30
0.0
 70
0
  0
VERTEX
  8
CUT
 10
121.1363
 20
28.2921
 30
0.0
 70
0
  0
VERTEX
  8
CUT
 10
122.4716
 20
27.9035
 30
0.0
 70
0
  0
VERTEX
  8
CUT
 10
123.7042
 20
27.3066
 30
0.0
 70
0
  0
VERTEX
  8
CUT
 10
124.8146
 20
26.521
 30
0.0
 70
0
  0
VERTEX
  8
CUT
 10
125.7779
 20
25.5688
 30
0.0
 70
0
  0
VERTEX
  8
CUT
 10
126.1926
 20
25.0
 30
0.0
 70
0
  0
SEQEND
  8
CUT
  0
POLYLINE
  8
CUT
 66
1
 10
0.0
 20
0.0
 30
0.0
 70
1
  0
VERTEX
  8
CUT
 10
114.4849
 20
25.0
 30
0.0
 70
0
  0
VERTEX
  8
CUT
 10
113.5827
 20
25.0
 30
0.0
 70
0
  0
VERTEX
  8
CUT
 10
113.5827
 20
35.0102
 30
0.0
 70
0
  0
VERTEX
  8
CUT
 10
113.8714
 20
37.8862
 30
0.0
 70
0
  0
VERTEX
  8
CUT
 10
114.6959
 20
40.5679
 30
0.0
 70
0
  0
VERTEX
  8
CUT
 10
116.0062
 20
42.9997
 30
0.0
 70
0
  0
VERTEX
  8
CUT
 10
117.7384
 20
45.1234
 30
0.0
 70
0
  0
VERTEX
  8
CUT
 10
119.8399
 20
46.8862
 30
0.0
 70
0
  0
VERTEX
  8
CUT
 10
122.2523
 20
48.2243
 30
0.0
 70
0
  0
VERTEX
  8
CUT
 10
124.9173
 20
49.0876
 30
0.0
 70
0
  0
VERTEX
  8
CUT
 10
127.7822
 20
49.418
 30
0.0
 70
0
  0
VERTEX
  8
CUT
 10
127.7822
 20
48.513
 30
0.0
 70
0
  0
VERTEX
  8
CUT
 10
125.1006
 20
48.2021
 30
0.0
 70
0
  0
VERTEX
  8
CUT
 10
122.6021
 20
47.3942
 30
0.0
 70
0
  0
VERTEX
  8
CUT
 10
120.3452
 20
46.1367
 30
0.0
 70
0
  0
VERTEX
  8
CUT
 10
118.3769
 20
44.4849
 30
0.0
 70
0
  0
VERTEX
  8
CUT
 10
116.7557
 20
42.4945
 30
0.0
 70
0
  0
VERTEX
  8
CUT
 10
115.5287
 20
40.2153
 30
0.0
 70
0
  0
VERTEX
  8
CUT
 10
114.7569
 20
37.703
 30
0.0
 70
0
  0
VERTEX
  8
CUT
 10
114.4849
 20
35.0102
 30
0.0
 70
0
  0
SEQEND
  8
CUT
  0
POLYLINE
  8
CUT
 66
1
 10
0.0
 20
0.0
 30
0.0
 70
1
  0
VERTEX
  8
CUT
 10
111.4173
 20
25.0
 30
0.0
 70
0
  0
VERTEX
  8
CUT
 10
110.5151
 20
25.0
 30
0.0
 70
0
  0
VERTEX
  8
CUT
 10
110.5151
 20
35.0102
 30
0.0
 70
0
  0
VERTEX
  8
CUT
 10
110.2431
 20
37.703
 30
0.0
 70
0
  0
VERTEX
  8
CUT
 10
109.4713
 20
40.2153
 30
0.0
 70
0
  0
VERTEX
  8
CUT
 10
108.2443
 20
42.4945
 30
0.0
 70
0
  0
VERTEX
  8
CUT
 10
106.6231
 20
44.4849
 30
0.0
 70
0
  0
VERTEX
  8
CUT
 10
104.6548
 20
46.1367
 30
0.0
 70
0
  0
VERTEX
  8
CUT
 10
102.3979
 20
47.3942
 30
0.0
 70
0
  0
VERTEX
  8
CUT
 10
99.8994
 20
48.2021
 30
0.0
 70
0
  0
VERTEX
  8
CUT
 10
97.2178
 20
48.513
 30
0.0
 70
0
  0
VERTEX
  8
CUT
 10
97.2178
 20
49.418
 30
0.0
 70
0
  0
VERTEX
  8
CUT
 10
100.0827
 20
49.0876
 30
0.0
 70
0
  0
VERTEX
  8
CUT
 10
102.7477
 20
48.2243
 30
0.0
 70
0
  0
VERTEX
  8
CUT
 10
105.1601
 20
46.8862
 30
0.0
 70
0
  0
VERTEX
  8
CUT
 10
107.2616
 20
45.1234
 30
0.0
 70
0
  0
VERTEX
  8
CUT
 10
108.9938
 20
42.9997
 30
0.0
 70
0
  0
VERTEX
  8
CUT
 10
110.3041
 20
40.5679
 30
0.0
 70
0
  0
VERTEX
  8
CUT
 10
111.1286
 20
37.8862
 30
0.0
 70
0
  0
VERTEX
  8
CUT
 10
111.4173
 20
35.0102
 30
0.0
 70
0
  0
SEQEND
  8
CUT
  0
POLYLINE
  8
CUT
 66
1
 10
0.0
 20
0.0
 30
0.0
 70
1
  0
VERTEX
  8
CUT
 10
108.3498
 20
25.0
 30
0.0
 70
0
  0
VERTEX
  8
CUT
 10
107.4448
 20
25.0
 30
0.0
 70
0
  0
VERTEX
  8
CUT
 10
107.4448
 20
35.0102
 30
0.0
 70
0
  0
VERTEX
  8
CUT
 10
107.2394
 20
37.0867
 30
0.0
 70
0
  0
VERTEX
  8
CUT
 10
106.6425
 20
39.0244
 30
0.0
 70
0
  0
VERTEX
  8
CUT
 10
105.7014
 20
40.7816
 30
0.0
 70
0
  0
VERTEX
  8
CUT
 10
104.455
 20
42.3168
 30
0.0
 70
0
  0
VERTEX
  8
CUT
 10
102.942
 20
43.5938
 30
0.0
 70
0
  0
VERTEX
  8
CUT
 10
101.2042
 20
44.5654
 30
0.0
 70
0
  0
VERTEX
  8
CUT
 10
99.2832
 20
45.1984
 30
0.0
 70
0
  0
VERTEX
  8
CUT
 10
97.2178
 20
45.4454
 30
0.0
 70
0
  0
VERTEX
  8
CUT
 10
97.2178
 20
46.3504
 30
0.0
 70
0
  0
VERTEX
  8
CUT
 10
99.4636
 20
46.0839
 30
0.0
 70
0
  0
VERTEX
  8
CUT
 10
101.554
 20
45.3982
 30
0.0
 70
0
  0
VERTEX
  8
CUT
 10
103.4473
 20
44.3406
 30
0.0
 70
0
  0
VERTEX
  8
CUT
 10
105.0935
 20
42.9553
 30
0.0
 70
0
  0
VERTEX
  8
CUT
 10
106.451
 20
41.2841
 30
0.0
 70
0
  0
VERTEX
  8
CUT
 10
107.4753
 20
39.3742
 30
0.0
 70
0
  0
VERTEX
  8
CUT
 10
108.1249
 20
37.2671
 30
0.0
 70
0
  0
VERTEX
  8
CUT
 10
108.3498
 20
35.0102
 30
0.0
 70
0
  0
SEQEND
  8
CUT
  0
POLYLINE
  8
CUT
 66
1
 10
0.0
 20
0.0
 30
0.0
 70
1
  0
VERTEX
  8
CUT
 10
117.5552
 20
25.0
 30
0.0
 70
0
  0
VERTEX
  8
CUT
 10
116.6502
 20
25.0
 30
0.0
 70
0
  0
VERTEX
  8
CUT
 10
116.6502
 20
35.0102
 30
0.0
 70
0
  0
VERTEX
  8
CUT
 10
116.8751
 20
37.2671
 30
0.0
 70
0
  0
VERTEX
  8
CUT
 10
117.5247
 20
39.3742
 30
0.0
 70
0
  0
VERTEX
  8
CUT
 10
118.549
 20
41.2841
 30
0.0
 70
0
  0
VERTEX
  8
CUT
 10
119.9065
 20
42.9553
 30
0.0
 70
0
  0
VERTEX
  8
CUT
 10
121.5527
 20
44.3406
 30
0.0
 70
0
  0
VERTEX
  8
CUT
 10
123.446
 20
45.3982
 30
0.0
 70
0
  0
VERTEX
  8
CUT
 10
125.5364
 20
46.0839
 30
0.0
 70
0
  0
VERTEX
  8
CUT
 10
127.7822
 20
46.3504
 30
0.0
 70
0
  0
VERTEX
  8
CUT
 10
127.7822
 20
45.4454
 30
0.0
 70
0
  0
VERTEX
  8
CUT
 10
125.7168
 20
45.1984
 30
0.0
 70
0
  0
VERTEX
  8
CUT
 10
123.7958
 20
44.5654
 30
0.0
 70
0
  0
VERTEX
  8
CUT
 10
122.058
 20
43.5938
 30
0.0
 70
0
  0
VERTEX
  8
CUT
 10
120.545
 20
42.3168
 30
0.0
 70
0
  0
VERTEX
  8
CUT
 10
119.2986
 20
40.7816
 30
0.0
 70
0
  0
VERTEX
  8
CUT
 10
118.3575
 20
39.0244
 30
0.0
 70
0
  0
VERTEX
  8
CUT
 10
117.7606
 20
37.0867
 30
0.0
 70
0
  0
VERTEX
  8
CUT
 10
117.5552
 20
35.0102
 30
0.0
 70
0
  0
SEQEND
  8
CUT
  0
POLYLINE
  8
CUT
 66
1
 10
0.0
 20
0.0
 30
0.0
 70
1
  0
VERTEX
  8
CUT
 10
136.9688
 20
25.0
 30
0.0
 70
0
  0
VERTEX
  8
CUT
 10
137.1959
 20
25.7384
 30
0.0
 70
0
  0
VERTEX
  8
CUT
 10
138.5062
 20
28.1703
 30
0.0
 70
0
  0
VERTEX
  8
CUT
 10
140.2384
 20
30.294
 30
0.0
 70
0
  0
VERTEX
  8
CUT
 10
142.3399
 20
32.0568
 30
0.0
 70
0
  0
VERTEX
  8
CUT
 10
144.7523
 20
33.3948
 30
0.0
 70
0
  0
VERTEX
  8
CUT
 10
147.4173
 20
34.2582
 30
0.0
 70
0
  0
VERTEX
  8
CUT
 10
150.2822
 20
34.5885
 30
0.0
 70
0
  0
VERTEX
  8
CUT
 10
150.2822
 20
33.6835
 30
0.0
 70
0
  0
VERTEX
  8
CUT
 10
147.6006
 20
33.3726
 30
0.0
 70
0
  0
VERTEX
  8
CUT
 10
145.1021
 20
32.5648
 30
0.0
 70
0
  0
VERTEX
  8
CUT
 10
142.8452
 20
31.3072
 30
0.0
 70
0
  0
VERTEX
  8
CUT
 10
140.8769
 20
29.6555
 30
0.0
 70
0
  0
VERTEX
  8
CUT
 10
139.2557
 20
27.665
 30
0.0
 70
0
  0
VERTEX
  8
CUT
 10
138.0287
 20
25.3859
 30
0.0
 70
0
  0
VERTEX
  8
CUT
 10
137.9102
 20
25.0
 30
0.0
 70
0
  0
SEQEND
  8
CUT
  0
POLYLINE
  8
CUT
 66
1
 10
0.0
 20
0.0
 30
0.0
 70
1
  0
VERTEX
  8
CUT
 10
132.0898
 20
25.0
 30
0.0
 70
0
  0
VERTEX
  8
CUT
 10
131.9713
 20
25.3859
 30
0.0
 70
0
  0
VERTEX
  8
CUT
 10
130.7443
 20
27.665
 30
0.0
 70
0
  0
VERTEX
  8
CUT
 10
129.1231
 20
29.6555
 30
0.0
 70
0
  0
VERTEX
  8
CUT
 10
127.1548
 20
31.3072
 30
0.0
 70
0
  0
VERTEX
  8
CUT
 10
124.8979
 20
32.5648
 30
0.0
 70
0
  0
VERTEX
  8
CUT
 10
122.3994
 20
33.3726
 30
0.0
 70
0
  0
VERTEX
  8
CUT
 10
119.7178
 20
33.6835
 30
0.0
 70
0
  0
VERTEX
  8
CUT
 10
119.7178
 20
34.5885
 30
0.0
 70
0
  0
VERTEX
  8
CUT
 10
122.5827
 20
34.2582
 30
0.0
 70
0
  0
VERTEX
  8
CUT
 10
125.2477
 20
33.3948
 30
0.0
 70
0
  0
VERTEX
  8
CUT
 10
127.6601
 20
32.0568
 30
0.0
 70
0
  0
VERTEX
  8
CUT
 10
129.7616
 20
30.294
 30
0.0
 70
0
  0
VERTEX
  8
CUT
 10
131.4938
 20
28.1703
 30
0.0
 70
0
  0
VERTEX
  8
CUT
 10
132.8041
 20
25.7384
 30
0.0
 70
0
  0
VERTEX
  8
CUT
 10
133.0312
 20
25.0
 30
0.0
 70
0
  0
SEQEND
  8
CUT
  0
POLYLINE
  8
CUT
 66
1
 10
0.0
 20
0.0
 30
0.0
 70
1
  0
VERTEX
  8
CUT
 10
128.7114
 20
25.0
 30
0.0
 70
0
  0
VERTEX
  8
CUT
 10
128.2014
 20
25.9522
 30
0.0
 70
0
  0
VERTEX
  8
CUT
 10
126.955
 20
27.4874
 30
0.0
 70
0
  0
VERTEX
  8
CUT
 10
125.442
 20
28.7643
 30
0.0
 70
0
  0
VERTEX
  8
CUT
 10
123.7042
 20
29.736
 30
0.0
 70
0
  0
VERTEX
  8
CUT
 10
121.7832
 20
30.3689
 30
0.0
 70
0
  0
VERTEX
  8
CUT
 10
119.7178
 20
30.616
 30
0.0
 70
0
  0
VERTEX
  8
CUT
 10
119.7178
 20
31.521
 30
0.0
 70
0
  0
VERTEX
  8
CUT
 10
121.9636
 20
31.2545
 30
0.0
 70
0
  0
VERTEX
  8
CUT
 10
124.054
 20
30.5688
 30
0.0
 70
0
  0
VERTEX
  8
CUT
 10
125.9473
 20
29.5111
 30
0.0
 70
0
  0
VERTEX
  8
CUT
 10
127.5935
 20
28.1258
 30
0.0
 70
0
  0
VERTEX
  8
CUT
 10
128.951
 20
26.4547
 30
0.0
 70
0
  0
VERTEX
  8
CUT
 10
129.7311
 20
25.0
 30
0.0
 70
0
  0
SEQEND
  8
CUT
  0
POLYLINE
  8
CUT
 66
1
 10
0.0
 20
0.0
 30
0.0
 70
1
  0
VERTEX
  8
CUT
 10
140.2689
 20
25.0
 30
0.0
 70
0
  0
VERTEX
  8
CUT
 10
141.049
 20
26.4547
 30
0.0
 70
0
  0
VERTEX
  8
CUT
 10
142.4065
 20
28.1258
 30
0.0
 70
0
  0
VERTEX
  8
CUT
 10
144.0527
 20
29.5111
 30
0.0
 70
0
  0
VERTEX
  8
CUT
 10
145.946
 20
30.5688
 30
0.0
 70
0
  0
VERTEX
  8
CUT
 10
148.0364
 20
31.2545
 30
0.0
 70
0
  0
VERTEX
  8
CUT
 10
150.2822
 20
31.521
 30
0.0
 70
0
  0
VERTEX
  8
CUT
 10
150.2822
 20
30.616
 30
0.0
 70
0
  0
VERTEX
  8
CUT
 10
148.2168
 20
30.3689
 30
0.0
 70
0
  0
VERTEX
  8
CUT
 10
146.2958
 20
29.736
 30
0.0
 70
0
  0
VERTEX
  8
CUT
 10
144.558
 20
28.7643
 30
0.0
 70
0
  0
VERTEX
  8
CUT
 10
143.045
 20
27.4874
 30
0.0
 70
0
  0
VERTEX
  8
CUT
 10
141.7986
 20
25.9522
 30
0.0
 70
0
  0
VERTEX
  8
CUT
 10
141.2886
 20
25.0
 30
0.0
 70
0
  0
SEQEND
  8
CUT
  0
POLYLINE
  8
CUT
 66
1
 10
0.0
 20
0.0
 30
0.0
 70
1
  0
VERTEX
  8
CUT
 10
15.0962
 20
66.4067
 30
0.0
 70
0
  0
VERTEX
  8
CUT
 10
14.0302
 20
66.3484
 30
0.0
 70
0
  0
VERTEX
  8
CUT
 10
12.9837
 20
66.2234
 30
0.0
 70
0
  0
VERTEX
  8
CUT
 10
11.9593
 20
66.0319
 30
0.0
 70
0
  0
VERTEX
  8
CUT
 10
10.9571
 20
65.7793
 30
0.0
 70
0
  0
VERTEX
  8
CUT
 10
9.98
 20
65.4684
 30
0.0
 70
0
  0
VERTEX
  8
CUT
 10
9.0305
 20
65.0991
 30
0.0
 70
0
  0
VERTEX
  8
CUT
 10
8.1089
 20
64.6744
 30
0.0
 70
0
  0
VERTEX
  8
CUT
 10
8.0
 20
64.6157
 30
0.0
 70
0
  0
VERTEX
  8
CUT
 10
8.0
 20
72.8515
 30
0.0
 70
0
  0
VERTEX
  8
CUT
 10
8.6363
 20
72.7805
 30
0.0
 70
0
  0
VERTEX
  8
CUT
 10
9.9716
 20
72.3919
 30
0.0
 70
0
  0
VERTEX
  8
CUT
 10
11.2042
 20
71.795
 30
0.0
 70
0
  0
VERTEX
  8
CUT
 10
12.3146
 20
71.0094
 30
0.0
 70
0
  0
VERTEX
  8
CUT
 10
13.2779
 20
70.0572
 30
0.0
 70
0
  0
VERTEX
  8
CUT
 10
14.0774
 20
68.9606
 30
0.0
 70
0
  0
VERTEX
  8
CUT
 10
14.6909
 20
67.7364
 30
0.0
 70
0
  0
SEQEND
  8
CUT
  0
POLYLINE
  8
CUT
 66
1
 10
0.0
 20
0.0
 30
0.0
 70
1
  0
VERTEX
  8
CUT
 10
15.2822
 20
49.3647
 30
0.0
 70
0
  0
VERTEX
  8
CUT
 10
14.3911
 20
49.8449
 30
0.0
 70
0
  0
VERTEX
  8
CUT
 10
13.4695
 20
50.2697
 30
0.0
 70
0
  0
VERTEX
  8
CUT
 10
12.52
 20
50.6389
 30
0.0
 70
0
  0
VERTEX
  8
CUT
 10
11.5429
 20
50.9498
 30
0.0
 70
0
  0
VERTEX
  8
CUT
 10
10.5407
 20
51.2024
 30
0.0
 70
0
  0
VERTEX
  8
CUT
 10
9.5163
 20
51.394
 30
0.0
 70
0
  0
VERTEX
  8
CUT
 10
8.4698
 20
51.5189
 30
0.0
 70
0
  0
VERTEX
  8
CUT
 10
8.0
 20
51.5446
 30
0.0
 70
0
  0
VERTEX
  8
CUT
 10
8.0
 20
53.2879
 30
0.0
 70
0
  0
VERTEX
  8
CUT
 10
8.4226
 20
54.1312
 30
0.0
 70
0
  0
VERTEX
  8
CUT
 10
9.2221
 20
55.2277
 30
0.0
 70
0
  0
VERTEX
  8
CUT
 10
10.1854
 20
56.1799
 30
0.0
 70
0
  0
VERTEX
  8
CUT
 10
11.2958
 20
56.9655
 30
0.0
 70
0
  0
VERTEX
  8
CUT
 10
12.5284
 20
57.5624
 30
0.0
 70
0
  0
VERTEX
  8
CUT
 10
13.8637
 20
57.951
 30
0.0
 70
0
  0
VERTEX
  8
CUT
 10
15.2822
 20
58.1093
 30
0.0
 70
0
  0
SEQEND
  8
CUT
  0
POLYLINE
  8
CUT
 66
1
 10
0.0
 20
0.0
 30
0.0
 70
1
  0
VERTEX
  8
CUT
 10
37.5962
 20
51.5772
 30
0.0
 70
0
  0
VERTEX
  8
CUT
 10
36.5302
 20
51.5189
 30
0.0
 70
0
  0
VERTEX
  8
CUT
 10
35.4837
 20
51.394
 30
0.0
 70
0
  0
VERTEX
  8
CUT
 10
34.4593
 20
51.2024
 30
0.0
 70
0
  0
VERTEX
  8
CUT
 10
33.4571
 20
50.9498
 30
0.0
 70
0
  0
VERTEX
  8
CUT
 10
32.48
 20
50.6389
 30
0.0
 70
0
  0
VERTEX
  8
CUT
 10
31.5305
 20
50.2697
 30
0.0
 70
0
  0
VERTEX
  8
CUT
 10
30.6089
 20
49.8449
 30
0.0
 70
0
  0
VERTEX
  8
CUT
 10
29.7178
 20
49.3647
 30
0.0
 70
0
  0
VERTEX
  8
CUT
 10
29.7178
 20
58.1093
 30
0.0
 70
0
  0
VERTEX
  8
CUT
 10
31.1363
 20
57.951
 30
0.0
 70
0
  0
VERTEX
  8
CUT
 10
32.4716
 20
57.5624
 30
0.0
 70
0
  0
VERTEX
  8
CUT
 10
33.7042
 20
56.9655
 30
0.0
 70
0
  0
VERTEX
  8
CUT
 10
34.8146
 20
56.1799
 30
0.0
 70
0
  0
VERTEX
  8
CUT
 10
35.7779
 20
55.2277
 30
0.0
 70
0
  0
VERTEX
  8
CUT
 10
36.5774
 20
54.1312
 30
0.0
 70
0
  0
VERTEX
  8
CUT
 10
37.1909
 20
52.9069
 30
0.0
 70
0
  0
SEQEND
  8
CUT
  0
POLYLINE
  8
CUT
 66
1
 10
0.0
 20
0.0
 30
0.0
 70
1
  0
VERTEX
  8
CUT
 10
24.4849
 20
44.601
 30
0.0
 70
0
  0
VERTEX
  8
CUT
 10
24.3655
 20
44.4288
 30
0.0
 70
0
  0
VERTEX
  8
CUT
 10
24.2461
 20
44.2539
 30
0.0
 70
0
  0
VERTEX
  8
CUT
 10
24.1295
 20
44.0818
 30
0.0
 70
0
  0
VERTEX
  8
CUT
 10
24.0157
 20
43.9042
 30
0.0
 70
0
  0
VERTEX
  8
CUT
 10
23.9047
 20
43.7265
 30
0.0
 70
0
  0
VERTEX
  8
CUT
 10
23.7964
 20
43.5488
 30
0.0
 70
0
  0
VERTEX
  8
CUT
 10
23.6882
 20
43.3684
 30
0.0
 70
0
  0
VERTEX
  8
CUT
 10
23.5827
 20
43.1852
 30
0.0
 70
0
  0
VERTEX
  8
CUT
 10
23.5827
 20
64.6691
 30
0.0
 70
0
  0
VERTEX
  8
CUT
 10
23.8714
 20
67.5451
 30
0.0
 70
0
  0
VERTEX
  8
CUT
 10
24.6959
 20
70.2268
 30
0.0
 70
0
  0
VERTEX
  8
CUT
 10
26.0062
 20
72.6586
 30
0.0
 70
0
  0
VERTEX
  8
CUT
 10
27.7384
 20
74.7823
 30
0.0
 70
0
  0
VERTEX
  8
CUT
 10
29.8399
 20
76.5451
 30
0.0
 70
0
  0
VERTEX
  8
CUT
 10
32.2523
 20
77.8832
 30
0.0
 70
0
  0
VERTEX
  8
CUT
 10
34.9173
 20
78.7465
 30
0.0
 70
0
  0
VERTEX
  8
CUT
 10
37.7822
 20
79.0769
 30
0.0
 70
0
  0
VERTEX
  8
CUT
 10
37.7822
 20
78.1719
 30
0.0
 70
0
  0
VERTEX
  8
CUT
 10
35.1006
 20
77.861
 30
0.0
 70
0
  0
VERTEX
  8
CUT
 10
32.6021
 20
77.0531
 30
0.0
 70
0
  0
VERTEX
  8
CUT
 10
30.3452
 20
75.7956
 30
0.0
 70
0
  0
VERTEX
  8
CUT
 10
28.3769
 20
74.1438
 30
0.0
 70
0
  0
VERTEX
  8
CUT
 10
26.7557
 20
72.1534
 30
0.0
 70
0
  0
VERTEX
  8
CUT
 10
25.5287
 20
69.8742
 30
0.0
 70
0
  0
VERTEX
  8
CUT
 10
24.7569
 20
67.3619
 30
0.0
 70
0
  0
VERTEX
  8
CUT
 10
24.4849
 20
64.6691
 30
0.0
 70
0
  0
SEQEND
  8
CUT
  0
POLYLINE
  8
CUT
 66
1
 10
0.0
 20
0.0
 30
0.0
 70
1
  0
VERTEX
  8
CUT
 10
21.4173
 20
43.1852
 30
0.0
 70
0
  0
VERTEX
  8
CUT
 10
21.3118
 20
43.3684
 30
0.0
 70
0
  0
VERTEX
  8
CUT
 10
21.2036
 20
43.5488
 30
0.0
 70
0
  0
VERTEX
  8
CUT
 10
21.0953
 20
43.7265
 30
0.0
 70
0
  0
VERTEX
  8
CUT
 10
20.9843
 20
43.9042
 30
0.0
 70
0
  0
VERTEX
  8
CUT
 10
20.8705
 20
44.0818
 30
0.0
 70
0
  0
VERTEX
  8
CUT
 10
20.7539
 20
44.2539
 30
0.0
 70
0
  0
VERTEX
  8
CUT
 10
20.6345
 20
44.4288
 30
0.0
 70
0
  0
VERTEX
  8
CUT
 10
20.5151
 20
44.601
 30
0.0
 70
0
  0
VERTEX
  8
CUT
 10
20.5151
 20
64.6691
 30
0.0
 70
0
  0
VERTEX
  8
CUT
 10
20.2431
 20
67.3619
 30
0.0
 70
0
  0
VERTEX
  8
CUT
 10
19.4713
 20
69.8742
 30
0.0
 70
0
  0
VERTEX
  8
CUT
 10
18.2443
 20
72.1534
 30
0.0
 70
0
  0
VERTEX
  8
CUT
 10
16.6231
 20
74.1438
 30
0.0
 70
0
  0
VERTEX
  8
CUT
 10
14.6548
 20
75.7956
 30
0.0
 70
0
  0
VERTEX
  8
CUT
 10
12.3979
 20
77.0531
 30
0.0
 70
0
  0
VERTEX
  8
CUT
 10
9.8994
 20
77.861
 30
0.0
 70
0
  0
VERTEX
  8
CUT
 10
9.865
 20
77.865
 30
0.0
 70
0
  0
VERTEX
  8
CUT
 10
10.5841
 20
78.5841
 30
0.0
 70
0
  0
VERTEX
  8
CUT
 10
12.7477
 20
77.8832
 30
0.0
 70
0
  0
VERTEX
  8
CUT
 10
15.1601
 20
76.5451
 30
0.0
 70
0
  0
VERTEX
  8
CUT
 10
17.2616
 20
74.7823
 30
0.0
 70
0
  0
VERTEX
  8
CUT
 10
18.9938
 20
72.6586
 30
0.0
 70
0
  0
VERTEX
  8
CUT
 10
20.3041
 20
70.2268
 30
0.0
 70
0
  0
VERTEX
  8
CUT
 10
21.1286
 20
67.5451
 30
0.0
 70
0
  0
VERTEX
  8
CUT
 10
21.4173
 20
64.6691
 30
0.0
 70
0
  0
SEQEND
  8
CUT
  0
POLYLINE
  8
CUT
 66
1
 10
0.0
 20
0.0
 30
0.0
 70
1
  0
VERTEX
  8
CUT
 10
18.3498
 20
47.0828
 30
0.0
 70
0
  0
VERTEX
  8
CUT
 10
18.2387
 20
47.1827
 30
0.0
 70
0
  0
VERTEX
  8
CUT
 10
18.1277
 20
47.2854
 30
0.0
 70
0
  0
VERTEX
  8
CUT
 10
18.0167
 20
47.3853
 30
0.0
 70
0
  0
VERTEX
  8
CUT
 10
17.9056
 20
47.4853
 30
0.0
 70
0
  0
VERTEX
  8
CUT
 10
17.7918
 20
47.5852
 30
0.0
 70
0
  0
VERTEX
  8
CUT
 10
17.678
 20
47.6824
 30
0.0
 70
0
  0
VERTEX
  8
CUT
 10
17.5614
 20
47.7795
 30
0.0
 70
0
  0
VERTEX
  8
CUT
 10
17.4448
 20
47.8739
 30
0.0
 70
0
  0
VERTEX
  8
CUT
 10
17.4448
 20
64.6691
 30
0.0
 70
0
  0
VERTEX
  8
CUT
 10
17.2394
 20
66.7456
 30
0.0
 70
0
  0
VERTEX
  8
CUT
 10
16.6425
 20
68.6833
 30
0.0
 70
0
  0
VERTEX
  8
CUT
 10
15.7014
 20
70.4406
 30
0.0
 70
0
  0
VERTEX
  8
CUT
 10
14.455
 20
71.9757
 30
0.0
 70
0
  0
VERTEX
  8
CUT
 10
12.942
 20
73.2527
 30
0.0
 70
0
  0
VERTEX
  8
CUT
 10
11.2042
 20
74.2243
 30
0.0
 70
0
  0
VERTEX
  8
CUT
 10
9.2832
 20
74.8573
 30
0.0
 70
0
  0
VERTEX
  8
CUT
 10
8.0
 20
75.0108
 30
0.0
 70
0
  0
VERTEX
  8
CUT
 10
8.0
 20
75.9165
 30
0.0
 70
0
  0
VERTEX
  8
CUT
 10
9.4636
 20
75.7428
 30
0.0
 70
0
  0
VERTEX
  8
CUT
 10
11.554
 20
75.0572
 30
0.0
 70
0
  0
VERTEX
  8
CUT
 10
13.4473
 20
73.9995
 30
0.0
 70
0
  0
VERTEX
  8
CUT
 10
15.0935
 20
72.6142
 30
0.0
 70
0
  0
VERTEX
  8
CUT
 10
16.451
 20
70.943
 30
0.0
 70
0
  0
VERTEX
  8
CUT
 10
17.4753
 20
69.0331
 30
0.0
 70
0
  0
VERTEX
  8
CUT
 10
18.1249
 20
66.9261
 30
0.0
 70
0
  0
VERTEX
  8
CUT
 10
18.3498
 20
64.6691
 30
0.0
 70
0
  0
SEQEND
  8
CUT
  0
POLYLINE
  8
CUT
 66
1
 10
0.0
 20
0.0
 30
0.0
 70
1
  0
VERTEX
  8
CUT
 10
27.5552
 20
47.8739
 30
0.0
 70
0
  0
VERTEX
  8
CUT
 10
27.4386
 20
47.7795
 30
0.0
 70
0
  0
VERTEX
  8
CUT
 10
27.322
 20
47.6824
 30
0.0
 70
0
  0
VERTEX
  8
CUT
 10
27.2082
 20
47.5852
 30
0.0
 70
0
  0
VERTEX
  8
CUT
 10
27.0944
 20
47.4853
 30
0.0
 70
0
  0
VERTEX
  8
CUT
 10
26.9833
 20
47.3853
 30
0.0
 70
0
  0
VERTEX
  8
CUT
 10
26.8723
 20
47.2854
 30
0.0
 70
0
  0
VERTEX
  8
CUT
 10
26.7613
 20
47.1827
 30
0.0
 70
0
  0
VERTEX
  8
CUT
 10
26.6502
 20
47.0828
 30
0.0
 70
0
  0
VERTEX
  8
CUT
 10
26.6502
 20
64.6691
 30
0.0
 70
0
  0
VERTEX
  8
CUT
 10
26.8751
 20
66.9261
 30
0.0
 70
0
  0
VERTEX
  8
CUT
 10
27.5247
 20
69.0331
 30
0.0
 70
0
  0
VERTEX
  8
CUT
 10
28.549
 20
70.943
 30
0.0
 70
0
  0
VERTEX
  8
CUT
 10
29.9065
 20
72.6142
 30
0.0
 70
0
  0
VERTEX
  8
CUT
 10
31.5527
 20
73.9995
 30
0.0
 70
0
  0
VERTEX
  8
CUT
 10
33.446
 20
75.0572
 30
0.0
 70
0
  0
VERTEX
  8
CUT
 10
35.5364
 20
75.7428
 30
0.0
 70
0
  0
VERTEX
  8
CUT
 10
37.7822
 20
76.0093
 30
0.0
 70
0
  0
VERTEX
  8
CUT
 10
37.7822
 20
75.1043
 30
0.0
 70
0
  0
VERTEX
  8
CUT
 10
35.7168
 20
74.8573
 30
0.0
 70
0
  0
VERTEX
  8
CUT
 10
33.7958
 20
74.2243
 30
0.0
 70
0
  0
VERTEX
  8
CUT
 10
32.058
 20
73.2527
 30
0.0
 70
0
  0
VERTEX
  8
CUT
 10
30.545
 20
71.9757
 30
0.0
 70
0
  0
VERTEX
  8
CUT
 10
29.2986
 20
70.4406
 30
0.0
 70
0
  0
VERTEX
  8
CUT
 10
28.3575
 20
68.6833
 30
0.0
 70
0
  0
VERTEX
  8
CUT
 10
27.7606
 20
66.7456
 30
0.0
 70
0
  0
VERTEX
  8
CUT
 10
27.5552
 20
64.6691
 30
0.0
 70
0
  0
SEQEND
  8
CUT
  0
POLYLINE
  8
CUT
 66
1
 10
0.0
 20
0.0
 30
0.0
 70
1
  0
VERTEX
  8
CUT
 10
37.7822
 20
34.5352
 30
0.0
 70
0
  0
VERTEX
  8
CUT
 10
36.8911
 20
35.0155
 30
0.0
 70
0
  0
VERTEX
  8
CUT
 10
35.9695
 20
35.4402
 30
0.0
 70
0
  0
VERTEX
  8
CUT
 10
35.02
 20
35.8094
 30
0.0
 70
0
  0
VERTEX
  8
CUT
 10
34.0429
 20
36.1204
 30
0.0
 70
0
  0
VERTEX
  8
CUT
 10
33.0407
 20
36.373
 30
0.0
 70
0
  0
VERTEX
  8
CUT
 10
32.0163
 20
36.5645
 30
0.0
 70
0
  0
VERTEX
  8
CUT
 10
30.9698
 20
36.6895
 30
0.0
 70
0
  0
VERTEX
  8
CUT
 10
29.9038
 20
36.7477
 30
0.0
 70
0
  0
VERTEX
  8
CUT
 10
30.3091
 20
38.0775
 30
0.0
 70
0
  0
VERTEX
  8
CUT
 10
30.9226
 20
39.3017
 30
0.0
 70
0
  0
VERTEX
  8
CUT
 10
31.7221
 20
40.3983
 30
0.0
 70
0
  0
VERTEX
  8
CUT
 10
32.6854
 20
41.3505
 30
0.0
 70
0
  0
VERTEX
  8
CUT
 10
33.7958
 20
42.1361
 30
0.0
 70
0
  0
VERTEX
  8
CUT
 10
35.0284
 20
42.7329
 30
0.0
 70
0
  0
VERTEX
  8
CUT
 10
36.3637
 20
43.1216
 30
0.0
 70
0
  0
VERTEX
  8
CUT
 10
37.7822
 20
43.2798
 30
0.0
 70
0
  0
SEQEND
  8
CUT
  0
POLYLINE
  8
CUT
 66
1
 10
0.0
 20
0.0
 30
0.0
 70
1
  0
VERTEX
  8
CUT
 10
60.0962
 20
36.7477
 30
0.0
 70
0
  0
VERTEX
  8
CUT
 10
59.0302
 20
36.6895
 30
0.0
 70
0
  0
VERTEX
  8
CUT
 10
57.9837
 20
36.5645
 30
0.0
 70
0
  0
VERTEX
  8
CUT
 10
56.9593
 20
36.373
 30
0.0
 70
0
  0
VERTEX
  8
CUT
 10
55.9571
 20
36.1204
 30
0.0
 70
0
  0
VERTEX
  8
CUT
 10
54.98
 20
35.8094
 30
0.0
 70
0
  0
VERTEX
  8
CUT
 10
54.0305
 20
35.4402
 30
0.0
 70
0
  0
VERTEX
  8
CUT
 10
53.1089
 20
35.0155
 30
0.0
 70
0
  0
VERTEX
  8
CUT
 10
52.2178
 20
34.5352
 30
0.0
 70
0
  0
VERTEX
  8
CUT
 10
52.2178
 20
43.2798
 30
0.0
 70
0
  0
VERTEX
  8
CUT
 10
53.6363
 20
43.1216
 30
0.0
 70
0
  0
VERTEX
  8
CUT
 10
54.9716
 20
42.7329
 30
0.0
 70
0
  0
VERTEX
  8
CUT
 10
56.2042
 20
42.1361
 30
0.0
 70
0
  0
VERTEX
  8
CUT
 10
57.3146
 20
41.3505
 30
0.0
 70
0
  0
VERTEX
  8
CUT
 10
58.2779
 20
40.3983
 30
0.0
 70
0
  0
VERTEX
  8
CUT
 10
59.0774
 20
39.3017
 30
0.0
 70
0
  0
VERTEX
  8
CUT
 10
59.6909
 20
38.0775
 30
0.0
 70
0
  0
SEQEND
  8
CUT
  0
POLYLINE
  8
CUT
 66
1
 10
0.0
 20
0.0
 30
0.0
 70
1
  0
VERTEX
  8
CUT
 10
46.9849
 20
29.7715
 30
0.0
 70
0
  0
VERTEX
  8
CUT
 10
46.8655
 20
29.5994
 30
0.0
 70
0
  0
VERTEX
  8
CUT
 10
46.7461
 20
29.4245
 30
0.0
 70
0
  0
VERTEX
  8
CUT
 10
46.6295
 20
29.2524
 30
0.0
 70
0
  0
VERTEX
  8
CUT
 10
46.5157
 20
29.0747
 30
0.0
 70
0
  0
VERTEX
  8
CUT
 10
46.4047
 20
28.897
 30
0.0
 70
0
  0
VERTEX
  8
CUT
 10
46.2964
 20
28.7194
 30
0.0
 70
0
  0
VERTEX
  8
CUT
 10
46.1882
 20
28.5389
 30
0.0
 70
0
  0
VERTEX
  8
CUT
 10
46.0827
 20
28.3557
 30
0.0
 70
0
  0
VERTEX
  8
CUT
 10
46.0827
 20
49.8397
 30
0.0
 70
0
  0
VERTEX
  8
CUT
 10
46.3714
 20
52.7157
 30
0.0
 70
0
  0
VERTEX
  8
CUT
 10
47.1959
 20
55.3973
 30
0.0
 70
0
  0
VERTEX
  8
CUT
 10
48.5062
 20
57.8292
 30
0.0
 70
0
  0
VERTEX
  8
CUT
 10
50.2384
 20
59.9529
 30
0.0
 70
0
  0
VERTEX
  8
CUT
 10
52.3399
 20
61.7157
 30
0.0
 70
0
  0
VERTEX
  8
CUT
 10
54.7523
 20
63.0537
 30
0.0
 70
0
  0
VERTEX
  8
CUT
 10
57.4173
 20
63.9171
 30
0.0
 70
0
  0
VERTEX
  8
CUT
 10
60.2822
 20
64.2474
 30
0.0
 70
0
  0
VERTEX
  8
CUT
 10
60.2822
 20
63.3424
 30
0.0
 70
0
  0
VERTEX
  8
CUT
 10
57.6006
 20
63.0315
 30
0.0
 70
0
  0
VERTEX
  8
CUT
 10
55.1021
 20
62.2237
 30
0.0
 70
0
  0
VERTEX
  8
CUT
 10
52.8452
 20
60.9661
 30
0.0
 70
0
  0
VERTEX
  8
CUT
 10
50.8769
 20
59.3144
 30
0.0
 70
0
  0
VERTEX
  8
CUT
 10
49.2557
 20
57.3239
 30
0.0
 70
0
  0
VERTEX
  8
CUT
 10
48.0287
 20
55.0448
 30
0.0
 70
0
  0
VERTEX
  8
CUT
 10
47.2569
 20
52.5324
 30
0.0
 70
0
  0
VERTEX
  8
CUT
 10
46.9849
 20
49.8397
 30
0.0
 70
0
  0
SEQEND
  8
CUT
  0
POLYLINE
  8
CUT
 66
1
 10
0.0
 20
0.0
 30
0.0
 70
1
  0
VERTEX
  8
CUT
 10
43.9173
 20
28.3557
 30
0.0
 70
0
  0
VERTEX
  8
CUT
 10
43.8118
 20
28.5389
 30
0.0
 70
0
  0
VERTEX
  8
CUT
 10
43.7036
 20
28.7194
 30
0.0
 70
0
  0
VERTEX
  8
CUT
 10
43.5953
 20
28.897
 30
0.0
 70
0
  0
VERTEX
  8
CUT
 10
43.4843
 20
29.0747
 30
0.0
 70
0
  0
VERTEX
  8
CUT
 10
43.3705
 20
29.2524
 30
0.0
 70
0
  0
VERTEX
  8
CUT
 10
43.2539
 20
29.4245
 30
0.0
 70
0
  0
VERTEX
  8
CUT
 10
43.1345
 20
29.5994
 30
0.0
 70
0
  0
VERTEX
  8
CUT
 10
43.0151
 20
29.7715
 30
0.0
 70
0
  0
VERTEX
  8
CUT
 10
43.0151
 20
49.8397
 30
0.0
 70
0
  0
VERTEX
  8
CUT
 10
42.7431
 20
52.5324
 30
0.0
 70
0
  0
VERTEX
  8
CUT
 10
41.9713
 20
55.0448
 30
0.0
 70
0
  0
VERTEX
  8
CUT
 10
40.7443
 20
57.3239
 30
0.0
 70
0
  0
VERTEX
  8
CUT
 10
39.1231
 20
59.3144
 30
0.0
 70
0
  0
VERTEX
  8
CUT
 10
37.1548
 20
60.9661
 30
0.0
 70
0
  0
VERTEX
  8
CUT
 10
34.8979
 20
62.2237
 30
0.0
 70
0
  0
VERTEX
  8
CUT
 10
32.3994
 20
63.0315
 30
0.0
 70
0
  0
VERTEX
  8
CUT
 10
29.7178
 20
63.3424
 30
0.0
 70
0
  0
VERTEX
  8
CUT
 10
29.7178
 20
64.2474
 30
0.0
 70
0
  0
VERTEX
  8
CUT
 10
32.5827
 20
63.9171
 30
0.0
 70
0
  0
VERTEX
  8
CUT
 10
35.2477
 20
63.0537
 30
0.0
 70
0
  0
VERTEX
  8
CUT
 10
37.6601
 20
61.7157
 30
0.0
 70
0
  0
VERTEX
  8
CUT
 10
39.7616
 20
59.9529
 30
0.0
 70
0
  0
VERTEX
  8
CUT
 10
41.4938
 20
57.8292
 30
0.0
 70
0
  0
VERTEX
  8
CUT
 10
42.8041
 20
55.3973
 30
0.0
 70
0
  0
VERTEX
  8
CUT
 10
43.6286
 20
52.7157
 30
0.0
 70
0
  0
VERTEX
  8
CUT
 10
43.9173
 20
49.8397
 30
0.0
 70
0
  0
SEQEND
  8
CUT
  0
POLYLINE
  8
CUT
 66
1
 10
0.0
 20
0.0
 30
0.0
 70
1
  0
VERTEX
  8
CUT
 10
40.8498
 20
32.2533
 30
0.0
 70
0
  0
VERTEX
  8
CUT
 10
40.7387
 20
32.3532
 30
0.0
 70
0
  0
VERTEX
  8
CUT
 10
40.6277
 20
32.456
 30
0.0
 70
0
  0
VERTEX
  8
CUT
 10
40.5167
 20
32.5559
 30
0.0
 70
0
  0
VERTEX
  8
CUT
 10
40.4056
 20
32.6558
 30
0.0
 70
0
  0
VERTEX
  8
CUT
 10
40.2918
 20
32.7558
 30
0.0
 70
0
  0
VERTEX
  8
CUT
 10
40.178
 20
32.8529
 30
0.0
 70
0
  0
VERTEX
  8
CUT
 10
40.0614
 20
32.9501
 30
0.0
 70
0
  0
VERTEX
  8
CUT
 10
39.9448
 20
33.0445
 30
0.0
 70
0
  0
VERTEX
  8
CUT
 10
39.9448
 20
49.8397
 30
0.0
 70
0
  0
VERTEX
  8
CUT
 10
39.7394
 20
51.9162
 30
0.0
 70
0
  0
VERTEX
  8
CUT
 10
39.1425
 20
53.8539
 30
0.0
 70
0
  0
VERTEX
  8
CUT
 10
38.2014
 20
55.6111
 30
0.0
 70
0
  0
VERTEX
  8
CUT
 10
36.955
 20
57.1463
 30
0.0
 70
0
  0
VERTEX
  8
CUT
 10
35.442
 20
58.4233
 30
0.0
 70
0
  0
VERTEX
  8
CUT
 10
33.7042
 20
59.3949
 30
0.0
 70
0
  0
VERTEX
  8
CUT
 10
31.7832
 20
60.0278
 30
0.0
 70
0
  0
VERTEX
  8
CUT
 10
29.7178
 20
60.2749
 30
0.0
 70
0
  0
VERTEX
  8
CUT
 10
29.7178
 20
61.1799
 30
0.0
 70
0
  0
VERTEX
  8
CUT
 10
31.9636
 20
60.9134
 30
0.0
 70
0
  0
VERTEX
  8
CUT
 10
34.054
 20
60.2277
 30
0.0
 70
0
  0
VERTEX
  8
CUT
 10
35.9473
 20
59.17
 30
0.0
 70
0
  0
VERTEX
  8
CUT
 10
37.5935
 20
57.7848
 30
0.0
 70
0
  0
VERTEX
  8
CUT
 10
38.951
 20
56.1136
 30
0.0
 70
0
  0
VERTEX
  8
CUT
 10
39.9753
 20
54.2036
 30
0.0
 70
0
  0
VERTEX
  8
CUT
 10
40.6249
 20
52.0966
 30
0.0
 70
0
  0
VERTEX
  8
CUT
 10
40.8498
 20
49.8397
 30
0.0
 70
0
  0
SEQEND
  8
CUT
  0
POLYLINE
  8
CUT
 66
1
 10
0.0
 20
0.0
 30
0.0
 70
1
  0
VERTEX
  8
CUT
 10
50.0552
 20
33.0445
 30
0.0
 70
0
  0
VERTEX
  8
CUT
 10
49.9386
 20
32.9501
 30
0.0
 70
0
  0
VERTEX
  8
CUT
 10
49.822
 20
32.8529
 30
0.0
 70
0
  0
VERTEX
  8
CUT
 10
49.7082
 20
32.7558
 30
0.0
 70
0
  0
VERTEX
  8
CUT
 10
49.5944
 20
32.6558
 30
0.0
 70
0
  0
VERTEX
  8
CUT
 10
49.4833
 20
32.5559
 30
0.0
 70
0
  0
VERTEX
  8
CUT
 10
49.3723
 20
32.456
 30
0.0
 70
0
  0
VERTEX
  8
CUT
 10
49.2613
 20
32.3532
 30
0.0
 70
0
  0
VERTEX
  8
CUT
 10
49.1502
 20
32.2533
 30
0.0
 70
0
  0
VERTEX
  8
CUT
 10
49.1502
 20
49.8397
 30
0.0
 70
0
  0
VERTEX
  8
CUT
 10
49.3751
 20
52.0966
 30
0.0
 70
0
  0
VERTEX
  8
CUT
 10
50.0247
 20
54.2036
 30
0.0
 70
0
  0
VERTEX
  8
CUT
 10
51.049
 20
56.1136
 30
0.0
 70
0
  0
VERTEX
  8
CUT
 10
52.4065
 20
57.7848
 30
0.0
 70
0
  0
VERTEX
  8
CUT
 10
54.0527
 20
59.17
 30
0.0
 70
0
  0
VERTEX
  8
CUT
 10
55.946
 20
60.2277
 30
0.0
 70
0
  0
VERTEX
  8
CUT
 10
58.0364
 20
60.9134
 30
0.0
 70
0
  0
VERTEX
  8
CUT
 10
60.2822
 20
61.1799
 30
0.0
 70
0
  0
VERTEX
  8
CUT
 10
60.2822
 20
60.2749
 30
0.0
 70
0
  0
VERTEX
  8
CUT
 10
58.2168
 20
60.0278
 30
0.0
 70
0
  0
VERTEX
  8
CUT
 10
56.2958
 20
59.3949
 30
0.0
 70
0
  0
VERTEX
  8
CUT
 10
54.558
 20
58.4233
 30
0.0
 70
0
  0
VERTEX
  8
CUT
 10
53.045
 20
57.1463
 30
0.0
 70
0
  0
VERTEX
  8
CUT
 10
51.7986
 20
55.6111
 30
0.0
 70
0
  0
VERTEX
  8
CUT
 10
50.8575
 20
53.8539
 30
0.0
 70
0
  0
VERTEX
  8
CUT
 10
50.2606
 20
51.9162
 30
0.0
 70
0
  0
VERTEX
  8
CUT
 10
50.0552
 20
49.8397
 30
0.0
 70
0
  0
SEQEND
  8
CUT
  0
POLYLINE
  8
CUT
 66
1
 10
0.0
 20
0.0
 30
0.0
 70
1
  0
VERTEX
  8
CUT
 10
60.2822
 20
25.0
 30
0.0
 70
0
  0
VERTEX
  8
CUT
 10
53.8074
 20
25.0
 30
0.0
 70
0
  0
VERTEX
  8
CUT
 10
54.2221
 20
25.5688
 30
0.0
 70
0
  0
VERTEX
  8
CUT
 10
55.1854
 20
26.521
 30
0.0
 70
0
  0
VERTEX
  8
CUT
 10
56.2958
 20
27.3066
 30
0.0
 70
0
  0
VERTEX
  8
CUT
 10
57.5284
 20
27.9035
 30
0.0
 70
0
  0
VERTEX
  8
CUT
 10
58.8637
 20
28.2921
 30
0.0
 70
0
  0
VERTEX
  8
CUT
 10
60.2822
 20
28.4504
 30
0.0
 70
0
  0
SEQEND
  8
CUT
  0
POLYLINE
  8
CUT
 66
1
 10
0.0
 20
0.0
 30
0.0
 70
1
  0
VERTEX
  8
CUT
 10
74.7178
 20
25.0
 30
0.0
 70
0
  0
VERTEX
  8
CUT
 10
74.7178
 20
28.4504
 30
0.0
 70
0
  0
VERTEX
  8
CUT
 10
76.1363
 20
28.2921
 30
0.0
 70
0
  0
VERTEX
  8
CUT
 10
77.4716
 20
27.9035
 30
0.0
 70
0
  0
VERTEX
  8
CUT
 10
78.7042
 20
27.3066
 30
0.0
 70
0
  0
VERTEX
  8
CUT
 10
79.8146
 20
26.521
 30
0.0
 70
0
  0
VERTEX
  8
CUT
 10
80.7779
 20
25.5688
 30
0.0
 70
0
  0
VERTEX
  8
CUT
 10
81.1926
 20
25.0
 30
0.0
 70
0
  0
SEQEND
  8
CUT
  0
POLYLINE
  8
CUT
 66
1
 10
0.0
 20
0.0
 30
0.0
 70
1
  0
VERTEX
  8
CUT
 10
69.4849
 20
25.0
 30
0.0
 70
0
  0
VERTEX
  8
CUT
 10
68.5827
 20
25.0
 30
0.0
 70
0
  0
VERTEX
  8
CUT
 10
68.5827
 20
35.0102
 30
0.0
 70
0
  0
VERTEX
  8
CUT
 10
68.8714
 20
37.8862
 30
0.0
 70
0
  0
VERTEX
  8
CUT
 10
69.6959
 20
40.5679
 30
0.0
 70
0
  0
VERTEX
  8
CUT
 10
71.0062
 20
42.9997
 30
0.0
 70
0
  0
VERTEX
  8
CUT
 10
72.7384
 20
45.1234
 30
0.0
 70
0
  0
VERTEX
  8
CUT
 10
74.8399
 20
46.8862
 30
0.0
 70
0
  0
VERTEX
  8
CUT
 10
77.2523
 20
48.2243
 30
0.0
 70
0
  0
VERTEX
  8
CUT
 10
79.9173
 20
49.0876
 30
0.0
 70
0
  0
VERTEX
  8
CUT
 10
82.7822
 20
49.418
 30
0.0
 70
0
  0
VERTEX
  8
CUT
 10
82.7822
 20
48.513
 30
0.0
 70
0
  0
VERTEX
  8
CUT
 10
80.1006
 20
48.2021
 30
0.0
 70
0
  0
VERTEX
  8
CUT
 10
77.6021
 20
47.3942
 30
0.0
 70
0
  0
VERTEX
  8
CUT
 10
75.3452
 20
46.1367
 30
0.0
 70
0
  0
VERTEX
  8
CUT
 10
73.3769
 20
44.4849
 30
0.0
 70
0
  0
VERTEX
  8
CUT
 10
71.7557
 20
42.4945
 30
0.0
 70
0
  0
VERTEX
  8
CUT
 10
70.5287
 20
40.2153
 30
0.0
 70
0
  0
VERTEX
  8
CUT
 10
69.7569
 20
37.703
 30
0.0
 70
0
  0
VERTEX
  8
CUT
 10
69.4849
 20
35.0102
 30
0.0
 70
0
  0
SEQEND
  8
CUT
  0
POLYLINE
  8
CUT
 66
1
 10
0.0
 20
0.0
 30
0.0
 70
1
  0
VERTEX
  8
CUT
 10
66.4173
 20
25.0
 30
0.0
 70
0
  0
VERTEX
  8
CUT
 10
65.5151
 20
25.0
 30
0.0
 70
0
  0
VERTEX
  8
CUT
 10
65.5151
 20
35.0102
 30
0.0
 70
0
  0
VERTEX
  8
CUT
 10
65.2431
 20
37.703
 30
0.0
 70
0
  0
VERTEX
  8
CUT
 10
64.4713
 20
40.2153
 30
0.0
 70
0
  0
VERTEX
  8
CUT
 10
63.2443
 20
42.4945
 30
0.0
 70
0
  0
VERTEX
  8
CUT
 10
61.6231
 20
44.4849
 30
0.0
 70
0
  0
VERTEX
  8
CUT
 10
59.6548
 20
46.1367
 30
0.0
 70
0
  0
VERTEX
  8
CUT
 10
57.3979
 20
47.3942
 30
0.0
 70
0
  0
VERTEX
  8
CUT
 10
54.8994
 20
48.2021
 30
0.0
 70
0
  0
VERTEX
  8
CUT
 10
52.2178
 20
48.513
 30
0.0
 70
0
  0
VERTEX
  8
CUT
 10
52.2178
 20
49.418
 30
0.0
 70
0
  0
VERTEX
  8
CUT
 10
55.0827
 20
49.0876
 30
0.0
 70
0
  0
VERTEX
  8
CUT
 10
57.7477
 20
48.2243
 30
0.0
 70
0
  0
VERTEX
  8
CUT
 10
60.1601
 20
46.8862
 30
0.0
 70
0
  0
VERTEX
  8
CUT
 10
62.2616
 20
45.1234
 30
0.0
 70
0
  0
VERTEX
  8
CUT
 10
63.9938
 20
42.9997
 30
0.0
 70
0
  0
VERTEX
  8
CUT
 10
65.3041
 20
40.5679
 30
0.0
 70
0
  0
VERTEX
  8
CUT
 10
66.1286
 20
37.8862
 30
0.0
 70
0
  0
VERTEX
  8
CUT
 10
66.4173
 20
35.0102
 30
0.0
 70
0
  0
SEQEND
  8
CUT
  0
POLYLINE
  8
CUT
 66
1
 10
0.0
 20
0.0
 30
0.0
 70
1
  0
VERTEX
  8
CUT
 10
63.3498
 20
25.0
 30
0.0
 70
0
  0
VERTEX
  8
CUT
 10
62.4448
 20
25.0
 30
0.0
 70
0
  0
VERTEX
  8
CUT
 10
62.4448
 20
35.0102
 30
0.0
 70
0
  0
VERTEX
  8
CUT
 10
62.2394
 20
37.0867
 30
0.0
 70
0
  0
VERTEX
  8
CUT
 10
61.6425
 20
39.0244
 30
0.0
 70
0
  0
VERTEX
  8
CUT
 10
60.7014
 20
40.7816
 30
0.0
 70
0
  0
VERTEX
  8
CUT
 10
59.455
 20
42.3168
 30
0.0
 70
0
  0
VERTEX
  8
CUT
 10
57.942
 20
43.5938
 30
0.0
 70
0
  0
VERTEX
  8
CUT
 10
56.2042
 20
44.5654
 30
0.0
 70
0
  0
VERTEX
  8
CUT
 10
54.2832
 20
45.1984
 30
0.0
 70
0
  0
VERTEX
  8
CUT
 10
52.2178
 20
45.4454
 30
0.0
 70
0
  0
VERTEX
  8
CUT
 10
52.2178
 20
46.3504
 30
0.0
 70
0
  0
VERTEX
  8
CUT
 10
54.4636
 20
46.0839
 30
0.0
 70
0
  0
VERTEX
  8
CUT
 10
56.554
 20
45.3982
 30
0.0
 70
0
  0
VERTEX
  8
CUT
 10
58.4473
 20
44.3406
 30
0.0
 70
0
  0
VERTEX
  8
CUT
 10
60.0935
 20
42.9553
 30
0.0
 70
0
  0
VERTEX
  8
CUT
 10
61.451
 20
41.2841
 30
0.0
 70
0
  0
VERTEX
  8
CUT
 10
62.4753
 20
39.3742
 30
0.0
 70
0
  0
VERTEX
  8
CUT
 10
63.1249
 20
37.2671
 30
0.0
 70
0
  0
VERTEX
  8
CUT
 10
63.3498
 20
35.0102
 30
0.0
 70
0
  0
SEQEND
  8
CUT
  0
POLYLINE
  8
CUT
 66
1
 10
0.0
 20
0.0
 30
0.0
 70
1
  0
VERTEX
  8
CUT
 10
72.5552
 20
25.0
 30
0.0
 70
0
  0
VERTEX
  8
CUT
 10
71.6502
 20
25.0
 30
0.0
 70
0
  0
VERTEX
  8
CUT
 10
71.6502
 20
35.0102
 30
0.0
 70
0
  0
VERTEX
  8
CUT
 10
71.8751
 20
37.2671
 30
0.0
 70
0
  0
VERTEX
  8
CUT
 10
72.5247
 20
39.3742
 30
0.0
 70
0
  0
VERTEX
  8
CUT
 10
73.549
 20
41.2841
 30
0.0
 70
0
  0
VERTEX
  8
CUT
 10
74.9065
 20
42.9553
 30
0.0
 70
0
  0
VERTEX
  8
CUT
 10
76.5527
 20
44.3406
 30
0.0
 70
0
  0
VERTEX
  8
CUT
 10
78.446
 20
45.3982
 30
0.0
 70
0
  0
VERTEX
  8
CUT
 10
80.5364
 20
46.0839
 30
0.0
 70
0
  0
VERTEX
  8
CUT
 10
82.7822
 20
46.3504
 30
0.0
 70
0
  0
VERTEX
  8
CUT
 10
82.7822
 20
45.4454
 30
0.0
 70
0
  0
VERTEX
  8
CUT
 10
80.7168
 20
45.1984
 30
0.0
 70
0
  0
VERTEX
  8
CUT
 10
78.7958
 20
44.5654
 30
0.0
 70
0
  0
VERTEX
  8
CUT
 10
77.058
 20
43.5938
 30
0.0
 70
0
  0
VERTEX
  8
CUT
 10
75.545
 20
42.3168
 30
0.0
 70
0
  0
VERTEX
  8
CUT
 10
74.2986
 20
40.7816
 30
0.0
 70
0
  0
VERTEX
  8
CUT
 10
73.3575
 20
39.0244
 30
0.0
 70
0
  0
VERTEX
  8
CUT
 10
72.7606
 20
37.0867
 30
0.0
 70
0
  0
VERTEX
  8
CUT
 10
72.5552
 20
35.0102
 30
0.0
 70
0
  0
SEQEND
  8
CUT
  0
POLYLINE
  8
CUT
 66
1
 10
0.0
 20
0.0
 30
0.0
 70
1
  0
VERTEX
  8
CUT
 10
91.9688
 20
25.0
 30
0.0
 70
0
  0
VERTEX
  8
CUT
 10
92.1959
 20
25.7384
 30
0.0
 70
0
  0
VERTEX
  8
CUT
 10
93.5062
 20
28.1703
 30
0.0
 70
0
  0
VERTEX
  8
CUT
 10
95.2384
 20
30.294
 30
0.0
 70
0
  0
VERTEX
  8
CUT
 10
97.3399
 20
32.0568
 30
0.0
 70
0
  0
VERTEX
  8
CUT
 10
99.7523
 20
33.3948
 30
0.0
 70
0
  0
VERTEX
  8
CUT
 10
102.4173
 20
34.2582
 30
0.0
 70
0
  0
VERTEX
  8
CUT
 10
105.2822
 20
34.5885
 30
0.0
 70
0
  0
VERTEX
  8
CUT
 10
105.2822
 20
33.6835
 30
0.0
 70
0
  0
VERTEX
  8
CUT
 10
102.6006
 20
33.3726
 30
0.0
 70
0
  0
VERTEX
  8
CUT
 10
100.1021
 20
32.5648
 30
0.0
 70
0
  0
VERTEX
  8
CUT
 10
97.8452
 20
31.3072
 30
0.0
 70
0
  0
VERTEX
  8
CUT
 10
95.8769
 20
29.6555
 30
0.0
 70
0
  0
VERTEX
  8
CUT
 10
94.2557
 20
27.665
 30
0.0
 70
0
  0
VERTEX
  8
CUT
 10
93.0287
 20
25.3859
 30
0.0
 70
0
  0
VERTEX
  8
CUT
 10
92.9102
 20
25.0
 30
0.0
 70
0
  0
SEQEND
  8
CUT
  0
POLYLINE
  8
CUT
 66
1
 10
0.0
 20
0.0
 30
0.0
 70
1
  0
VERTEX
  8
CUT
 10
87.0898
 20
25.0
 30
0.0
 70
0
  0
VERTEX
  8
CUT
 10
86.9713
 20
25.3859
 30
0.0
 70
0
  0
VERTEX
  8
CUT
 10
85.7443
 20
27.665
 30
0.0
 70
0
  0
VERTEX
  8
CUT
 10
84.1231
 20
29.6555
 30
0.0
 70
0
  0
VERTEX
  8
CUT
 10
82.1548
 20
31.3072
 30
0.0
 70
0
  0
VERTEX
  8
CUT
 10
79.8979
 20
32.5648
 30
0.0
 70
0
  0
VERTEX
  8
CUT
 10
77.3994
 20
33.3726
 30
0.0
 70
0
  0
VERTEX
  8
CUT
 10
74.7178
 20
33.6835
 30
0.0
 70
0
  0
VERTEX
  8
CUT
 10
74.7178
 20
34.5885
 30
0.0
 70
0
  0
VERTEX
  8
CUT
 10
77.5827
 20
34.2582
 30
0.0
 70
0
  0
VERTEX
  8
CUT
 10
80.2477
 20
33.3948
 30
0.0
 70
0
  0
VERTEX
  8
CUT
 10
82.6601
 20
32.0568
 30
0.0
 70
0
  0
VERTEX
  8
CUT
 10
84.7616
 20
30.294
 30
0.0
 70
0
  0
VERTEX
  8
CUT
 10
86.4938
 20
28.1703
 30
0.0
 70
0
  0
VERTEX
  8
CUT
 10
87.8041
 20
25.7384
 30
0.0
 70
0
  0
VERTEX
  8
CUT
 10
88.0312
 20
25.0
 30
0.0
 70
0
  0
SEQEND
  8
CUT
  0
POLYLINE
  8
CUT
 66
1
 10
0.0
 20
0.0
 30
0.0
 70
1
  0
VERTEX
  8
CUT
 10
83.7114
 20
25.0
 30
0.0
 70
0
  0
VERTEX
  8
CUT
 10
83.2014
 20
25.9522
 30
0.0
 70
0
  0
VERTEX
  8
CUT
 10
81.955
 20
27.4874
 30
0.0
 70
0
  0
VERTEX
  8
CUT
 10
80.442
 20
28.7643
 30
0.0
 70
0
  0
VERTEX
  8
CUT
 10
78.7042
 20
29.736
 30
0.0
 70
0
  0
VERTEX
  8
CUT
 10
76.7832
 20
30.3689
 30
0.0
 70
0
  0
VERTEX
  8
CUT
 10
74.7178
 20
30.616
 30
0.0
 70
0
  0
VERTEX
  8
CUT
 10
74.7178
 20
31.521
 30
0.0
 70
0
  0
VERTEX
  8
CUT
 10
76.9636
 20
31.2545
 30
0.0
 70
0
  0
VERTEX
  8
CUT
 10
79.054
 20
30.5688
 30
0.0
 70
0
  0
VERTEX
  8
CUT
 10
80.9473
 20
29.5111
 30
0.0
 70
0
  0
VERTEX
  8
CUT
 10
82.5935
 20
28.1258
 30
0.0
 70
0
  0
VERTEX
  8
CUT
 10
83.951
 20
26.4547
 30
0.0
 70
0
  0
VERTEX
  8
CUT
 10
84.7311
 20
25.0
 30
0.0
 70
0
  0
SEQEND
  8
CUT
  0
POLYLINE
  8
CUT
 66
1
 10
0.0
 20
0.0
 30
0.0
 70
1
  0
VERTEX
  8
CUT
 10
95.2689
 20
25.0
 30
0.0
 70
0
  0
VERTEX
  8
CUT
 10
96.049
 20
26.4547
 30
0.0
 70
0
  0
VERTEX
  8
CUT
 10
97.4065
 20
28.1258
 30
0.0
 70
0
  0
VERTEX
  8
CUT
 10
99.0527
 20
29.5111
 30
0.0
 70
0
  0
VERTEX
  8
CUT
 10
100.946
 20
30.5688
 30
0.0
 70
0
  0
VERTEX
  8
CUT
 10
103.0364
 20
31.2545
 30
0.0
 70
0
  0
VERTEX
  8
CUT
 10
105.2822
 20
31.521
 30
0.0
 70
0
  0
VERTEX
  8
CUT
 10
105.2822
 20
30.616
 30
0.0
 70
0
  0
VERTEX
  8
CUT
 10
103.2168
 20
30.3689
 30
0.0
 70
0
  0
VERTEX
  8
CUT
 10
101.2958
 20
29.736
 30
0.0
 70
0
  0
VERTEX
  8
CUT
 10
99.558
 20
28.7643
 30
0.0
 70
0
  0
VERTEX
  8
CUT
 10
98.045
 20
27.4874
 30
0.0
 70
0
  0
VERTEX
  8
CUT
 10
96.7986
 20
25.9522
 30
0.0
 70
0
  0
VERTEX
  8
CUT
 10
96.2886
 20
25.0
 30
0.0
 70
0
  0
SEQEND
  8
CUT
  0
POLYLINE
  8
CUT
 66
1
 10
0.0
 20
0.0
 30
0.0
 70
1
  0
VERTEX
  8
CUT
 10
15.0962
 20
36.7477
 30
0.0
 70
0
  0
VERTEX
  8
CUT
 10
14.0302
 20
36.6895
 30
0.0
 70
0
  0
VERTEX
  8
CUT
 10
12.9837
 20
36.5645
 30
0.0
 70
0
  0
VERTEX
  8
CUT
 10
11.9593
 20
36.373
 30
0.0
 70
0
  0
VERTEX
  8
CUT
 10
10.9571
 20
36.1204
 30
0.0
 70
0
  0
VERTEX
  8
CUT
 10
9.98
 20
35.8094
 30
0.0
 70
0
  0
VERTEX
  8
CUT
 10
9.0305
 20
35.4402
 30
0.0
 70
0
  0
VERTEX
  8
CUT
 10
8.1089
 20
35.0155
 30
0.0
 70
0
  0
VERTEX
  8
CUT
 10
8.0
 20
34.9568
 30
0.0
 70
0
  0
VERTEX
  8
CUT
 10
8.0
 20
43.1926
 30
0.0
 70
0
  0
VERTEX
  8
CUT
 10
8.6363
 20
43.1216
 30
0.0
 70
0
  0
VERTEX
  8
CUT
 10
9.9716
 20
42.7329
 30
0.0
 70
0
  0
VERTEX
  8
CUT
 10
11.2042
 20
42.1361
 30
0.0
 70
0
  0
VERTEX
  8
CUT
 10
12.3146
 20
41.3505
 30
0.0
 70
0
  0
VERTEX
  8
CUT
 10
13.2779
 20
40.3983
 30
0.0
 70
0
  0
VERTEX
  8
CUT
 10
14.0774
 20
39.3017
 30
0.0
 70
0
  0
VERTEX
  8
CUT
 10
14.6909
 20
38.0775
 30
0.0
 70
0
  0
SEQEND
  8
CUT
  0
POLYLINE
  8
CUT
 66
1
 10
0.0
 20
0.0
 30
0.0
 70
1
  0
VERTEX
  8
CUT
 10
8.0
 20
62.0818
 30
0.0
 70
0
  0
VERTEX
  8
CUT
 10
9.7523
 20
63.0537
 30
0.0
 70
0
  0
VERTEX
  8
CUT
 10
12.4173
 20
63.9171
 30
0.0
 70
0
  0
VERTEX
  8
CUT
 10
15.2822
 20
64.2474
 30
0.0
 70
0
  0
VERTEX
  8
CUT
 10
15.2822
 20
63.3424
 30
0.0
 70
0
  0
VERTEX
  8
CUT
 10
12.6006
 20
63.0315
 30
0.0
 70
0
  0
VERTEX
  8
CUT
 10
10.1021
 20
62.2237
 30
0.0
 70
0
  0
VERTEX
  8
CUT
 10
8.0
 20
61.0524
 30
0.0
 70
0
  0
SEQEND
  8
CUT
  0
POLYLINE
  8
CUT
 66
1
 10
0.0
 20
0.0
 30
0.0
 70
1
  0
VERTEX
  8
CUT
 10
8.0
 20
58.2842
 30
0.0
 70
0
  0
VERTEX
  8
CUT
 10
9.0527
 20
59.17
 30
0.0
 70
0
  0
VERTEX
  8
CUT
 10
10.946
 20
60.2277
 30
0.0
 70
0
  0
VERTEX
  8
CUT
 10
13.0364
 20
60.9134
 30
0.0
 70
0
  0
VERTEX
  8
CUT
 10
15.2822
 20
61.1799
 30
0.0
 70
0
  0
VERTEX
  8
CUT
 10
15.2822
 20
60.2749
 30
0.0
 70
0
  0
VERTEX
  8
CUT
 10
13.2168
 20
60.0278
 30
0.0
 70
0
  0
VERTEX
  8
CUT
 10
11.2958
 20
59.3949
 30
0.0
 70
0
  0
VERTEX
  8
CUT
 10
9.558
 20
58.4233
 30
0.0
 70
0
  0
VERTEX
  8
CUT
 10
8.045
 20
57.1463
 30
0.0
 70
0
  0
VERTEX
  8
CUT
 10
8.0
 20
57.0908
 30
0.0
 70
0
  0
SEQEND
  8
CUT
  0
POLYLINE
  8
CUT
 66
1
 10
0.0
 20
0.0
 30
0.0
 70
1
  0
VERTEX
  8
CUT
 10
15.2822
 20
25.0
 30
0.0
 70
0
  0
VERTEX
  8
CUT
 10
14.0
 20
25.0
 30
0.0
 70
0
  0
VERTEX
  8
CUT
 10
11.5637
 20
27.4363
 30
0.0
 70
0
  0
VERTEX
  8
CUT
 10
12.5284
 20
27.9035
 30
0.0
 70
0
  0
VERTEX
  8
CUT
 10
13.8637
 20
28.2921
 30
0.0
 70
0
  0
VERTEX
  8
CUT
 10
15.2822
 20
28.4504
 30
0.0
 70
0
  0
SEQEND
  8
CUT
  0
POLYLINE
  8
CUT
 66
1
 10
0.0
 20
0.0
 30
0.0
 70
1
  0
VERTEX
  8
CUT
 10
29.7178
 20
25.0
 30
0.0
 70
0
  0
VERTEX
  8
CUT
 10
29.7178
 20
28.4504
 30
0.0
 70
0
  0
VERTEX
  8
CUT
 10
31.1363
 20
28.2921
 30
0.0
 70
0
  0
VERTEX
  8
CUT
 10
32.4716
 20
27.9035
 30
0.0
 70
0
  0
VERTEX
  8
CUT
 10
33.7042
 20
27.3066
 30
0.0
 70
0
  0
VERTEX
  8
CUT
 10
34.8146
 20
26.521
 30
0.0
 70
0
  0
VERTEX
  8
CUT
 10
35.7779
 20
25.5688
 30
0.0
 70
0
  0
VERTEX
  8
CUT
 10
36.1926
 20
25.0
 30
0.0
 70
0
  0
SEQEND
  8
CUT
  0
POLYLINE
  8
CUT
 66
1
 10
0.0
 20
0.0
 30
0.0
 70
1
  0
VERTEX
  8
CUT
 10
24.4849
 20
25.0
 30
0.0
 70
0
  0
VERTEX
  8
CUT
 10
23.5827
 20
25.0
 30
0.0
 70
0
  0
VERTEX
  8
CUT
 10
23.5827
 20
35.0102
 30
0.0
 70
0
  0
VERTEX
  8
CUT
 10
23.8714
 20
37.8862
 30
0.0
 70
0
  0
VERTEX
  8
CUT
 10
24.6959
 20
40.5679
 30
0.0
 70
0
  0
VERTEX
  8
CUT
 10
26.0062
 20
42.9997
 30
0.0
 70
0
  0
VERTEX
  8
CUT
 10
27.7384
 20
45.1234
 30
0.0
 70
0
  0
VERTEX
  8
CUT
 10
29.8399
 20
46.8862
 30
0.0
 70
0
  0
VERTEX
  8
CUT
 10
32.2523
 20
48.2243
 30
0.0
 70
0
  0
VERTEX
  8
CUT
 10
34.9173
 20
49.0876
 30
0.0
 70
0
  0
VERTEX
  8
CUT
 10
37.7822
 20
49.418
 30
0.0
 70
0
  0
VERTEX
  8
CUT
 10
37.7822
 20
48.513
 30
0.0
 70
0
  0
VERTEX
  8
CUT
 10
35.1006
 20
48.2021
 30
0.0
 70
0
  0
VERTEX
  8
CUT
 10
32.6021
 20
47.3942
 30
0.0
 70
0
  0
VERTEX
  8
CUT
 10
30.3452
 20
46.1367
 30
0.0
 70
0
  0
VERTEX
  8
CUT
 10
28.3769
 20
44.4849
 30
0.0
 70
0
  0
VERTEX
  8
CUT
 10
26.7557
 20
42.4945
 30
0.0
 70
0
  0
VERTEX
  8
CUT
 10
25.5287
 20
40.2153
 30
0.0
 70
0
  0
VERTEX
  8
CUT
 10
24.7569
 20
37.703
 30
0.0
 70
0
  0
VERTEX
  8
CUT
 10
24.4849
 20
35.0102
 30
0.0
 70
0
  0
SEQEND
  8
CUT
  0
POLYLINE
  8
CUT
 66
1
 10
0.0
 20
0.0
 30
0.0
 70
1
  0
VERTEX
  8
CUT
 10
21.4173
 20
25.0
 30
0.0
 70
0
  0
VERTEX
  8
CUT
 10
20.5151
 20
25.0
 30
0.0
 70
0
  0
VERTEX
  8
CUT
 10
20.5151
 20
35.0102
 30
0.0
 70
0
  0
VERTEX
  8
CUT
 10
20.2431
 20
37.703
 30
0.0
 70
0
  0
VERTEX
  8
CUT
 10
19.4713
 20
40.2153
 30
0.0
 70
0
  0
VERTEX
  8
CUT
 10
18.2443
 20
42.4945
 30
0.0
 70
0
  0
VERTEX
  8
CUT
 10
16.6231
 20
44.4849
 30
0.0
 70
0
  0
VERTEX
  8
CUT
 10
14.6548
 20
46.1367
 30
0.0
 70
0
  0
VERTEX
  8
CUT
 10
12.3979
 20
47.3942
 30
0.0
 70
0
  0
VERTEX
  8
CUT
 10
9.8994
 20
48.2021
 30
0.0
 70
0
  0
VERTEX
  8
CUT
 10
8.0
 20
48.4223
 30
0.0
 70
0
  0
VERTEX
  8
CUT
 10
8.0
 20
49.3278
 30
0.0
 70
0
  0
VERTEX
  8
CUT
 10
10.0827
 20
49.0876
 30
0.0
 70
0
  0
VERTEX
  8
CUT
 10
12.7477
 20
48.2243
 30
0.0
 70
0
  0
VERTEX
  8
CUT
 10
15.1601
 20
46.8862
 30
0.0
 70
0
  0
VERTEX
  8
CUT
 10
17.2616
 20
45.1234
 30
0.0
 70
0
  0
VERTEX
  8
CUT
 10
18.9938
 20
42.9997
 30
0.0
 70
0
  0
VERTEX
  8
CUT
 10
20.3041
 20
40.5679
 30
0.0
 70
0
  0
VERTEX
  8
CUT
 10
21.1286
 20
37.8862
 30
0.0
 70
0
  0
VERTEX
  8
CUT
 10
21.4173
 20
35.0102
 30
0.0
 70
0
  0
SEQEND
  8
CUT
  0
POLYLINE
  8
CUT
 66
1
 10
0.0
 20
0.0
 30
0.0
 70
1
  0
VERTEX
  8
CUT
 10
18.3498
 20
25.0
 30
0.0
 70
0
  0
VERTEX
  8
CUT
 10
17.4448
 20
25.0
 30
0.0
 70
0
  0
VERTEX
  8
CUT
 10
17.4448
 20
35.0102
 30
0.0
 70
0
  0
VERTEX
  8
CUT
 10
17.2394
 20
37.0867
 30
0.0
 70
0
  0
VERTEX
  8
CUT
 10
16.6425
 20
39.0244
 30
0.0
 70
0
  0
VERTEX
  8
CUT
 10
15.7014
 20
40.7816
 30
0.0
 70
0
  0
VERTEX
  8
CUT
 10
14.455
 20
42.3168
 30
0.0
 70
0
  0
VERTEX
  8
CUT
 10
12.942
 20
43.5938
 30
0.0
 70
0
  0
VERTEX
  8
CUT
 10
11.2042
 20
44.5654
 30
0.0
 70
0
  0
VERTEX
  8
CUT
 10
9.2832
 20
45.1984
 30
0.0
 70
0
  0
VERTEX
  8
CUT
 10
8.0
 20
45.3519
 30
0.0
 70
0
  0
VERTEX
  8
CUT
 10
8.0
 20
46.2576
 30
0.0
 70
0
  0
VERTEX
  8
CUT
 10
9.4636
 20
46.0839
 30
0.0
 70
0
  0
VERTEX
  8
CUT
 10
11.554
 20
45.3982
 30
0.0
 70
0
  0
VERTEX
  8
CUT
 10
13.4473
 20
44.3406
 30
0.0
 70
0
  0
VERTEX
  8
CUT
 10
15.0935
 20
42.9553
 30
0.0
 70
0
  0
VERTEX
  8
CUT
 10
16.451
 20
41.2841
 30
0.0
 70
0
  0
VERTEX
  8
CUT
 10
17.4753
 20
39.3742
 30
0.0
 70
0
  0
VERTEX
  8
CUT
 10
18.1249
 20
37.2671
 30
0.0
 70
0
  0
VERTEX
  8
CUT
 10
18.3498
 20
35.0102
 30
0.0
 70
0
  0
SEQEND
  8
CUT
  0
POLYLINE
  8
CUT
 66
1
 10
0.0
 20
0.0
 30
0.0
 70
1
  0
VERTEX
  8
CUT
 10
27.5552
 20
25.0
 30
0.0
 70
0
  0
VERTEX
  8
CUT
 10
26.6502
 20
25.0
 30
0.0
 70
0
  0
VERTEX
  8
CUT
 10
26.6502
 20
35.0102
 30
0.0
 70
0
  0
VERTEX
  8
CUT
 10
26.8751
 20
37.2671
 30
0.0
 70
0
  0
VERTEX
  8
CUT
 10
27.5247
 20
39.3742
 30
0.0
 70
0
  0
VERTEX
  8
CUT
 10
28.549
 20
41.2841
 30
0.0
 70
0
  0
VERTEX
  8
CUT
 10
29.9065
 20
42.9553
 30
0.0
 70
0
  0
VERTEX
  8
CUT
 10
31.5527
 20
44.3406
 30
0.0
 70
0
  0
VERTEX
  8
CUT
 10
33.446
 20
45.3982
 30
0.0
 70
0
  0
VERTEX
  8
CUT
 10
35.5364
 20
46.0839
 30
0.0
 70
0
  0
VERTEX
  8
CUT
 10
37.7822
 20
46.3504
 30
0.0
 70
0
  0
VERTEX
  8
CUT
 10
37.7822
 20
45.4454
 30
0.0
 70
0
  0
VERTEX
  8
CUT
 10
35.7168
 20
45.1984
 30
0.0
 70
0
  0
VERTEX
  8
CUT
 10
33.7958
 20
44.5654
 30
0.0
 70
0
  0
VERTEX
  8
CUT
 10
32.058
 20
43.5938
 30
0.0
 70
0
  0
VERTEX
  8
CUT
 10
30.545
 20
42.3168
 30
0.0
 70
0
  0
VERTEX
  8
CUT
 10
29.2986
 20
40.7816
 30
0.0
 70
0
  0
VERTEX
  8
CUT
 10
28.3575
 20
39.0244
 30
0.0
 70
0
  0
VERTEX
  8
CUT
 10
27.7606
 20
37.0867
 30
0.0
 70
0
  0
VERTEX
  8
CUT
 10
27.5552
 20
35.0102
 30
0.0
 70
0
  0
SEQEND
  8
CUT
  0
POLYLINE
  8
CUT
 66
1
 10
0.0
 20
0.0
 30
0.0
 70
1
  0
VERTEX
  8
CUT
 10
46.9688
 20
25.0
 30
0.0
 70
0
  0
VERTEX
  8
CUT
 10
47.1959
 20
25.7384
 30
0.0
 70
0
  0
VERTEX
  8
CUT
 10
48.5062
 20
28.1703
 30
0.0
 70
0
  0
VERTEX
  8
CUT
 10
50.2384
 20
30.294
 30
0.0
 70
0
  0
VERTEX
  8
CUT
 10
52.3399
 20
32.0568
 30
0.0
 70
0
  0
VERTEX
  8
CUT
 10
54.7523
 20
33.3948
 30
0.0
 70
0
  0
VERTEX
  8
CUT
 10
57.4173
 20
34.2582
 30
0.0
 70
0
  0
VERTEX
  8
CUT
 10
60.2822
 20
34.5885
 30
0.0
 70
0
  0
VERTEX
  8
CUT
 10
60.2822
 20
33.6835
 30
0.0
 70
0
  0
VERTEX
  8
CUT
 10
57.6006
 20
33.3726
 30
0.0
 70
0
  0
VERTEX
  8
CUT
 10
55.1021
 20
32.5648
 30
0.0
 70
0
  0
VERTEX
  8
CUT
 10
52.8452
 20
31.3072
 30
0.0
 70
0
  0
VERTEX
  8
CUT
 10
50.8769
 20
29.6555
 30
0.0
 70
0
  0
VERTEX
  8
CUT
 10
49.2557
 20
27.665
 30
0.0
 70
0
  0
VERTEX
  8
CUT
 10
48.0287
 20
25.3859
 30
0.0
 70
0
  0
VERTEX
  8
CUT
 10
47.9102
 20
25.0
 30
0.0
 70
0
  0
SEQEND
  8
CUT
  0
POLYLINE
  8
CUT
 66
1
 10
0.0
 20
0.0
 30
0.0
 70
1
  0
VERTEX
  8
CUT
 10
42.0898
 20
25.0
 30
0.0
 70
0
  0
VERTEX
  8
CUT
 10
41.9713
 20
25.3859
 30
0.0
 70
0
  0
VERTEX
  8
CUT
 10
40.7443
 20
27.665
 30
0.0
 70
0
  0
VERTEX
  8
CUT
 10
39.1231
 20
29.6555
 30
0.0
 70
0
  0
VERTEX
  8
CUT
 10
37.1548
 20
31.3072
 30
0.0
 70
0
  0
VERTEX
  8
CUT
 10
34.8979
 20
32.5648
 30
0.0
 70
0
  0
VERTEX
  8
CUT
 10
32.3994
 20
33.3726
 30
0.0
 70
0
  0
VERTEX
  8
CUT
 10
29.7178
 20
33.6835
 30
0.0
 70
0
  0
VERTEX
  8
CUT
 10
29.7178
 20
34.5885
 30
0.0
 70
0
  0
VERTEX
  8
CUT
 10
32.5827
 20
34.2582
 30
0.0
 70
0
  0
VERTEX
  8
CUT
 10
35.2477
 20
33.3948
 30
0.0
 70
0
  0
VERTEX
  8
CUT
 10
37.6601
 20
32.0568
 30
0.0
 70
0
  0
VERTEX
  8
CUT
 10
39.7616
 20
30.294
 30
0.0
 70
0
  0
VERTEX
  8
CUT
 10
41.4938
 20
28.1703
 30
0.0
 70
0
  0
VERTEX
  8
CUT
 10
42.8041
 20
25.7384
 30
0.0
 70
0
  0
VERTEX
  8
CUT
 10
43.0312
 20
25.0
 30
0.0
 70
0
  0
SEQEND
  8
CUT
  0
POLYLINE
  8
CUT
 66
1
 10
0.0
 20
0.0
 30
0.0
 70
1
  0
VERTEX
  8
CUT
 10
38.7114
 20
25.0
 30
0.0
 70
0
  0
VERTEX
  8
CUT
 10
38.2014
 20
25.9522
 30
0.0
 70
0
  0
VERTEX
  8
CUT
 10
36.955
 20
27.4874
 30
0.0
 70
0
  0
VERTEX
  8
CUT
 10
35.442
 20
28.7643
 30
0.0
 70
0
  0
VERTEX
  8
CUT
 10
33.7042
 20
29.736
 30
0.0
 70
0
  0
VERTEX
  8
CUT
 10
31.7832
 20
30.3689
 30
0.0
 70
0
  0
VERTEX
  8
CUT
 10
29.7178
 20
30.616
 30
0.0
 70
0
  0
VERTEX
  8
CUT
 10
29.7178
 20
31.521
 30
0.0
 70
0
  0
VERTEX
  8
CUT
 10
31.9636
 20
31.2545
 30
0.0
 70
0
  0
VERTEX
  8
CUT
 10
34.054
 20
30.5688
 30
0.0
 70
0
  0
VERTEX
  8
CUT
 10
35.9473
 20
29.5111
 30
0.0
 70
0
  0
VERTEX
  8
CUT
 10
37.5935
 20
28.1258
 30
0.0
 70
0
  0
VERTEX
  8
CUT
 10
38.951
 20
26.4547
 30
0.0
 70
0
  0
VERTEX
  8
CUT
 10
39.7311
 20
25.0
 30
0.0
 70
0
  0
SEQEND
  8
CUT
  0
POLYLINE
  8
CUT
 66
1
 10
0.0
 20
0.0
 30
0.0
 70
1
  0
VERTEX
  8
CUT
 10
50.2689
 20
25.0
 30
0.0
 70
0
  0
VERTEX
  8
CUT
 10
51.049
 20
26.4547
 30
0.0
 70
0
  0
VERTEX
  8
CUT
 10
52.4065
 20
28.1258
 30
0.0
 70
0
  0
VERTEX
  8
CUT
 10
54.0527
 20
29.5111
 30
0.0
 70
0
  0
VERTEX
  8
CUT
 10
55.946
 20
30.5688
 30
0.0
 70
0
  0
VERTEX
  8
CUT
 10
58.0364
 20
31.2545
 30
0.0
 70
0
  0
VERTEX
  8
CUT
 10
60.2822
 20
31.521
 30
0.0
 70
0
  0
VERTEX
  8
CUT
 10
60.2822
 20
30.616
 30
0.0
 70
0
  0
VERTEX
  8
CUT
 10
58.2168
 20
30.3689
 30
0.0
 70
0
  0
VERTEX
  8
CUT
 10
56.2958
 20
29.736
 30
0.0
 70
0
  0
VERTEX
  8
CUT
 10
54.558
 20
28.7643
 30
0.0
 70
0
  0
VERTEX
  8
CUT
 10
53.045
 20
27.4874
 30
0.0
 70
0
  0
VERTEX
  8
CUT
 10
51.7986
 20
25.9522
 30
0.0
 70
0
  0
VERTEX
  8
CUT
 10
51.2886
 20
25.0
 30
0.0
 70
0
  0
SEQEND
  8
CUT
  0
POLYLINE
  8
CUT
 66
1
 10
0.0
 20
0.0
 30
0.0
 70
1
  0
VERTEX
  8
CUT
 10
8.0
 20
32.4229
 30
0.0
 70
0
  0
VERTEX
  8
CUT
 10
9.7523
 20
33.3948
 30
0.0
 70
0
  0
VERTEX
  8
CUT
 10
12.4173
 20
34.2582
 30
0.0
 70
0
  0
VERTEX
  8
CUT
 10
15.2822
 20
34.5885
 30
0.0
 70
0
  0
VERTEX
  8
CUT
 10
15.2822
 20
33.6835
 30
0.0
 70
0
  0
VERTEX
  8
CUT
 10
12.6006
 20
33.3726
 30
0.0
 70
0
  0
VERTEX
  8
CUT
 10
10.1021
 20
32.5648
 30
0.0
 70
0
  0
VERTEX
  8
CUT
 10
8.0
 20
31.3935
 30
0.0
 70
0
  0
SEQEND
  8
CUT
  0
POLYLINE
  8
CUT
 66
1
 10
0.0
 20
0.0
 30
0.0
 70
1
  0
VERTEX
  8
CUT
 10
9.3326
 20
29.6674
 30
0.0
 70
0
  0
VERTEX
  8
CUT
 10
10.946
 20
30.5688
 30
0.0
 70
0
  0
VERTEX
  8
CUT
 10
13.0364
 20
31.2545
 30
0.0
 70
0
  0
VERTEX
  8
CUT
 10
15.2822
 20
31.521
 30
0.0
 70
0
  0
VERTEX
  8
CUT
 10
15.2822
 20
30.616
 30
0.0
 70
0
  0
VERTEX
  8
CUT
 10
13.2168
 20
30.3689
 30
0.0
 70
0
  0
VERTEX
  8
CUT
 10
11.2958
 20
29.736
 30
0.0
 70
0
  0
VERTEX
  8
CUT
 10
9.9926
 20
29.0074
 30
0.0
 70
0
  0
SEQEND
  8
CUT
  0
CIRCLE
  8
CUT
 10
42.0
 20
14.0
 30
0.0
 40
9.7
  0
CIRCLE
  8
CUT
 10
74.0
 20
14.0
 30
0.0
 40
9.7
  0
CIRCLE
  8
CUT
 10
106.0
 20
14.0
 30
0.0
 40
9.7
  0
CIRCLE
  8
CUT
 10
138.0
 20
14.0
 30
0.0
 40
9.7
  0
CIRCLE
  8
CUT
 10
6.0
 20
84.0
 30
0.0
 40
1.65
  0
CIRCLE
  8
CUT
 10
174.0
 20
84.0
 30
0.0
 40
1.65
  0
CIRCLE
  8
CUT
 10
6.0
 20
6.0
 30
0.0
 40
1.65
  0
CIRCLE
  8
CUT
 10
174.0
 20
6.0
 30
0.0
 40
1.65
  0
CIRCLE
  8
INFO_CSK
 10
6.0
 20
84.0
 30
0.0
 40
3.0
  0
CIRCLE
  8
INFO_CSK
 10
174.0
 20
84.0
 30
0.0
 40
3.0
  0
CIRCLE
  8
INFO_CSK
 10
6.0
 20
6.0
 30
0.0
 40
3.0
  0
CIRCLE
  8
INFO_CSK
 10
174.0
 20
6.0
 30
0.0
 40
3.0
  0
ENDSEC
  0
EOF
